<svg width="47" height="47" viewBox="0 0 47 47" fill="none" xmlns="http://www.w3.org/2000/svg">
<mask id="mask0" mask-type="alpha" maskUnits="userSpaceOnUse" x="5" y="5" width="37" height="37">
<path d="M34.733 17.9231C34.733 27.2724 27.1786 34.8462 17.8665 34.8462C8.55436 34.8462 1 27.2724 1 17.9231C1 8.57374 8.55436 1 17.8665 1C27.1786 1 34.733 8.57374 34.733 17.9231Z" transform="matrix(0.919269 0.393631 -0.394792 0.91877 14.1514 0)" fill="#C4C4C4" stroke="black" stroke-width="2"/>
</mask>
<g mask="url(#mask0)">
<path d="M6.084 0.425244C6.43407 0.171554 6.90753 0.171554 7.2576 0.425244L12.4256 4.1704C12.777 4.42504 12.924 4.87725 12.7896 5.28986L10.8167 11.3464C10.6826 11.7581 10.2988 12.0367 9.86583 12.0367H3.47577C3.04282 12.0367 2.65904 11.7581 2.52494 11.3464L0.551993 5.28986C0.417584 4.87725 0.564632 4.42504 0.916017 4.1704L6.084 0.425244Z" transform="matrix(-0.658237 0.753301 -0.752196 -0.658375 39.998 7.01154)" stroke="#F24841" stroke-width="2"/>
<path d="M6.084 0.425244C6.43407 0.171554 6.90753 0.171554 7.2576 0.425244L12.4256 4.1704C12.777 4.42504 12.924 4.87725 12.7896 5.28986L10.8167 11.3464C10.6826 11.7581 10.2988 12.0367 9.86583 12.0367H3.47577C3.04282 12.0367 2.65904 11.7581 2.52494 11.3464L0.551993 5.28986C0.417584 4.87725 0.564632 4.42504 0.916017 4.1704L6.084 0.425244Z" transform="matrix(-0.658237 0.753301 -0.752196 -0.658375 17.4424 31.5502)" stroke="#F24841" stroke-width="2"/>
<path d="M6.084 0.425244C6.43407 0.171554 6.90753 0.171554 7.2576 0.425244L12.4256 4.1704C12.777 4.42504 12.924 4.87725 12.7896 5.28986L10.8167 11.3464C10.6826 11.7581 10.2988 12.0367 9.86583 12.0367H3.47577C3.04282 12.0367 2.65904 11.7581 2.52494 11.3464L0.551993 5.28986C0.417584 4.87725 0.564632 4.42504 0.916017 4.1704L6.084 0.425244Z" transform="matrix(-0.658237 0.753301 -0.752196 -0.658375 37.7432 40.2427)" stroke="#F24841" stroke-width="2"/>
<path d="M6.084 0.425244C6.43407 0.171554 6.90753 0.171554 7.2576 0.425244L12.4256 4.1704C12.777 4.42504 12.924 4.87725 12.7896 5.28986L10.8167 11.3464C10.6826 11.7581 10.2988 12.0367 9.86583 12.0367H3.47577C3.04282 12.0367 2.65904 11.7581 2.52494 11.3464L0.551993 5.28986C0.417584 4.87725 0.564632 4.42504 0.916017 4.1704L6.084 0.425244Z" transform="matrix(-0.658237 0.753301 -0.752196 -0.658375 19.2617 11.8765)" stroke="#F24841" stroke-width="2"/>
<path d="M6.084 0.425244C6.43407 0.171554 6.90753 0.171554 7.2576 0.425244L12.4256 4.1704C12.777 4.42504 12.924 4.87725 12.7896 5.28986L10.8167 11.3464C10.6826 11.7581 10.2988 12.0367 9.86583 12.0367H3.47577C3.04282 12.0367 2.65904 11.7581 2.52494 11.3464L0.551993 5.28986C0.417584 4.87725 0.564632 4.42504 0.916017 4.1704L6.084 0.425244Z" transform="matrix(-0.658237 0.753301 -0.752196 -0.658375 50.6299 25.3083)" stroke="#F24841" stroke-width="2"/>
</g>
<path d="M34.733 17.9231C34.733 27.2724 27.1786 34.8462 17.8665 34.8462C8.55436 34.8462 1 27.2724 1 17.9231C1 8.57374 8.55436 1 17.8665 1C27.1786 1 34.733 8.57374 34.733 17.9231Z" transform="matrix(0.919269 0.393631 -0.394792 0.91877 14.1514 0)" stroke="#2E3237" stroke-width="2"/>
<path d="M6.06273 0.42929C6.41373 0.173466 6.88973 0.173466 7.24073 0.42929L12.3923 4.18395C12.7416 4.43859 12.8878 4.88892 12.7546 5.30021L10.7856 11.3793C10.652 11.7918 10.2678 12.0712 9.83426 12.0712H3.46919C3.03562 12.0712 2.65145 11.7918 2.51785 11.3793L0.548859 5.30021C0.415643 4.88892 0.561821 4.43859 0.9112 4.18395L6.06273 0.42929Z" transform="matrix(0.919269 0.393631 -0.394792 0.91877 20.1611 15.107)" stroke="#F24841" stroke-width="2"/>
<path d="M0 0V4.9478" transform="matrix(0.919269 0.393631 -0.394792 0.91877 28.0703 14.0337)" stroke="#F24841" stroke-width="2"/>
<path d="M0 0L4.45838 0.98956" transform="matrix(0.919269 0.393631 -0.394792 0.91877 14.9268 17.017)" stroke="#F24841" stroke-width="2"/>
<path d="M0 0L4.0368 1.51611" transform="matrix(-0.844793 -0.535093 -0.536426 0.843948 34.6982 25.6317)" stroke="#F24841" stroke-width="2"/>
<path d="M0 3.46346L3.46763 0" transform="matrix(0.919269 0.393631 -0.394792 0.91877 14.9893 25.6554)" stroke="#F24841" stroke-width="2"/>
<path d="M2.97225 2.96868L0 0" transform="matrix(0.919269 0.393631 -0.394792 0.91877 25.2676 30.5949)" stroke="#F24841" stroke-width="2"/>
</svg>
