<svg width="47" height="47" fill="none" xmlns="http://www.w3.org/2000/svg"><mask id="a" maskUnits="userSpaceOnUse" x="5" y="5" width="37" height="37"><path d="M34.733 17.923c0 9.35-7.554 16.923-16.866 16.923C8.553 34.846 1 27.272 1 17.923 1 8.573 8.554 1 17.866 1c9.313 0 16.867 7.574 16.867 16.923z" transform="rotate(23.181 7.076 34.5) skewX(-.072)" fill="#C4C4C4" stroke="#000" stroke-width="2"/></mask><g mask="url(#a)" stroke="#F24841" stroke-width="2"><path d="M6.084.425a1 1 0 0 1 1.174 0l5.168 3.745a1 1 0 0 1 .364 1.12l-1.973 6.056a1 1 0 0 1-.951.69h-6.39a1 1 0 0 1-.951-.69L.552 5.29a1 1 0 0 1 .364-1.12L6.084.425z" transform="matrix(-.65824 .7533 -.7522 -.65838 39.998 7.012)"/><path d="M6.084.425a1 1 0 0 1 1.174 0l5.168 3.745a1 1 0 0 1 .364 1.12l-1.973 6.056a1 1 0 0 1-.951.69h-6.39a1 1 0 0 1-.951-.69L.552 5.29a1 1 0 0 1 .364-1.12L6.084.425z" transform="matrix(-.65824 .7533 -.7522 -.65838 17.442 31.55)"/><path d="M6.084.425a1 1 0 0 1 1.174 0l5.168 3.745a1 1 0 0 1 .364 1.12l-1.973 6.056a1 1 0 0 1-.951.69h-6.39a1 1 0 0 1-.951-.69L.552 5.29a1 1 0 0 1 .364-1.12L6.084.425z" transform="matrix(-.65824 .7533 -.7522 -.65838 37.743 40.243)"/><path d="M6.084.425a1 1 0 0 1 1.174 0l5.168 3.745a1 1 0 0 1 .364 1.12l-1.973 6.056a1 1 0 0 1-.951.69h-6.39a1 1 0 0 1-.951-.69L.552 5.29a1 1 0 0 1 .364-1.12L6.084.425z" transform="matrix(-.65824 .7533 -.7522 -.65838 19.262 11.877)"/><path d="M6.084.425a1 1 0 0 1 1.174 0l5.168 3.745a1 1 0 0 1 .364 1.12l-1.973 6.056a1 1 0 0 1-.951.69h-6.39a1 1 0 0 1-.951-.69L.552 5.29a1 1 0 0 1 .364-1.12L6.084.425z" transform="matrix(-.65824 .7533 -.7522 -.65838 50.63 25.308)"/></g><path d="M34.733 17.923c0 9.35-7.554 16.923-16.866 16.923C8.553 34.846 1 27.272 1 17.923 1 8.573 8.554 1 17.866 1c9.313 0 16.867 7.574 16.867 16.923z" transform="rotate(23.181 7.076 34.5) skewX(-.072)" stroke="#2E3237" stroke-width="2"/><path d="M6.063.43a1 1 0 0 1 1.178 0l5.151 3.754a1 1 0 0 1 .363 1.116l-1.97 6.08a1 1 0 0 1-.95.691H3.468a1 1 0 0 1-.951-.692L.548 5.3a1 1 0 0 1 .363-1.116L6.063.429z" transform="rotate(23.181 -26.749 56.704) skewX(-.072)" stroke="#F24841" stroke-width="2"/><path d="M0 0v4.948" transform="rotate(23.181 -20.178 75.45) skewX(-.072)" stroke="#F24841" stroke-width="2"/><path d="M0 0l4.458.99" transform="rotate(23.181 -34.022 44.899) skewX(-.072)" stroke="#F24841" stroke-width="2"/><path d="M0 0l4.037 1.516" transform="matrix(-.8448 -.5351 -.53643 .84395 34.698 25.632)" stroke="#F24841" stroke-width="2"/><path d="M0 3.463L3.468 0" transform="rotate(23.181 -55.05 49.37) skewX(-.072)" stroke="#F24841" stroke-width="2"/><path d="M2.972 2.969L0 0" transform="rotate(23.181 -61.954 76.897) skewX(-.072)" stroke="#F24841" stroke-width="2"/></svg>