<svg width="35" height="40" fill="none" xmlns="http://www.w3.org/2000/svg"><path d="M35 2.235l-.89-.239C29.177.672 22.76 0 17.5 0S5.822.672.89 1.996l-.89.24 1.25 24.428a7.95 7.95 0 0 0 1.352 4.432 8.452 8.452 0 0 0 3.503 2.972l8.57 3.94c.728.335 1.405.77 2.012 1.292l.813.7.813-.7a8.57 8.57 0 0 1 2.012-1.292l8.57-3.94a8.452 8.452 0 0 0 3.504-2.972 7.95 7.95 0 0 0 1.351-4.432L35 2.235zm-7.156 29.718l-8.57 3.941c-.384.177-.762.377-1.123.596l-.65.396-.652-.396c-.36-.219-.738-.42-1.122-.596l-8.57-3.94a6.202 6.202 0 0 1-.196-.095c-1.738-.875-2.932-2.517-3.21-4.363a5.564 5.564 0 0 1-.063-.832l-1.25-22.65.932-.217c4.16-.964 9.744-1.453 14.13-1.453 4.386 0 9.97.489 14.13 1.453l.933.217-1.25 22.65c0 .28-.022.558-.063.832-.29 1.914-1.562 3.61-3.406 4.457z" fill="#2E3237"/><mask id="a" maskUnits="userSpaceOnUse" x="7" y="8" width="21" height="21"><path d="M18.007 9.534c0 4.715-3.81 8.533-8.504 8.533C4.81 18.067 1 14.25 1 9.534 1 4.818 4.81 1 9.503 1c4.694 0 8.504 3.818 8.504 8.534z" transform="rotate(23.181 -8.364 33.54) skewX(-.072)" fill="#C4C4C4" stroke="#000" stroke-width="2"/></mask><g mask="url(#a)" stroke="#F24841" stroke-width="1.6"><path d="M2.962.425a1 1 0 0 1 1.173 0l2.198 1.593a1 1 0 0 1 .364 1.12L5.86 5.712a1 1 0 0 1-.951.69h-2.72a1 1 0 0 1-.95-.69l-.84-2.574a1 1 0 0 1 .364-1.12L2.962.425z" transform="matrix(-.65824 .7533 -.7522 -.65838 26.275 9.73)"/><path d="M2.962.425a1 1 0 0 1 1.173 0l2.198 1.593a1 1 0 0 1 .364 1.12L5.86 5.712a1 1 0 0 1-.951.69h-2.72a1 1 0 0 1-.95-.69l-.84-2.574a1 1 0 0 1 .364-1.12L2.962.425z" transform="matrix(-.65824 .7533 -.7522 -.65838 14.278 22.782)"/><path d="M2.962.425a1 1 0 0 1 1.173 0l2.198 1.593a1 1 0 0 1 .364 1.12L5.86 5.712a1 1 0 0 1-.951.69h-2.72a1 1 0 0 1-.95-.69l-.84-2.574a1 1 0 0 1 .364-1.12L2.962.425z" transform="matrix(-.65824 .7533 -.7522 -.65838 25.076 27.406)"/><path d="M2.962.425a1 1 0 0 1 1.173 0l2.198 1.593a1 1 0 0 1 .364 1.12L5.86 5.712a1 1 0 0 1-.951.69h-2.72a1 1 0 0 1-.95-.69l-.84-2.574a1 1 0 0 1 .364-1.12L2.962.425z" transform="matrix(-.65824 .7533 -.7522 -.65838 15.246 12.317)"/><path d="M2.962.425a1 1 0 0 1 1.173 0l2.198 1.593a1 1 0 0 1 .364 1.12L5.86 5.712a1 1 0 0 1-.951.69h-2.72a1 1 0 0 1-.95-.69l-.84-2.574a1 1 0 0 1 .364-1.12L2.962.425z" transform="matrix(-.65824 .7533 -.7522 -.65838 31.932 19.462)"/></g><path d="M18.007 9.534c0 4.715-3.81 8.533-8.504 8.533C4.81 18.067 1 14.25 1 9.534 1 4.818 4.81 1 9.503 1c4.694 0 8.504 3.818 8.504 8.534z" transform="rotate(23.181 -8.364 33.54) skewX(-.072)" stroke="#2E3237" stroke-width="2"/><path d="M2.95.43a1 1 0 0 1 1.177 0l2.19 1.596a1 1 0 0 1 .363 1.116l-.838 2.587a1 1 0 0 1-.951.692H2.186a1 1 0 0 1-.952-.692L.396 3.142A1 1 0 0 1 .76 2.026L2.949.429z" transform="rotate(23.181 -26.355 45.353) skewX(-.072)" stroke="#F24841" stroke-width="1.6"/><path d="M0 0v2.632" transform="rotate(23.181 -22.86 55.324) skewX(-.072)" stroke="#F24841" stroke-width="1.6"/><path d="M0 0l2.371.526" transform="rotate(23.181 -30.225 39.071) skewX(-.072)" stroke="#F24841" stroke-width="1.6"/><path d="M0 0l2.147.806" transform="matrix(-.8448 -.5351 -.53643 .84395 23.457 19.634)" stroke="#F24841" stroke-width="1.6"/><path d="M0 1.842L1.844 0" transform="rotate(23.181 -41.41 41.45) skewX(-.072)" stroke="#F24841" stroke-width="1.6"/><path d="M1.581 1.58L0 0" transform="rotate(23.181 -45.081 56.093) skewX(-.072)" stroke="#F24841" stroke-width="1.6"/><path d="M9 34v-5.5M9 7V2m17 5V2m0 32v-5m-8.5 8.5v-6m0-25.5V2" stroke="#2E3237" stroke-width="2"/></svg>