<svg width="66" height="67" fill="none" xmlns="http://www.w3.org/2000/svg"><path d="M0 0l5.463 8.77L10.927 0" transform="matrix(.69669 .71737 -.7225 .69136 33.732 45.09)" stroke="#2E3237" stroke-width="2" stroke-linejoin="bevel"/><path transform="matrix(.69669 .71737 -.7225 .69136 29.129 51.654)" stroke="#2E3237" stroke-width="2" d="M1 1h5.805v12.077H1z"/><mask id="a" maskUnits="userSpaceOnUse" x="6" y="6" width="41" height="41"><path d="M39.324 20.202c0 10.606-8.581 19.201-19.162 19.201S1 30.808 1 20.202C1 9.595 9.58 1 20.162 1c10.58 0 19.162 8.595 19.162 19.202z" transform="rotate(23.145 7.987 39.007) skewX(-.145)" fill="#C4C4C4" stroke="#000" stroke-width="2"/></mask><g mask="url(#a)" stroke="#F24841" stroke-width="2"><path d="M6.933.426a1 1 0 0 1 1.174 0l5.975 4.335a1 1 0 0 1 .364 1.118l-2.282 7.012a1 1 0 0 1-.95.69H3.825a1 1 0 0 1-.951-.69L.593 5.88a1 1 0 0 1 .364-1.118L6.933.426z" transform="matrix(-.65913 .75301 -.75248 -.65748 45.15 7.9)"/><path d="M6.933.426a1 1 0 0 1 1.174 0l5.975 4.335a1 1 0 0 1 .364 1.118l-2.282 7.012a1 1 0 0 1-.95.69H3.825a1 1 0 0 1-.951-.69L.593 5.88a1 1 0 0 1 .364-1.118L6.933.426z" transform="matrix(-.65913 .75301 -.75248 -.65748 19.69 35.551)"/><path d="M5.691 0l6.563 4.76a1 1 0 0 1 .364 1.12l-2.282 7.011a1 1 0 0 1-.95.69H1.997a1 1 0 0 1-.951-.69L0 9.675" transform="matrix(-.65913 .75301 -.75248 -.65748 41.398 46.723)"/><path d="M6.933.426a1 1 0 0 1 1.174 0l5.975 4.335a1 1 0 0 1 .364 1.118l-2.282 7.012a1 1 0 0 1-.95.69H3.825a1 1 0 0 1-.951-.69L.593 5.88a1 1 0 0 1 .364-1.118L6.933.426z" transform="matrix(-.65913 .75301 -.75248 -.65748 21.743 13.383)"/><path d="M7.152 0L.589 4.76a1 1 0 0 0-.364 1.12l2.282 7.011a1 1 0 0 0 .95.69h7.388a1 1 0 0 0 .951-.69l.508-1.559" transform="matrix(-.65913 .75301 -.75248 -.65748 56.908 28.795)"/></g><path d="M38.595 12.005C35.458 4.932 28.385 0 20.162 0 9.027 0 0 9.045 0 20.202c0 11.157 9.027 20.201 20.162 20.201 5.19 0 9.92-1.964 13.494-5.191" transform="rotate(23.145 7.987 39.007) skewX(-.145)" stroke="#2E3237" stroke-width="2"/><path d="M6.918.428a1 1 0 0 1 1.177 0l5.964 4.342a1 1 0 0 1 .363 1.117l-2.28 7.027a1 1 0 0 1-.95.692h-7.37a1 1 0 0 1-.952-.692L.591 5.887A1 1 0 0 1 .954 4.77L6.918.428z" transform="rotate(23.145 -30.188 64.082) skewX(-.145)" stroke="#F24841" stroke-width="2"/><path d="M0 0v5.577" transform="rotate(23.145 -22.77 85.277) skewX(-.145)" stroke="#F24841" stroke-width="2"/><path d="M0 0l5.031 1.115" transform="rotate(23.145 -38.397 50.731) skewX(-.145)" stroke="#F24841" stroke-width="2"/><path d="M0 0l4.554 1.71" transform="matrix(-.84521 -.53443 -.5371 .84352 39.167 28.882)" stroke="#F24841" stroke-width="2"/><path d="M0 3.904L3.913 0" transform="rotate(23.145 -62.13 55.767) skewX(-.145)" stroke="#F24841" stroke-width="2"/><path d="M3.354 3.346L0 0" transform="rotate(23.145 -69.92 86.882) skewX(-.145)" stroke="#F24841" stroke-width="2"/><path d="M18.731 26.7c-1.956 1.863-4.388 2.966-7.024 2.966C5.241 29.666 0 23.025 0 14.833S5.241 0 11.707 0c6.466 0 11.707 6.64 11.707 14.833 0 .797-.05 1.58-.145 2.342" transform="matrix(.69669 .71737 -.7225 .69136 49.688 21.18)" stroke="#2E3237" stroke-width="2"/><path d="M13.049 7.026A6.025 6.025 0 1 1 1 7.026a6.025 6.025 0 1 1 12.049 0z" transform="matrix(.69669 .71737 -.7225 .69136 49.283 43.172)" stroke="#F24841" stroke-width="2"/></svg>