<svg width="39" height="36" viewBox="0 0 39 36" fill="none" xmlns="http://www.w3.org/2000/svg">
<path d="M0 0H7V5.5" transform="translate(1 12)" stroke="#2E3237" stroke-width="2"/>
<path d="M0 0H7V5.5" transform="translate(38 12) scale(-1 1)" stroke="#2E3237" stroke-width="2"/>
<mask id="path-3-inside-1" fill="white">
<path fill-rule="evenodd" clip-rule="evenodd" d="M13.626 0H8C3.58203 0 0 3.58172 0 8V17H7V36H32V17H39V8C39 3.58172 35.418 0 31 0H25.374C24.3311 2.36495 22.0928 4 19.5 4C16.9072 4 14.6689 2.36495 13.626 0Z"/>
</mask>
<path d="M13.626 0L15.4559 -0.807027L14.9298 -2H13.626V0ZM0 17H-2V19H0V17ZM7 17H9V15H7V17ZM7 36H5V38H7V36ZM32 36V38H34V36H32ZM32 17V15H30V17H32ZM39 17V19H41V17H39ZM25.374 0V-2H24.0702L23.5441 -0.807027L25.374 0ZM8 2H13.626V-2H8V2ZM2 8C2 4.68634 4.68655 2 8 2V-2C2.47751 -2 -2 2.4771 -2 8H2ZM2 17V8H-2V17H2ZM7 15H0V19H7V15ZM9 36V17H5V36H9ZM32 34H7V38H32V34ZM30 17V36H34V17H30ZM39 15H32V19H39V15ZM37 8V17H41V8H37ZM31 2C34.3134 2 37 4.68634 37 8H41C41 2.4771 36.5225 -2 31 -2V2ZM25.374 2H31V-2H25.374V2ZM19.5 6C22.9767 6 25.8798 3.80953 27.204 0.807027L23.5441 -0.807027C22.7823 0.920365 21.2089 2 19.5 2V6ZM11.796 0.807027C13.1202 3.80953 16.0233 6 19.5 6V2C17.7911 2 16.2177 0.920365 15.4559 -0.807027L11.796 0.807027Z" fill="#2E3237" mask="url(#path-3-inside-1)"/>
<path d="M0 0H21" transform="translate(9 30.5)" stroke="#F24841" stroke-width="2"/>
<path d="M1.79044 2.18258C1.72426 2.22805 1.61397 2.28716 1.45956 2.35992C1.30515 2.42357 1.1875 2.47359 1.10662 2.50997C0.783088 2.63729 0.0808823 2.94544 0 3V1.43127C0.25 1.30395 1.05147 0.904862 1.40441 0.668416C1.76471 0.422875 2.01838 0.20007 2.16544 0H3.5V10H1.79044V2.18258Z" transform="translate(17.5 12)" fill="#F24841"/>
</svg>
