<svg width="39" height="36" fill="none" xmlns="http://www.w3.org/2000/svg"><path d="M1 12h7v5.5M38 12h-7v5.5" stroke="#2E3237" stroke-width="2"/><mask id="a" fill="#fff"><path fill-rule="evenodd" clip-rule="evenodd" d="M13.626 0H8a8 8 0 0 0-8 8v9h7v19h25V17h7V8a8 8 0 0 0-8-8h-5.626c-1.043 2.365-3.281 4-5.874 4-2.593 0-4.831-1.635-5.874-4z"/></mask><path d="M13.626 0l1.83-.807L14.93-2h-1.304v2zM0 17h-2v2h2v-2zm7 0h2v-2H7v2zm0 19H5v2h2v-2zm25 0v2h2v-2h-2zm0-19v-2h-2v2h2zm7 0v2h2v-2h-2zM25.374 0v-2H24.07l-.526 1.193 1.83.807zM8 2h5.626v-4H8v4zM2 8a6 6 0 0 1 6-6v-4C2.478-2-2 2.477-2 8h4zm0 9V8h-4v9h4zm5-2H0v4h7v-4zm2 21V17H5v19h4zm23-2H7v4h25v-4zm-2-17v19h4V17h-4zm9-2h-7v4h7v-4zm-2-7v9h4V8h-4zm-6-6a6 6 0 0 1 6 6h4c0-5.523-4.477-10-10-10v4zm-5.626 0H31v-4h-5.626v4zM19.5 6c3.477 0 6.38-2.19 7.704-5.193l-3.66-1.614C22.782.92 21.21 2 19.5 2v4zM11.796.807C13.12 3.81 16.023 6 19.5 6V2C17.791 2 16.218.92 15.456-.807L11.796.807z" fill="#2E3237" mask="url(#a)"/><path d="M9 30.5h21" stroke="#F24841" stroke-width="2"/><path d="M19.29 14.183a2.581 2.581 0 0 1-.33.177c-.155.064-.273.114-.353.15-.324.127-1.026.435-1.107.49v-1.569c.25-.127 1.051-.526 1.404-.763.36-.245.614-.468.761-.668H21v10h-1.71v-7.817z" fill="#F24841"/></svg>