<svg width="39" height="49" fill="none" xmlns="http://www.w3.org/2000/svg"><mask id="a" fill="#fff"><path fill-rule="evenodd" clip-rule="evenodd" d="M0 0h25.438v13.348c0 5.66-3.357 11.212-8.094 13.486v-.138h-9.25v.137C3.356 24.56 0 19.008 0 13.349V0z"/></mask><path d="M0 0v-2h-2v2h2zm25.438 0h2v-2h-2v2zm-8.094 26.834h-2v3.178l2.865-1.375-.865-1.803zm0-.138h2v-2h-2v2zm-9.25 0v-2h-2v2h2zm0 .137l-.866 1.804 2.866 1.375v-3.178h-2zM12.719-2H0v4h12.719v-4zm12.719 0h-12.72v4h12.72v-4zm2 15.348V0h-4v13.348h4zm-9.229 15.289c5.487-2.634 9.229-8.925 9.229-15.29h-4c0 4.956-2.972 9.77-6.96 11.684l1.731 3.606zm-2.865-1.941v.137h4v-.137h-4zm-7.25 2h9.25v-4h-9.25v4zm2-1.863v-.137h-4v.137h4zM-2 13.349c0 6.364 3.741 12.655 9.228 15.289L8.96 25.03C4.972 23.116 2 18.303 2 13.348h-4zM-2 0v13.348h4V0h-4z" transform="translate(6.781)" fill="#2E3237" mask="url(#a)"/><path d="M14.875 25.667v4.666h9.25v-4.666M17 30.5h5V36h-5v-5.5zM7.781 36H31.22v12H7.781z" stroke="#2E3237" stroke-width="2"/><path d="M13.14 42h12.72" stroke="#F24841" stroke-width="2"/><path d="M10.25 21H9.094A8.094 8.094 0 0 1 1 12.906V5.833h7.094M28.75 21h1.156A8.094 8.094 0 0 0 38 12.906V5.833h-7.094" stroke="#2E3237" stroke-width="2"/><path d="M18.79 10.183a2.581 2.581 0 0 1-.33.177c-.155.064-.273.114-.353.15-.324.127-.526.218-.607.273V9.214c.25-.127.551-.31.904-.546.36-.245.614-.468.761-.668H20.5v10h-1.71v-7.817z" fill="#F24841"/></svg>