<svg width="39" height="49" viewBox="0 0 39 49" fill="none" xmlns="http://www.w3.org/2000/svg">
<mask id="path-1-inside-1" fill="white">
<path fill-rule="evenodd" clip-rule="evenodd" d="M0 0H12.7188H25.4375V13.3479C25.4375 19.0073 22.0811 24.5596 17.3438 26.8335V26.6958H8.09375V26.8335C3.35645 24.5596 0 19.0073 0 13.3479V0Z"/>
</mask>
<path d="M0 0V-2H-2V0H0ZM25.4375 0H27.4375V-2H25.4375V0ZM17.3438 26.8335H15.3438V30.012L18.2092 28.6365L17.3438 26.8335ZM17.3438 26.6958H19.3438V24.6958H17.3438V26.6958ZM8.09375 26.6958V24.6958H6.09375V26.6958H8.09375ZM8.09375 26.8335L7.22828 28.6365L10.0938 30.012V26.8335H8.09375ZM12.7188 -2H0V2H12.7188V-2ZM25.4375 -2H12.7188V2H25.4375V-2ZM27.4375 13.3479V0H23.4375V13.3479H27.4375ZM18.2092 28.6365C23.6963 26.0027 27.4375 19.712 27.4375 13.3479H23.4375C23.4375 18.3027 20.4658 23.1164 16.4783 25.0305L18.2092 28.6365ZM15.3438 26.6958V26.8335H19.3438V26.6958H15.3438ZM8.09375 28.6958H17.3438V24.6958H8.09375V28.6958ZM10.0938 26.8335V26.6958H6.09375V26.8335H10.0938ZM-2 13.3479C-2 19.712 1.74122 26.0027 7.22828 28.6365L8.95922 25.0305C4.97167 23.1164 2 18.3027 2 13.3479H-2ZM-2 0V13.3479H2V0H-2Z" transform="translate(6.78125)" fill="#2E3237" mask="url(#path-1-inside-1)"/>
<path d="M0 0V4.66667H9.25V0" transform="translate(14.875 25.6667)" stroke="#2E3237" stroke-width="2"/>
<path d="M0 0H5V5.5H0V0Z" transform="translate(17 30.5)" stroke="#2E3237" stroke-width="2"/>
<rect x="1" y="1" width="23.4375" height="12" transform="translate(6.78125 35)" stroke="#2E3237" stroke-width="2"/>
<path d="M0 0H12.7188" transform="translate(13.1406 42)" stroke="#F24841" stroke-width="2"/>
<path d="M9.25 15.1667H8.09375V15.1667C3.6237 15.1667 0 11.543 0 7.07292V0H7.09375" transform="translate(1 5.83325)" stroke="#2E3237" stroke-width="2"/>
<path d="M9.25 15.1667H8.09375V15.1667C3.6237 15.1667 0 11.543 0 7.07292V0H7.09375" transform="translate(38 5.83325) scale(-1 1)" stroke="#2E3237" stroke-width="2"/>
<path d="M1.29044 2.18258C1.22426 2.22805 1.11397 2.28716 0.959559 2.35992C0.805147 2.42357 0.6875 2.47359 0.606618 2.50997C0.283088 2.63729 0.0808823 2.72823 0 2.78279V1.21406C0.25 1.08674 0.551471 0.904862 0.904412 0.668416C1.26471 0.422875 1.51838 0.20007 1.66544 0H3V10H1.29044V2.18258Z" transform="translate(17.5 8)" fill="#F24841"/>
</svg>
