<svg width="38" height="51" fill="none" xmlns="http://www.w3.org/2000/svg"><path d="M7.354 11.83v9.863c0 6.432 5.214 11.647 11.647 11.647 6.432 0 11.647-5.215 11.647-11.647V11.83" stroke="#2E3237" stroke-width="2"/><path d="M30.833 16H32a3 3 0 0 1 3 3v1a5 5 0 0 1-5 5M7.167 16H6a3 3 0 0 0-3 3v1a5 5 0 0 0 5 5m21.589-12.095a4.373 4.373 0 0 1-4.815 4.351l-4.884-.496a8.808 8.808 0 0 0-1.78 0l-4.883.496a4.373 4.373 0 0 1-4.815-4.35" stroke="#2E3237" stroke-width="2"/><path d="M19 2v8m14 32h-6v2.929L30 46l3-1.071V42z" stroke="#F24841" stroke-width="2"/><path d="M13.177 36L1 39.207V50h36V39.207L24.294 36" stroke="#2E3237" stroke-width="2"/><path d="M14 32v6.364L19 40l5-1.636V32m6.706-25v5.587c-.65-.203-1.51-.453-2.534-.704-2.364-.581-5.62-1.176-9.16-1.218-3.555-.043-6.822.555-9.193 1.158a38.06 38.06 0 0 0-2.525.735V7a6 6 0 0 1 6-6h11.412a6 6 0 0 1 6 6z" stroke="#2E3237" stroke-width="2"/></svg>