<?xml version="1.0" standalone="no"?>
<!DOCTYPE svg PUBLIC "-//W3C//DTD SVG 20010904//EN"
 "http://www.w3.org/TR/2001/REC-SVG-20010904/DTD/svg10.dtd">
<svg version="1.0" xmlns="http://www.w3.org/2000/svg"
 width="595.000000pt" height="595.000000pt" viewBox="0 0 595.000000 595.000000"
 preserveAspectRatio="xMidYMid meet">
<metadata>
Created by potrace 1.11, written by Peter Selinger 2001-2013
</metadata>
<g transform="translate(0.000000,595.000000) scale(0.100000,-0.100000)"
fill="#000000" stroke="none">
<path d="M0 2970 l0 -2970 2975 0 2975 0 0 2970 0 2970 -2975 0 -2975 0 0
-2970z m838 438 l2 -1157 26 -20 c75 -59 167 -203 240 -374 42 -100 43 -101
54 -72 72 189 185 377 270 448 l30 26 2 1153 3 1153 190 0 190 0 3 -1152 2
-1152 48 -48 c84 -84 157 -205 228 -378 l33 -80 18 45 c64 164 163 331 245
413 26 26 43 47 37 47 -6 0 -8 424 -7 1153 l3 1152 190 0 190 0 0 -1165 0
-1165 -45 -24 c-189 -103 -452 -544 -500 -838 l-12 -73 -139 0 -139 0 0 28 c0
42 -92 304 -158 450 -62 136 -130 247 -180 295 l-29 28 -46 -57 c-52 -66 -130
-210 -177 -329 -47 -117 -107 -296 -120 -360 l-11 -55 -140 0 -139 0 0 29 c0
95 -61 279 -146 440 -131 248 -277 423 -381 455 l-23 7 0 1170 0 1169 193 -2
192 -3 3 -1157z m3426 1134 c109 -41 189 -103 229 -177 21 -38 22 -52 22 -295
0 -292 -8 -339 -90 -503 -118 -238 -293 -434 -433 -487 l-45 -17 54 -18 c241
-78 396 -288 489 -664 44 -177 50 -253 50 -683 l0 -398 -189 0 -189 0 -5 418
c-6 444 -9 479 -62 665 -14 49 -45 133 -68 186 -75 168 -148 266 -251 333 -57
36 -63 38 -143 38 l-83 0 0 -820 0 -820 -190 0 -190 0 0 1636 0 1635 518 -3
c503 -4 519 -4 576 -26z m1372 20 c-3 -5 -61 -43 -130 -86 l-126 -78 1 -526 0
-527 61 -39 c186 -120 251 -383 146 -590 -26 -51 -109 -138 -164 -173 l-44
-28 0 -525 0 -525 132 -83 132 -82 -459 0 c-390 0 -456 2 -440 14 11 7 68 43
128 80 l107 68 0 527 0 528 -57 39 c-143 99 -221 277 -193 443 21 128 102 252
205 318 l45 28 -2 530 -3 529 -122 76 c-67 41 -122 78 -123 83 0 4 205 7 456
7 250 0 453 -4 450 -8z"/>
<path d="M3550 3745 l0 -585 58 0 c49 0 65 5 112 36 211 139 366 359 414 591
27 126 30 230 11 391 l-18 152 -288 0 -289 0 0 -585z"/>
<path d="M5130 3151 c-109 -35 -170 -115 -170 -223 0 -124 96 -218 224 -219
180 -3 285 184 190 338 -51 82 -164 130 -244 104z"/>
</g>
</svg>
