<svg width="14" height="14" viewBox="0 0 14 14" xmlns="http://www.w3.org/2000/svg">
<path d="M3.98468 14H10.0153C12.2122 14 14 12.2126 14 10.0152V3.98434C14 1.78738 12.2122 0 10.0153 0H3.98468C1.78779 0 0 1.78738 0 3.98434V10.0152C0 12.2126 1.78779 14 3.98468 14ZM1.19991 3.98434C1.19991 2.44912 2.44904 1.19995 3.98468 1.19995H10.0153C11.551 1.19995 12.8001 2.44912 12.8001 3.98434V10.0152C12.8001 11.5509 11.551 12.8001 10.0153 12.8001H3.98468C2.4495 12.8001 1.19991 11.5509 1.19991 10.0152V3.98434Z"/>
<path d="M3.5844 7.16903C5.56072 7.16903 7.16879 5.5609 7.16879 3.58452C7.16879 1.60813 5.56072 0 3.5844 0C1.60762 0 0 1.60813 0 3.58452C0 5.5609 1.60808 7.16903 3.5844 7.16903ZM3.5844 1.19948C4.89947 1.19948 5.96889 2.2694 5.96889 3.58405C5.96889 4.8987 4.89947 5.96862 3.5844 5.96862C2.26933 5.96862 1.19991 4.8987 1.19991 3.58405C1.19991 2.2694 2.26979 1.19948 3.5844 1.19948Z" transform="translate(3.41504 3.41602)"/>
<path d="M0.861388 1.72283C1.33712 1.72283 1.72278 1.33716 1.72278 0.861417C1.72278 0.38567 1.33712 0 0.861388 0C0.385657 0 0 0.38567 0 0.861417C0 1.33716 0.385657 1.72283 0.861388 1.72283Z" transform="translate(9.87695 2.34912)"/>
</svg>
