<svg viewBox="0 0 49 47" fill="none" xmlns="http://www.w3.org/2000/svg"><path d="M.78.854h47.956V46.92H.78z"/><path fill-rule="evenodd" clip-rule="evenodd" d="M46.508 18.127l-6.46-2.132-.754 4.478 7.214-2.346z" fill="#fff"/><path fill-rule="evenodd" clip-rule="evenodd" d="M44.892 18.123l-4.44-1.465-.518 3.077 4.958-1.612zm-4.685-2.604l6.427 2.12a.502.502 0 0 1 .031.966l-7.213 2.346a.504.504 0 0 1-.659-.561l.754-4.477a.508.508 0 0 1 .66-.394z" fill="#ED1C24"/><path fill-rule="evenodd" clip-rule="evenodd" d="M24.758 7.5c-5.91 0-14.407.732-18.348 3.17 0 0 1.682 17.16 2.463 20.36.938 3.844 2.003 6.949 7.774 10.728 5.771 3.78 8.111 4.511 8.111 4.511s2.34-.731 8.11-4.51c5.772-3.78 6.837-6.885 7.775-10.73.781-3.199 2.463-20.359 2.463-20.359-3.94-2.438-12.437-3.17-18.348-3.17z" fill="#ED1C24"/><path fill-rule="evenodd" clip-rule="evenodd" d="M24.758 6.869c2.514 0 5.049.119 7.55.372 2.096.212 4.217.52 6.265 1.015 1.663.402 3.5.978 4.96 1.88l.22.137-.025.255a723.06 723.06 0 0 1-1.117 10.586c-.23 2.026-.467 4.052-.737 6.073a93.066 93.066 0 0 1-.344 2.38 20.525 20.525 0 0 1-.303 1.607c-.218.895-.452 1.787-.756 2.658-.54 1.55-1.27 2.903-2.314 4.18-1.375 1.683-3.152 3.07-4.967 4.258a84.828 84.828 0 0 1-3.757 2.335c-.84.49-1.692.963-2.56 1.399a21.82 21.82 0 0 1-1.479.685c-.165.068-.34.139-.51.192l-.126.04-.126-.04a6.337 6.337 0 0 1-.51-.192 21.796 21.796 0 0 1-1.48-.685 46.921 46.921 0 0 1-2.56-1.398 84.868 84.868 0 0 1-3.757-2.336c-1.815-1.188-3.591-2.575-4.967-4.258-1.044-1.277-1.773-2.63-2.314-4.18-.304-.871-.538-1.764-.756-2.658a20.515 20.515 0 0 1-.303-1.607 92.889 92.889 0 0 1-.344-2.38 300.77 300.77 0 0 1-.736-6.073 712.827 712.827 0 0 1-1.117-10.586l-.025-.255.22-.136c1.458-.903 3.296-1.478 4.96-1.88 2.047-.496 4.168-.804 6.264-1.016a75.227 75.227 0 0 1 7.55-.372z" fill="#000"/><path fill-rule="evenodd" clip-rule="evenodd" d="M24.758 7.5c-5.91 0-14.407.732-18.348 3.17 0 0 1.682 17.16 2.463 20.36.938 3.844 2.003 6.949 7.774 10.728 5.771 3.78 8.111 4.511 8.111 4.511s2.34-.731 8.11-4.51c5.772-3.78 6.837-6.885 7.775-10.73.781-3.199 2.463-20.359 2.463-20.359-3.94-2.438-12.437-3.17-18.348-3.17z" fill="#ED1C24"/><path fill-rule="evenodd" clip-rule="evenodd" d="M24.757 44.83a22.323 22.323 0 0 1-1.426-.672V32.225a122.92 122.92 0 0 1-5.5-.295v8.994c-.144-.093-.29-.187-.437-.284a26.575 26.575 0 0 1-2.314-1.684v-3.784c-.815-.068-1.615-.116-2.411-.217h-1.007c-.704-1.322-1.095-2.693-1.473-4.24-.572-2.342-1.736-13.179-2.345-19.302 3.834-1.889 11.362-2.572 16.913-2.572s13.08.683 16.914 2.572c-.61 6.123-1.774 16.96-2.345 19.302-.383 1.567-.78 2.953-1.5 4.29-1.122.084-2.284.17-3.392.247v3.704a26.596 26.596 0 0 1-2.313 1.684l-.437.284v-8.957a180.5 180.5 0 0 1-5.5.25v11.941c-.655.333-1.125.545-1.427.672z" fill="#fff"/><path d="M12.07.854h25.37v25.052H12.07z"/><path d="M24.754 25.906c6.984 0 12.646-5.605 12.646-12.52 0-6.915-5.662-12.52-12.646-12.52-6.984 0-12.646 5.605-12.646 12.52 0 6.915 5.662 12.52 12.646 12.52z" fill="#fff"/><path fill-rule="evenodd" clip-rule="evenodd" d="M28.237 1.694c7.619 6.375 6.015 21.943-7.298 20.708-1.168.02-5.05-1.745-6.127-2.032a12.34 12.34 0 0 0 10.451 5.466c6.795-.11 12.232-5.706 12.12-12.476-.092-5.606-3.96-10.286-9.146-11.666z" fill="#D1D3D4"/><path fill-rule="evenodd" clip-rule="evenodd" d="M25.952 25.9l.026-.019c-2.282.113-4.33-.192-6.145-.915a11.912 11.912 0 0 1-1.602-.782c-.438-.257-.86-.542-1.266-.856a12.587 12.587 0 0 1-1.123-1l-.01-.01a12.672 12.672 0 0 1-.426-.449l-.04-.043c-1.359-1.518-2.341-3.359-2.947-5.521v-.002a11.634 11.634 0 0 1-.312-1.892 12.13 12.13 0 0 1 .036-2.293 13.43 13.43 0 0 1 .355-1.934l.07-.263a18.076 18.076 0 0 1 .195-.557c.441-1.197.98-2.253 1.616-3.17.174-.198.388-.505.55-.708a9.11 9.11 0 0 1 .64-.72c1.867-1.901 3.873-3.013 6.514-3.62 4.86-1.115 10.213 1.039 13.023 5.021.317.45.683 1.032.956 1.583 1.04 2.1 1.82 5.083 1.096 8.214-.355 1.533-.9 2.902-1.63 4.052a12.66 12.66 0 0 1-1.154 1.559c-.449.511-1.153 1.127-1.323 1.325-.123.09-.235.2-.384.288l-.163.148c-.101.132.038.062-.147.152-.153.073-.037-.028-.195.094-.082.063-.02.042-.149.119-.163.121-.36.206-.493.332-.603.233-1.253.863-3.115 1.395-.772.221-1.583.39-2.453.473zm-2.197-8.203l.342.148c.221.142 1.168.552 1.423.467.161-.053.82-.735.993-.905.582-.575 1.332-1.24 1.834-1.92l-2.534 2.144c-.175.143-.358.243-.668.12a8.764 8.764 0 0 1-1.348-.646l-.083-.005c-.075-.114-.076-.08-.201-.137-.892-.57-1.422-.898-1.914-1.661-.425-.659-.749-1.483-.976-2.347-.091-.346-.39-.962-.083-1.291.2-.214 2.51-2.117 2.89-2.33-.359.072-3.423 2.208-3.515 2.4-.197.414.61 2.985.946 3.649.136.268.233.389.393.612.478.667 1.785 1.508 2.5 1.702zm8.527 5.38c.112-.133.174-.111.273-.247.273-.142 1.008-.873 1.282-1.17.495-.536.838-.856.915-1.66-.481.053-1.713.73-2.148.527-.063-.28.424-.61.594-.779 1.764-1.758 2.51-2.066 2.244-4.544a8.497 8.497 0 0 0-.176-1.062c-.048-.199-.241-.784-.21-.876.143-.428.65.361.878.66.143.189.521.816.676.928.363-1.178.539-1.542.407-2.776a12.054 12.054 0 0 0-.511-2.42c-.3-.896-.96-2.367-1.517-3.074-.389-.493-.659-.393-1.19-.583-.1.803-.255 1.534-.564 2.242-.254.582-.28.37.01.808.32.488 2.348 3.72 1.838 4.006-.26.095-.6-.258-.77-.39a9.379 9.379 0 0 0-.743-.508c-.286-.179-1.361-.839-1.739-.833-.173.049-.846 1.251-.983 1.473l-.986 1.508-.157.216c-.105.217-.395.517-.607.521-.171-.157-.16-.406-.173-.7l-.006-.141c.05-.599-.057-2.394-.1-3.151-.019-.308.03-.824-.218-.957-.206-.11-4.257-.99-4.617-1.028-.008-.01-.019-.038-.025-.03-.064.082-.041-.05-.046-.054l-.056-.057c.04-.256.166-.31.36-.405l1.499-.62c.697-.278 1.34-.532 2.034-.81.576-.23.5-.23.277-.743-.146-.336-.273-.629-.442-.983-.16-.335-.29-.65-.448-.982-.095-.199-.467-.804-.325-1.008.45-.158 2.804 1.7 3.163 1.993.234.19.476.377.698.58.315.289.422.097.854-.002.594-.136 1.388-.26 2.082-.179-.204-1.017.263-.768-1.127-1.887-1.322-1.066-2.828-1.797-4.535-2.27-.446-.122-.99-.267-1.431-.243-.288.015-1.08.067-1.257.169l.82.818c.204.212.82.747.584.922-.2.073-.763-.268-1.003-.363-1.048-.416-2.467-.842-3.464-.426-.585.244-.772.423-1.25.709-.313.188-1.721 1.308-1.904 1.288-.194-.021-.047.01-.107-.053-.158-.294.736-1.65.883-1.974-.609-.056-.743.126-1.146.34-1.648.874-3.092 2.302-4.171 3.856-.35.504-.654 1.06-.918 1.623-.138.292-.168.31-.06.607.254.706-.303.616-.501.89-.135.186-.315 1.136-.372 1.422-.438 2.208-.162 4.49.594 6.533.143.386.23.759.67.91.29-.53.108-1.82.664-2.065.286.124.22.534.274.974.102.804.469 2.493.844 3.072.447.688 2.07 1.284 2.97 1.526.347.093.964.123 1.05.465-.221.433-1.706.188-2.112.392.042.166.35.52.505.65.503.422 1.959 1.041 2.598 1.263a12.5 12.5 0 0 0 4.332.678c.292-.006.743.032.933-.11.215-.16.386-.507.617-.594.277-.104.635.193.955.283.366.103.628-.05.94-.146.695-.215 2.675-1.01 3.1-1.497.189-.066.325-.203.49-.304.074-.105-.043-.012.085-.109.092-.07-.01-.039.123-.04zM22.37 17.91c.255.11.471.345.759.499.286.152.525.295.814.457.331.186 1.418.776 1.791.771.122-.088 2.506-3.083 2.632-3.324l-1.36 1.461c-.236.263-.428.49-.664.74-.17.18-.47.572-.65.696-.304-.008-1.822-.7-2.115-.866-.168-.095-.305-.15-.492-.24-.166-.079-.302-.182-.461-.273l-.939-.531c.058.12.012.067.12.146.108.05.25.152.321.227.061.063.055.067.126.132.073.067.049.025.118.105zm6.72 6.475c-.386-.006-1.098.109-1.23-.294-.144-.44.284-.86.415-1.184-.26.122-.494.505-.63.753-.122.22-.383.78-.3 1.057.108.359.643.118.868.033.162-.06.288-.105.441-.164.098-.038.134-.048.235-.09.115-.047.116-.046.2-.111zM15.772 8.159c-.338.056-.784.408-1.24.23-.444-.172-.173-.874-.119-1.291-.221.39-1.209 1.584-.523 1.709.643.118 1.607-.36 1.882-.648zm7.238.017c-.3-.072-1.161-.054-1.527-.067a19.896 19.896 0 0 1-1.573-.107c-.532-.064-.524-.227-.62-1.035-.053-.434-.033-1.033-.098-1.42-.093.518-.126 1.216-.129 1.728 0 .184-.01.647.035.792.107.344.459.152.653.15.166-.001.305.072.877.064.468-.007 2.1-.045 2.382-.105zm6.55 7.529c-.248 1.079-.507 2.137-.685 3.25-.134.833-.008.772.849.913.553.09 1.123.132 1.679.172-.177-.113-1.125-.278-1.435-.379-.627-.204-.86-.152-.804-.834.088-1.056.295-2.083.396-3.122zm7.041-1.485c-.03-.366-.506-1.194-.669-1.406-.394-.515-.414-1.456-1.374-2.732-.292-.388-.572-.85-.971-1.22l.394.668c.695 1.054 1.09 1.94 1.386 3.167.088.365.191.222.735.885.095.116.155.19.24.312.106.15.125.227.26.326zm-5.865-8.64c-.23-.493-1.628-1.76-2.225-2.136-.217-.137-.47-.3-.701-.428-.351-.193-.41-.17-.669-.452-.295-.32-.862-.72-1.325-.917.153.13.39.382.522.523.837.894.31.738 1.09 1.08 1.19.523 1.763 1.008 2.689 1.795.184.156.418.403.619.535zM18.509 23.49l.03.023c.008.006.02.017.03.023l.425.227c.162.076.318.15.473.22 2.4 1.084 4.141 1.304 6.731 1.082l-2.254-.281c-.921-.15-1.92-.345-2.815-.582l-2.62-.712zm-4.936-5.733l-.319-3.672a28.481 28.481 0 0 1-.042-1.937c.007-.327.118-1.928.08-2.076-.45.64-.549 3.27-.476 4.177a14.6 14.6 0 0 0 .497 2.69c.076.264.215.588.26.818zm9.782 2.94c.086.494-.215.524-.51.689l-2.325 1.177c.595-.125 1.355-.436 1.857-.683.667-.327 1.657-.671.978-1.183zm5.297-.139c1.681.272 2.623.075 2.928.11l-2.804-.334c-.439-.057-.47-.082-.566-.433-.36.42.058.595.442.657zm-3.134-1.776c-.853-.263-1.609-.669-2.364-1.015-.699-.32-1.686-1.191-2.106-1.166-.166.354.374 1.264.55 1.601.046.09.06.165.105.255.063.126.098.158.159.262.239.408.435.938.817 1.457.461.628.4.625-.393 1.063l-1.63.85c-.241.115-.676.203-.756.523.429.451 3.453.52 4.06.519.427-.002.541-.07.911.158.538.331.819.634 1.203 1.035.14.146.34.495.597.48.27-.016.39-.35.523-.628.266-.558.508-1.546.682-1.694.28-.238 1.106-.402 1.516-.545.755-.263 1.512-.53 2.206-.882.232-.118.557-.205.574-.516-.178-.231-.733-.22-1.082-.25-.31-.026-2.499-.29-2.615-.494-.177-.312 1.301-5.243.251-4.396l-3.208 3.383zm-10.645-2.958l1.55-2.039c.257-.308.238-.462.754-.355-.258-.388-.454-.38-.736-.032-.445.55-1.4 1.8-1.568 2.426zm5.43-.112l-.4-1.018c-.179-.5-.976-3.056-.856-3.284.084-.078.263-.193.373-.255l1.246-.764c.16-.094 1.524-.895 1.657-1.062-.229.07-1.647.84-1.959 1.009l-1.464.77c-.207.101-.322.157-.282.453.039.287.223.833.314 1.116.243.764.934 2.587 1.372 3.035zM18.806 8.86c-.439-.356-.38-.062-.319-1.51.027-.627.072-1.256.131-1.892-.288.566-.414 2.276-.4 3.014.007.436.213.425.588.388zm-4.212 7.528c.37.076.396-.253.723-.67.223-.284.425-.561.63-.832.203-.265.409-.515.637-.774.685-.777.386-.216 2.35 1.159.307.215 1.5 1.166 1.837 1.044.177-.237-.225-.895-.32-1.121-.408-.966-.879-2.545-1.049-3.554.308-.33 2.877-2.006 3.608-2.406.191-.104.397-.168.432-.474-.397-.36-2.747-.212-3.505-.205-.52.005-.069.084-.66.016-.478-.055-.533.2-.469-1.856.017-.516.18-1.535.02-1.901-.349-.065-.49.223-.672.469-.175.239-.33.47-.49.72a22.447 22.447 0 0 0-.898 1.55c-.149.28-.266.54-.42.815-.195.349-.3.373-.705.423-.527.065-1.362.2-1.784.383-.751.326.224.758.849 2.057.157.327.231.47.14.923-.197.986-.536 3.48-.254 4.234zm.067.843c-.089.36.06 1.587.14 1.948.123.552.301 1.215.536 1.66.418.791 2.555 1.498 3.473 1.621-.193-.12-2.867-.806-3.325-1.764-.397-.83-.875-2.606-.824-3.465zm19.294 2.223c1.201-1.005 2.235-1.863 1.973-3.593-.031-.21-.28-1.438-.45-1.643.027.276.113.53.167.805.348 1.765.174 2.466-1.195 3.82l-1.124 1.053.63-.442zm-2.398-8.42a.686.686 0 0 1 .32-.173c.22-.017.91.511 1.092.65l1.1.665-1.84-1.474c-.344-.28-.605-.064-.672.331zm-3.113-1.64l-3.729-.489 3.416.749c1.174.272.933.012 1.008 1.43.038.721.161 2.708.14 3.173.05-.223.204-4.317.166-4.463-.093-.356-.553-.34-1.001-.4zm-.147-2.199c.37.006.651-.213.447-.578l-1.348-2.332L28.4 6.453c.173.35.216.468-.102.741zm-8.633-3.369c.142-.052.057-.018.173-.1.71-.5 1.465-1.238 2.427-1.557 1.592-.526 2.34.273 3.532.584-.038-.038.007-.007-.079-.064a3.074 3.074 0 0 0-.09-.051c-1.724-.918-3.137-1.26-4.765.129-.286.244-.992.808-1.198 1.06z" fill="#000"/><path fill-rule="evenodd" clip-rule="evenodd" d="M48.162 30.294a176.709 176.709 0 0 1-46.808 0c.548-3.925 1.087-7.851 1.635-11.776a164.504 164.504 0 0 0 43.52 0l1.653 11.776z" fill="#fff"/><path fill-rule="evenodd" clip-rule="evenodd" d="M48.23 30.792a177.51 177.51 0 0 1-23.473 1.563c-7.826 0-15.66-.52-23.471-1.563l-.506-.067.07-.5c.306-2.187.566-4.068.826-5.946.284-2.053.569-4.105.81-5.83l.069-.497.502.067a164.175 164.175 0 0 0 43.385 0l.5-.066.07.496 1.654 11.776.07.5-.506.067zm-23.473.554c7.626 0 15.246-.494 22.832-1.484l-1.514-10.78a165.178 165.178 0 0 1-21.323 1.385 165.4 165.4 0 0 1-21.329-1.385c-.272 1.948-.506 3.64-.74 5.33-.262 1.896-.524 3.788-.756 5.45a176.34 176.34 0 0 0 22.83 1.485z" fill="#ED1C24"/><path fill-rule="evenodd" clip-rule="evenodd" d="M3.736 21.71l2.615.298c.526.06.955.12 1.287.182.33.062.628.157.894.287.263.129.462.312.593.547.133.236.177.538.134.908-.028.24-.112.457-.25.651a1.36 1.36 0 0 1-1.265.545l-.114-.013-.009.08.178.02c.235.027.462.11.68.249.217.139.389.332.512.58.123.248.166.538.127.87-.046.401-.168.707-.364.919a1.435 1.435 0 0 1-.77.425c-.32.07-.67.096-1.049.079-.38-.018-.88-.061-1.5-.132l-.187-.021-2.234-.255.132-1.137.268.03c.149.018.244 0 .287-.05.042-.051.07-.14.085-.267l.376-3.234c.014-.126.007-.22-.023-.279-.028-.058-.117-.097-.267-.114l-.268-.03.132-1.138zm2.298 2.746l.42.048c.41.047.637-.12.68-.498.025-.215-.028-.367-.16-.452-.133-.086-.321-.143-.57-.172l-.242-.027-.128 1.101zm-.28 2.415l.412.047c.453.052.702-.109.745-.482.03-.252-.026-.424-.167-.52-.139-.095-.333-.157-.58-.185l-.275-.03-.136 1.17zm5.042-4.422l-.084 1.142.351.025c.146.01.216.06.21.151a.314.314 0 0 1-.043.13l-.01.023a.28.28 0 0 1-.017.038l-.019.05-.013.037-1.22 2.917c-.087.213-.167.355-.236.427-.07.07-.194.098-.372.085l-.146-.01-.083 1.141 2.34.168.084-1.142-.099-.007c-.09-.007-.152-.047-.182-.12a.502.502 0 0 1-.046-.182l.03-.107 1.976.141c.034.12.05.204.046.255-.007.095-.094.136-.262.124l-.236-.016-.083 1.141 3.031.217.084-1.141-.14-.01a.432.432 0 0 1-.246-.082.38.38 0 0 1-.123-.176 2.427 2.427 0 0 1-.077-.312l-1.017-4.664-3.399-.243zm1.687 1.744l.048.003.385 1.776-1.145-.082.712-1.697zm3.774 3.085l.052-1.358 3.42.13-.052 1.358-3.42-.13zm9.614-4.235l-.024 1.887-1.003-.012a1.408 1.408 0 0 0-.069-.344.257.257 0 0 0-.146-.148 1.006 1.006 0 0 0-.324-.043l-1.157-.014-.014 1.082.727.009c.492.006.924.066 1.297.181.375.114.671.313.892.595.22.281.326.661.32 1.142-.006.424-.093.764-.264 1.021-.17.259-.409.45-.715.575a3.71 3.71 0 0 1-1.061.247c-.402.038-.89.052-1.465.045l-2.387-.03.014-1.145.27.004c.151.002.247-.025.286-.08.038-.055.059-.145.06-.274l.042-3.255a.527.527 0 0 0-.05-.275c-.037-.055-.133-.085-.288-.087l-.384-.004.015-1.145 5.428.068zm-2.77 4.974l.163.002c.582.007.876-.215.882-.67.004-.271-.08-.444-.253-.52a1.575 1.575 0 0 0-.612-.116l-.163-.002-.017 1.306zm4.471-5.012l3.407-.1 1.491 4.536c.04.133.077.235.109.303.03.067.078.121.14.162a.43.43 0 0 0 .253.057l.14-.004.035 1.144-3.038.09-.035-1.144.236-.007c.169-.005.251-.055.248-.15a.835.835 0 0 0-.072-.249l-1.98.059-.02.11a.503.503 0 0 0 .066.176c.037.07.102.103.193.1l.1-.003.034 1.145-2.346.07-.035-1.145.147-.005c.178-.005.297-.046.36-.122.062-.078.127-.227.192-.449l.913-3.024.01-.039.013-.051a.287.287 0 0 0 .014-.04.388.388 0 0 1 .007-.023.315.315 0 0 0 .029-.134c-.003-.09-.078-.133-.224-.129l-.352.01-.035-1.144zm1.859 1.565l-.534 1.76 1.147-.034-.566-1.728-.047.002zm4.002 4.543l2.993-.214-.083-1.142-.05.004c-.15.01-.246-.014-.29-.074a.496.496 0 0 1-.078-.259l-.081-1.124 1.39-.1.081 1.125c.01.138-.006.233-.048.286-.043.054-.132.085-.267.095l-.047.003.083 1.142 2.99-.214-.084-1.141-.276.02c-.145.01-.24-.015-.283-.075a.511.511 0 0 1-.076-.259l-.237-3.246a.525.525 0 0 1 .036-.268c.032-.065.123-.102.27-.113l.277-.02-.083-1.142-2.99.214.084 1.142.047-.003c.135-.01.228.009.278.055.05.045.08.139.09.277l.055.767-1.39.1-.056-.768a.531.531 0 0 1 .035-.265c.032-.067.12-.104.264-.115l.048-.003-.083-1.142-2.975.213.083 1.142.27-.02c.135-.01.228.01.278.055.05.046.079.138.09.278l.236 3.247c.01.138-.006.233-.048.286-.043.053-.132.085-.267.095l-.27.02.084 1.141zm9.293-4.717l.17-.018a.405.405 0 0 0 .243-.095.657.657 0 0 0 .145-.28c.041-.133.105-.384.193-.75a4.4 4.4 0 0 1 .23-.712c.091-.21.234-.4.43-.57.196-.173.453-.276.772-.31a2.73 2.73 0 0 1 .9.056l.16 1.467a.53.53 0 0 0-.355.182 2.34 2.34 0 0 0-.27.46 2.49 2.49 0 0 1-.39.628c-.135.147-.365.265-.691.353l.011.106c.675-.072 1.136.217 1.382.868.07.174.133.298.191.373.058.073.152.102.286.087.066-.007.16-.03.28-.073l.195 1.769a2.104 2.104 0 0 1-.811.241c-.301.033-.56.014-.774-.053-.214-.068-.426-.23-.638-.484-.212-.255-.435-.64-.668-1.156l-.178-.389a.948.948 0 0 0-.13-.199.457.457 0 0 0-.207-.138.788.788 0 0 0-.329-.02l.116 1.058c.015.133.05.226.103.278.055.053.153.072.295.057l.154-.017.124 1.138-3.07.33-.125-1.137.21-.023c.15-.016.243-.054.284-.117.041-.062.055-.16.04-.296l-.351-3.2c-.015-.138-.049-.232-.102-.283-.053-.05-.154-.068-.304-.051l-.21.022-.125-1.138 3.087-.332.124 1.138-.17.018c-.143.016-.234.054-.275.117-.041.062-.055.16-.04.295l.088.8z" fill="#000"/><path fill-rule="evenodd" clip-rule="evenodd" d="M39.294 31.196H34.45v7.71l4.844-4.179v-3.53zm-29.097.154h4.844v7.71l-4.844-4.179v-3.53z" fill="#ED1C24"/></svg>