<svg viewBox="0 0 49 47" fill="none" xmlns="http://www.w3.org/2000/svg">
<rect width="47.9556" height="46.067" fill="black" fill-opacity="0" transform="translate(0.780273 0.853821)"/>
<path fill-rule="evenodd" clip-rule="evenodd" d="M46.5077 18.1274L40.0476 15.9954L39.2939 20.4725L46.5077 18.1274Z" fill="white"/>
<path fill-rule="evenodd" clip-rule="evenodd" d="M44.892 18.1231L40.452 16.6578L39.934 19.7349L44.892 18.1231ZM40.2074 15.5188L46.6341 17.6398C46.7971 17.6811 46.9359 17.8017 46.9917 17.9719C47.0786 18.2362 46.9325 18.5202 46.6655 18.6061L39.4517 20.9511C39.3764 20.9754 39.2943 20.9826 39.2109 20.9688C38.934 20.9231 38.747 20.6639 38.7931 20.3897L39.5468 15.9126L39.5479 15.9128C39.5522 15.8877 39.5584 15.8626 39.5667 15.8377C39.6546 15.5746 39.9415 15.4318 40.2074 15.5188Z" fill="#ED1C24"/>
<path fill-rule="evenodd" clip-rule="evenodd" d="M24.758 7.50031C18.8473 7.50031 10.3506 8.23176 6.41016 10.6701C6.41016 10.6701 8.09204 27.8301 8.87302 31.0298C9.81119 34.8741 10.8763 37.9789 16.6473 41.7583C22.4184 45.5376 24.7581 46.2691 24.7581 46.2691C24.7581 46.2691 27.0977 45.5376 32.8687 41.7583C38.6398 37.9789 39.7049 34.8741 40.6431 31.0298C41.424 27.8301 43.1058 10.6701 43.1058 10.6701C39.1654 8.23169 30.6688 7.50031 24.758 7.50031Z" fill="#ED1C24"/>
<path fill-rule="evenodd" clip-rule="evenodd" d="M24.7577 6.86859C27.272 6.86859 29.8069 6.98803 32.3081 7.24096C34.4038 7.45289 36.5254 7.76124 38.573 8.25632C40.2361 8.65844 42.0739 9.23389 43.5331 10.1369L43.7527 10.2727L43.7276 10.5278C43.3818 14.058 43.0094 17.589 42.6109 21.1137C42.3818 23.1397 42.1443 25.1665 41.874 27.1875C41.7678 27.9815 41.6568 28.7759 41.5301 29.567C41.4448 30.0996 41.3554 30.6493 41.2275 31.1735C41.0091 32.0685 40.7751 32.9607 40.4713 33.8316C39.9307 35.3815 39.2018 36.7347 38.1574 38.0121C36.7819 39.6947 35.0051 41.0818 33.19 42.2704C31.9572 43.0778 30.7069 43.8629 29.433 44.6053C28.5938 45.0944 27.7413 45.5677 26.8728 46.004C26.3889 46.2471 25.8955 46.4824 25.3943 46.6888C25.2292 46.7568 25.0545 46.828 24.8837 46.8814L24.7577 46.9208L24.6318 46.8814C24.461 46.828 24.2863 46.7568 24.1212 46.6888C23.62 46.4825 23.1265 46.2471 22.6427 46.0041C21.774 45.5678 20.9216 45.0946 20.0824 44.6055C18.8084 43.863 17.5581 43.0779 16.3253 42.2705C14.5102 41.0818 12.7335 39.6948 11.358 38.0122C10.3137 36.7347 9.5848 35.3815 9.04412 33.8316C8.74039 32.9608 8.50643 32.0685 8.28802 31.1736C8.16006 30.6493 8.07071 30.0997 7.98539 29.5671C7.85866 28.776 7.74767 27.9816 7.64148 27.1876C7.37118 25.1665 7.13365 23.1397 6.90456 21.1138C6.50603 17.5892 6.13355 14.0581 5.7877 10.5278L5.7627 10.2727L5.9822 10.1369C7.44147 9.23396 9.27925 8.65857 10.9423 8.25644C12.99 7.76137 15.1115 7.45302 17.2072 7.24108C19.7084 6.98803 22.2434 6.86859 24.7577 6.86859Z" fill="black"/>
<path fill-rule="evenodd" clip-rule="evenodd" d="M24.758 7.50031C18.8473 7.50031 10.3506 8.23176 6.41016 10.6701C6.41016 10.6701 8.09204 27.8301 8.87302 31.0298C9.81119 34.8741 10.8763 37.9789 16.6473 41.7583C22.4184 45.5376 24.7581 46.2691 24.7581 46.2691C24.7581 46.2691 27.0977 45.5376 32.8687 41.7583C38.6398 37.9789 39.7049 34.8741 40.6431 31.0298C41.424 27.8301 43.1058 10.6701 43.1058 10.6701C39.1654 8.23169 30.6688 7.50031 24.758 7.50031Z" fill="#ED1C24"/>
<path fill-rule="evenodd" clip-rule="evenodd" d="M24.7573 44.8297C24.4556 44.7027 23.9853 44.4908 23.3313 44.1585V32.2253C21.8033 32.1868 19.8679 32.0783 17.8307 31.9305V40.9241C17.6873 40.8312 17.5419 40.7366 17.394 40.6397C16.5091 40.0603 15.7448 39.502 15.0804 38.9563V35.1721C14.2655 35.1041 13.4651 35.0558 12.6689 34.9549H11.662C10.9583 33.6335 10.5666 32.2622 10.1889 30.7148C9.61719 28.3727 8.45284 17.5363 7.84375 11.413C11.6785 9.52407 19.2061 8.84137 24.7573 8.84137C30.3084 8.84137 37.8361 9.52407 41.6708 11.413C41.0618 17.5363 39.8973 28.3727 39.3257 30.7148C38.9434 32.2816 38.5465 33.6678 37.8262 35.0045C36.7039 35.0894 35.5423 35.1748 34.4342 35.2518V38.9564C33.7698 39.502 33.0055 40.0604 32.1206 40.6398C31.9726 40.7367 31.8273 40.8313 31.6839 40.9241V31.967C29.6467 32.0864 27.7113 32.1774 26.1834 32.2178V44.1584C25.5292 44.4908 25.059 44.7026 24.7573 44.8297Z" fill="white"/>
<rect width="25.3703" height="25.0522" fill="black" fill-opacity="0" transform="translate(12.0693 0.853821)"/>
<path d="M24.7542 25.906C31.7383 25.906 37.4 20.3006 37.4 13.386C37.4 6.47142 31.7383 0.866028 24.7542 0.866028C17.7701 0.866028 12.1084 6.47142 12.1084 13.386C12.1084 20.3006 17.7701 25.906 24.7542 25.906Z" fill="white"/>
<path fill-rule="evenodd" clip-rule="evenodd" d="M28.2366 1.6936C35.8558 8.06858 34.2519 23.6372 20.9391 22.4022C19.7708 22.4211 15.8889 20.6565 14.8125 20.3699C17.0643 23.7215 20.9238 25.9064 25.2634 25.8363C32.0581 25.7266 37.4953 20.1295 37.3837 13.3597C37.2912 7.75369 33.4224 3.07446 28.2366 1.6936Z" fill="#D1D3D4"/>
<path fill-rule="evenodd" clip-rule="evenodd" d="M25.9521 25.9008L25.9784 25.881C23.6957 25.9941 21.6472 25.6891 19.8327 24.9661C19.5981 24.8726 19.3674 24.7722 19.1406 24.6647C18.8299 24.5174 18.5265 24.357 18.2305 24.1836C17.7926 23.927 17.3706 23.6418 16.9649 23.3277C16.8926 23.2705 16.821 23.2127 16.7503 23.1542C16.5476 22.9869 16.3511 22.8143 16.1606 22.6365C16.1281 22.6062 16.0958 22.5756 16.0636 22.545C15.9889 22.4737 15.9151 22.4016 15.8423 22.3287L15.8314 22.3178C15.6857 22.1716 15.5437 22.022 15.4057 21.8693L15.3663 21.8256C14.0073 20.3076 13.0248 18.4673 12.4187 16.3046L12.4184 16.3035C12.2625 15.6806 12.1589 15.0496 12.1074 14.4109C12.0467 13.6575 12.0586 12.8931 12.1431 12.1178C12.1917 11.6719 12.2642 11.2224 12.3609 10.7693C12.4023 10.575 12.4482 10.38 12.4984 10.1844C12.521 10.0967 12.5444 10.0088 12.5687 9.9208C12.6046 9.81265 12.6412 9.70559 12.6786 9.59962C12.7064 9.52066 12.7347 9.44228 12.7633 9.36447C13.2044 8.16745 13.743 7.11071 14.3792 6.1944C14.5529 5.99644 14.7672 5.68912 14.9288 5.48649C15.1402 5.22144 15.3492 4.98987 15.5685 4.76658C17.4357 2.86505 19.4419 1.75328 22.0834 1.14691C26.9424 0.0314228 32.296 2.18466 35.1057 6.1672C35.4228 6.6166 35.7888 7.19879 36.0616 7.75012C37.1012 9.85069 37.8818 12.8333 37.1575 15.9636C36.8027 17.4973 36.2585 18.8659 35.5281 20.0162C35.1724 20.5763 34.7831 21.1096 34.3744 21.5747C33.9251 22.0862 33.2213 22.7021 33.0512 22.8996C32.9281 22.9902 32.8156 23.0999 32.667 23.1879L32.5042 23.3358C32.4028 23.4679 32.5425 23.398 32.3571 23.4876C32.2042 23.5615 32.3197 23.4599 32.1619 23.5816C32.0799 23.6449 32.1424 23.624 32.0132 23.7009C31.8496 23.8224 31.6527 23.907 31.52 24.0331C30.917 24.2656 30.2667 24.896 28.4053 25.4283C27.6328 25.649 26.8224 25.8182 25.9521 25.9008ZM23.7548 17.6965L24.0967 17.8453C24.3182 17.9867 25.2651 18.3973 25.5203 18.3124C25.6811 18.2588 26.3405 17.5768 26.5126 17.4068C27.0948 16.8319 27.8448 16.1672 28.3475 15.4871L25.8131 17.6313C25.6376 17.7736 25.4548 17.8741 25.1453 17.7515C24.6516 17.5557 24.2506 17.3759 23.7971 17.1049L23.7144 17.1005C23.6394 16.9859 23.6384 17.0195 23.513 16.9632C22.6206 16.3936 22.0913 16.0646 21.5988 15.302C21.1735 14.6432 20.8502 13.8191 20.6227 12.9551C20.5316 12.6091 20.2335 11.9928 20.5403 11.6636C20.7394 11.45 23.05 9.54696 23.4298 9.33451C23.0712 9.40571 20.0069 11.5423 19.9154 11.7343C19.718 12.1483 20.5255 14.7191 20.8614 15.3829C20.9972 15.651 21.0939 15.7716 21.254 15.9949C21.7318 16.6615 23.0388 17.5031 23.7548 17.6965ZM32.282 23.0764C32.3938 22.9444 32.4564 22.9656 32.555 22.8298C32.8284 22.6878 33.563 21.9571 33.8365 21.6608C34.3321 21.1239 34.6751 20.804 34.7519 19.9993C34.2707 20.0526 33.0395 20.7308 32.6039 20.5271C32.5415 20.2464 33.0275 19.9177 33.1977 19.748C34.9623 17.9901 35.7072 17.6822 35.4419 15.204C35.4023 14.8345 35.3452 14.4724 35.266 14.1421C35.2183 13.9432 35.0246 13.3578 35.0554 13.266C35.1992 12.8378 35.7065 13.6273 35.9338 13.9265C36.0768 14.1148 36.4552 14.7424 36.6103 14.854C36.9727 13.6755 37.1488 13.3122 37.0175 12.078C36.9312 11.2661 36.7459 10.376 36.5058 9.6571C36.2068 8.76188 35.5455 7.2909 34.989 6.58446C34.6 6.09054 34.33 6.19125 33.7997 6.00132C33.6983 6.80403 33.544 7.53504 33.2347 8.24314C32.9806 8.825 32.9559 8.61364 33.2441 9.05086C33.5656 9.53856 35.593 12.7705 35.0827 13.0575C34.8232 13.1522 34.4834 12.7986 34.3135 12.6678C34.0846 12.4919 33.8293 12.3201 33.5702 12.1585C33.2843 11.9802 32.2085 11.3205 31.8314 11.3265C31.6577 11.375 30.9854 12.577 30.848 12.7987L29.8617 14.3066L29.7053 14.5233C29.5999 14.7401 29.3097 15.0403 29.0981 15.044C28.9267 14.8866 28.9382 14.6383 28.9246 14.3436L28.9194 14.2028C28.9691 13.604 28.8623 11.8085 28.8181 11.052C28.8002 10.7443 28.8486 10.2283 28.6007 10.0953C28.3949 9.98495 24.3436 9.10461 23.9839 9.06728C23.9756 9.05715 23.9651 9.02879 23.9588 9.037C23.8954 9.11879 23.9175 8.98774 23.9131 8.9828C23.911 8.98049 23.8626 8.93193 23.8569 8.92565C23.8972 8.66984 24.0232 8.61692 24.2172 8.5207L25.7158 7.90195C26.4132 7.62285 27.0563 7.36884 27.7502 7.09096C28.3264 6.86023 28.2498 6.86093 28.0272 6.34809C27.8812 6.01197 27.7542 5.71933 27.585 5.3648C27.4253 5.03015 27.2945 4.7143 27.1366 4.38338C27.0416 4.1844 26.6696 3.57912 26.8123 3.37526C27.2618 3.21657 29.6156 5.07474 29.9753 5.36762C30.2094 5.5582 30.4511 5.74506 30.6729 5.94801C30.9884 6.23699 31.0949 6.04468 31.5274 5.94564C32.1215 5.80959 32.9152 5.68566 33.6095 5.76725C33.4053 4.75003 33.8716 4.99924 32.4823 3.8799C31.1599 2.8145 29.6542 2.08267 27.9465 1.61069C27.501 1.48759 26.9569 1.34346 26.5158 1.3668C26.2283 1.38194 25.4364 1.43396 25.2594 1.53596L26.0789 2.354C26.2833 2.5662 26.8999 3.10123 26.6633 3.27577C26.4633 3.34941 25.8999 3.00797 25.6598 2.91271C24.6121 2.49711 23.1926 2.07138 22.1958 2.48717C21.6107 2.73131 21.4236 2.90963 20.9464 3.19559C20.6327 3.38367 19.225 4.50435 19.0416 4.48408C18.8485 4.46266 18.9951 4.49492 18.9351 4.43123C18.7772 4.13661 19.6705 2.78012 19.818 2.45664C19.2095 2.40121 19.0747 2.58281 18.6724 2.79622C17.0236 3.67065 15.58 5.0986 14.5009 6.65291C14.1507 7.15735 13.847 7.71349 13.5826 8.27573C13.4452 8.56772 13.4146 8.58536 13.5221 8.88318C13.7769 9.58866 13.2199 9.49898 13.0216 9.77282C12.8866 9.95916 12.7071 10.9086 12.6503 11.1947C12.2117 13.4033 12.4883 15.6845 13.2444 17.7276C13.3874 18.1139 13.4747 18.4867 13.9146 18.6377C14.204 18.1084 14.0222 16.8178 14.5776 16.573C14.8637 16.6969 14.7971 17.1068 14.8525 17.5469C14.9536 18.3512 15.3206 20.0396 15.6963 20.6188C16.1426 21.3068 17.7669 21.9031 18.6657 22.1446C19.0129 22.238 19.6304 22.2681 19.7165 22.6101C19.4947 23.0427 18.01 22.7981 17.6038 23.0023C17.6461 23.1676 17.9538 23.522 18.1085 23.6517C18.6124 24.0742 20.0679 24.6933 20.7074 24.915C22.1 25.3977 23.5825 25.6233 25.0392 25.5928C25.3308 25.5866 25.782 25.6245 25.9717 25.4835C26.1873 25.3234 26.3582 24.9758 26.5893 24.889C26.8659 24.785 27.2237 25.0816 27.5437 25.1719C27.9097 25.2752 28.1715 25.1219 28.4836 25.0255C29.1792 24.8108 31.1589 24.0158 31.5841 23.5289C31.7729 23.4627 31.9094 23.3257 32.0732 23.2246C32.1483 23.1196 32.0314 23.2126 32.1587 23.1163C32.2506 23.0468 32.149 23.0771 32.282 23.0764ZM22.3699 17.9101C22.6249 18.0206 22.8415 18.2554 23.129 18.4089C23.4149 18.5615 23.6541 18.7041 23.9428 18.8658C24.2741 19.0515 25.3608 19.642 25.7344 19.6373C25.856 19.5494 28.2404 16.5542 28.3661 16.3133L27.0052 17.7742C26.7698 18.0369 26.578 18.2636 26.3422 18.5137C26.1725 18.6937 25.8711 19.0855 25.6919 19.2103C25.3878 19.2016 23.8703 18.5098 23.577 18.3442C23.4088 18.2492 23.272 18.1936 23.0853 18.1045C22.9188 18.0251 22.7826 17.9215 22.6237 17.8315L21.6853 17.3C21.743 17.4192 21.6966 17.3666 21.8042 17.4462C21.9135 17.4965 22.0541 17.5984 22.1261 17.6726C22.1875 17.7359 22.1809 17.7401 22.2517 17.8051C22.3245 17.8721 22.3005 17.8299 22.3699 17.9101ZM29.0893 24.3847C28.7041 24.3788 27.9922 24.494 27.8603 24.0912C27.7162 23.6517 28.1437 23.2315 28.2754 22.9073C28.0141 23.0289 27.7813 23.4121 27.6446 23.6599C27.5233 23.8799 27.2621 24.4403 27.3454 24.7171C27.4534 25.0759 27.9876 24.8346 28.213 24.75C28.3752 24.6891 28.5006 24.645 28.6544 24.5857C28.7522 24.5481 28.7881 24.5376 28.8892 24.4961C29.0043 24.4491 29.0054 24.4495 29.0893 24.3847ZM15.7728 8.15917C15.4354 8.2153 14.9894 8.56682 14.5333 8.38971C14.0889 8.21716 14.3604 7.51515 14.414 7.09789C14.1927 7.48879 13.2054 8.68164 13.891 8.80704C14.5338 8.92462 15.4978 8.44731 15.7728 8.15917ZM23.0114 8.17553C22.7117 8.10426 21.8496 8.12223 21.4843 8.10927C20.9786 8.09124 20.4028 8.06071 19.9113 8.00189C19.3793 7.93826 19.3871 7.77513 19.2902 6.96652C19.2382 6.5327 19.2583 5.93441 19.193 5.54787C19.0998 6.06463 19.0674 6.76317 19.0645 7.2748C19.0635 7.45915 19.0542 7.92222 19.0993 8.06738C19.2063 8.4105 19.5577 8.21883 19.752 8.2171C19.9183 8.21556 20.0568 8.28913 20.6285 8.28066C21.0969 8.27374 22.7295 8.23576 23.0114 8.17553ZM29.5611 15.7049C29.3128 16.7835 29.0536 17.8418 28.8756 18.9545C28.7423 19.7875 28.8684 19.7269 29.725 19.8677C30.2782 19.9587 30.8482 19.9995 31.4039 20.0396C31.2269 19.9273 30.2791 19.7617 29.9694 19.661C29.3418 19.457 29.1084 19.5087 29.165 18.8273C29.2528 17.7709 29.46 16.7441 29.5611 15.7049ZM36.6024 14.2203C36.5713 13.854 36.0964 13.0265 35.9334 12.8138C35.5392 12.2992 35.5189 11.3577 34.559 10.0822C34.2666 9.6936 33.9874 9.23265 33.5878 8.86144L33.9819 9.52958C34.6766 10.5842 35.0713 11.4702 35.3677 12.6967C35.456 13.062 35.5593 12.9188 36.1026 13.5817C36.1978 13.6979 36.2576 13.7724 36.3436 13.8942C36.4495 14.0444 36.4681 14.1211 36.6024 14.2203ZM30.7358 5.57879C30.5051 5.08641 29.1084 3.81832 28.5106 3.44255C28.2941 3.30637 28.0408 3.1421 27.81 3.01534C27.4587 2.82233 27.4005 2.84491 27.1412 2.56325C26.8458 2.24233 26.2786 1.84341 25.816 1.64552C25.9691 1.7765 26.2054 2.02763 26.3382 2.16939C27.1755 3.06332 26.6487 2.90739 27.4279 3.24948C28.6187 3.77226 29.1906 4.25701 30.1166 5.04363C30.301 5.20033 30.5354 5.44749 30.7358 5.57879ZM18.5091 23.4889C18.5187 23.4973 18.5316 23.5069 18.5392 23.5125C18.5466 23.518 18.5596 23.529 18.5688 23.5355L18.9945 23.7619C19.1562 23.8384 19.3119 23.9127 19.4668 23.9827C21.8676 25.0663 23.6081 25.2863 26.198 25.0636L23.9443 24.7828C23.023 24.6324 22.0234 24.4379 21.1289 24.2013L18.5091 23.4889ZM13.5729 17.7564L13.2542 14.0841C13.2231 13.4512 13.1998 12.7918 13.2124 12.1471C13.2188 11.8205 13.33 10.2189 13.2917 10.0714C12.8415 10.7111 12.7433 13.3408 12.8158 14.2479C12.8847 15.1108 13.0778 16.1191 13.3134 16.9387C13.3891 17.2018 13.5281 17.5256 13.5729 17.7564ZM23.3553 20.6961C23.4411 21.19 23.1399 21.2204 22.8441 21.3849L20.5197 22.5619C21.1148 22.4373 21.8747 22.1256 22.3772 21.8789C23.0442 21.5517 24.0339 21.2077 23.3553 20.6961ZM28.6522 20.5571C30.333 20.8288 31.2755 20.6321 31.5805 20.6674L28.7759 20.3335C28.3372 20.2755 28.3052 20.2507 28.21 19.9004C27.8505 20.3206 28.2684 20.4951 28.6522 20.5571ZM25.5184 18.7808C24.6653 18.5179 23.9092 18.1122 23.1535 17.7659C22.4551 17.4458 21.4685 16.5749 21.0476 16.5999C20.8818 16.9536 21.4222 17.864 21.5972 18.2015C21.6439 18.2915 21.6585 18.3655 21.7032 18.4557C21.7658 18.5824 21.8009 18.6141 21.8619 18.7181C22.1005 19.1257 22.297 19.6559 22.6786 20.175C23.14 20.8026 23.0789 20.7999 22.2862 21.2379L20.6557 22.0877C20.4145 22.2029 19.9799 22.2907 19.8995 22.611C20.329 23.0622 23.3525 23.1317 23.96 23.1296C24.3875 23.1282 24.5013 23.0591 24.8712 23.2875C25.4091 23.6195 25.6898 23.9224 26.074 24.3226C26.2141 24.4687 26.4148 24.8185 26.671 24.8029C26.9417 24.7866 27.0616 24.4534 27.1943 24.1747C27.4597 23.6168 27.7022 22.629 27.8756 22.4815C28.1557 22.2432 28.9822 22.0789 29.392 21.9361C30.1473 21.6727 30.904 21.4067 31.5979 21.0537C31.8296 20.9358 32.1549 20.8486 32.1716 20.5375C31.9941 20.3067 31.4385 20.3175 31.0901 20.2879C30.7809 20.2616 28.5913 19.9985 28.4754 19.7944C28.298 19.4821 29.776 14.5509 28.726 15.3981L25.5184 18.7808ZM14.8731 15.8232L16.4238 13.784C16.68 13.4761 16.6606 13.3222 17.1768 13.4294C16.9194 13.0406 16.7226 13.0488 16.441 13.397C15.9956 13.9477 15.0418 15.1971 14.8731 15.8232ZM20.3038 15.7109L19.9024 14.6927C19.7241 14.1938 18.9271 11.6375 19.0471 11.4087C19.1308 11.3308 19.3097 11.2156 19.4204 11.1536L20.6663 10.3898C20.8269 10.296 22.1896 9.49462 22.3234 9.3279C22.0941 9.39782 20.6759 10.1685 20.3644 10.3369L18.9002 11.1079C18.6928 11.2081 18.5784 11.2643 18.6182 11.5603C18.6567 11.8468 18.8411 12.3926 18.9316 12.6764C19.175 13.4396 19.8662 15.2632 20.3038 15.7109ZM18.8058 8.85894C18.367 8.50306 18.4253 8.79723 18.4871 7.34985C18.5139 6.72244 18.5591 6.09337 18.6182 5.45724C18.3297 6.02287 18.2043 7.73325 18.2175 8.47137C18.2254 8.9073 18.4307 8.89563 18.8058 8.85894ZM14.5938 16.3874C14.9632 16.4631 14.9904 16.1336 15.3168 15.7178C15.54 15.4335 15.7416 15.1559 15.9476 14.8852C16.1495 14.6198 16.3557 14.3695 16.5839 14.1107C17.2687 13.3338 16.9701 13.8955 18.9333 15.2699C19.2406 15.485 20.4342 16.4364 20.7714 16.3138C20.9485 16.0771 20.5463 15.4188 20.4508 15.1929C20.0431 14.2275 19.5722 12.6483 19.402 11.6388C19.7098 11.3092 22.2786 9.63336 23.0104 9.23335C23.2011 9.12918 23.4074 9.06491 23.4416 8.75913C23.0447 8.39965 20.6953 8.54732 19.9373 8.55424C19.4177 8.55906 19.8681 8.63751 19.2768 8.5697C18.799 8.51486 18.7445 8.76926 18.8085 6.71359C18.8246 6.1985 18.9878 5.17872 18.8287 4.81302C18.4793 4.74779 18.3374 5.03561 18.1562 5.28186C17.9806 5.52055 17.8261 5.75154 17.6655 6.00209C17.3537 6.48825 17.0575 7.00949 16.7683 7.55165C16.6191 7.83139 16.5016 8.09272 16.3479 8.3672C16.1526 8.71583 16.0478 8.73995 15.6432 8.78972C15.116 8.85458 14.2811 8.99031 13.8587 9.17344C13.108 9.49898 14.0831 9.93062 14.7079 11.2301C14.8651 11.5571 14.9391 11.7005 14.8483 12.1534C14.6507 13.1385 14.3116 15.6335 14.5938 16.3874ZM14.6613 17.2304C14.5724 17.5897 14.7217 18.8168 14.8016 19.1782C14.9237 19.7299 15.1022 20.3933 15.3369 20.8377C15.7551 21.6294 17.8918 22.3364 18.8096 22.4594C18.6172 22.3391 15.9433 21.6533 15.4851 20.6951C15.0883 19.8653 14.6096 18.0887 14.6613 17.2304ZM33.9555 19.4526C35.1561 18.448 36.1896 17.5902 35.9282 15.8603C35.8965 15.6506 35.6476 14.4225 35.478 14.2174C35.5046 14.4929 35.5907 14.7468 35.6449 15.0217C35.9933 16.7871 35.8188 17.488 34.45 18.8417L33.326 19.8954L33.9555 19.4526ZM31.5566 11.0322C31.5863 10.9892 31.7757 10.8677 31.8766 10.8599C32.097 10.8431 32.787 11.3715 32.969 11.5103L34.0699 12.1745L32.2293 10.7007C31.8852 10.4206 31.6237 10.6372 31.5566 11.0322ZM28.4438 9.39333L24.715 8.90448L28.1308 9.65293C29.3054 9.92497 29.0644 9.66512 29.139 11.0834C29.1769 11.804 29.3 13.7915 29.2799 14.2559C29.3285 14.0327 29.483 9.93902 29.4449 9.79257C29.3523 9.43676 28.8916 9.45337 28.4438 9.39333ZM28.2966 7.1943C28.6668 7.19981 28.9483 6.98114 28.7441 6.61634L27.3961 4.28408L28.3994 6.45303C28.5717 6.80205 28.6151 6.92065 28.2966 7.1943ZM19.6644 3.82544C19.8059 3.77258 19.7207 3.80716 19.837 3.72531C20.5472 3.22529 21.3015 2.48691 22.2637 2.16849C23.8558 1.64173 24.6047 2.44111 25.7962 2.75248C25.7583 2.71373 25.8034 2.74516 25.7173 2.68833C25.7066 2.68134 25.6387 2.64253 25.6278 2.63676C23.9025 1.71858 22.4897 1.37662 20.8621 2.76556C20.5758 3.00989 19.8698 3.5745 19.6644 3.82544Z" fill="black"/>
<path fill-rule="evenodd" clip-rule="evenodd" d="M48.1624 30.2939C32.5971 32.3695 16.9188 32.3697 1.35352 30.2939C1.90209 26.3689 2.44063 22.4426 2.98901 18.5176C17.4623 20.4444 32.0357 20.4455 46.5089 18.5176C47.0601 22.443 47.6112 26.3685 48.1624 30.2939Z" fill="white"/>
<path fill-rule="evenodd" clip-rule="evenodd" d="M48.23 30.7923C40.4176 31.834 32.5839 32.3549 24.7574 32.3549C16.9312 32.3549 9.0979 31.8341 1.28583 30.7923L0.780273 30.7249L0.850117 30.225C1.1558 28.0377 1.41632 26.1568 1.67626 24.2789C1.96043 22.2264 2.2446 20.1738 2.48562 18.4487L2.55494 17.9525L3.05661 18.0193C10.2646 18.9788 17.5047 19.4589 24.7519 19.4589C31.9971 19.4589 39.2352 18.9792 46.4412 18.0193L46.9426 17.9525L47.0122 18.4486L48.6657 30.225L48.7359 30.7248L48.23 30.7923ZM24.7573 31.3465C32.3833 31.3465 40.0026 30.8517 47.5886 29.8623L46.0751 19.0819C38.9762 20.0056 31.8606 20.4674 24.7519 20.4674C17.6413 20.4674 10.5239 20.0054 3.42313 19.0819C3.15127 21.03 2.91705 22.7215 2.6829 24.4129C2.42063 26.3076 2.15862 28.1999 1.92667 29.8623C9.51256 30.8517 17.1316 31.3465 24.7573 31.3465Z" fill="#ED1C24"/>
<path fill-rule="evenodd" clip-rule="evenodd" d="M3.73582 21.7102L6.35075 22.0078C6.87698 22.0678 7.30602 22.1286 7.63788 22.1903C7.96837 22.252 8.26627 22.3474 8.53153 22.4766C8.79542 22.6056 8.99426 22.7888 9.12546 23.0243C9.25808 23.26 9.30227 23.562 9.25925 23.9322C9.23139 24.1721 9.14742 24.3891 9.00871 24.5834C8.86856 24.7775 8.68754 24.9234 8.46414 25.0225C8.24204 25.1217 8.00141 25.1574 7.74374 25.128L7.63042 25.1151L7.62116 25.195L7.7992 25.2153C8.034 25.242 8.2609 25.3249 8.47859 25.4637C8.69622 25.6025 8.86785 25.7961 8.99082 26.0441C9.11379 26.2922 9.15662 26.5821 9.11814 26.9138C9.07155 27.3151 8.94994 27.6208 8.75447 27.8326C8.5588 28.0459 8.30172 28.1877 7.98327 28.258C7.6634 28.3281 7.31451 28.3544 6.93516 28.3367C6.55581 28.3191 6.05499 28.2756 5.43436 28.2049L5.24815 28.1837L3.01367 27.9294L3.14571 26.7922L3.41427 26.8228C3.5627 26.8397 3.65769 26.822 3.70051 26.7714C3.74327 26.7207 3.77133 26.6324 3.7861 26.5051L4.16162 23.2711C4.17627 23.1452 4.1694 23.0514 4.13927 22.9924C4.11057 22.9337 4.02207 22.8951 3.87234 22.878L3.60378 22.8475L3.73582 21.7102ZM6.03361 24.4563L6.45461 24.5043C6.86344 24.5508 7.09053 24.3846 7.13452 24.0055C7.15946 23.7908 7.10595 23.6392 6.97371 23.5536C6.84147 23.4681 6.65268 23.4106 6.4044 23.3823L6.1615 23.3546L6.03361 24.4563ZM5.75313 26.8714L6.16604 26.9184C6.61937 26.97 6.86771 26.8093 6.91106 26.4361C6.94028 26.1844 6.88514 26.0116 6.74448 25.916C6.60518 25.8207 6.41133 25.7595 6.16442 25.7314L5.88912 25.7001L5.75313 26.8714ZM10.7955 22.4491L10.7122 23.5909L11.063 23.616C11.2093 23.6264 11.2792 23.6763 11.2726 23.767C11.2696 23.8086 11.2554 23.8524 11.2304 23.897C11.2272 23.9042 11.2239 23.9115 11.2205 23.9202C11.2172 23.9289 11.2123 23.9405 11.2028 23.9577C11.196 23.9767 11.1894 23.9926 11.1842 24.0072C11.1776 24.0232 11.1741 24.0348 11.1706 24.0451L9.9514 26.9616C9.86368 27.175 9.78379 27.3173 9.71459 27.3885C9.64417 27.4582 9.52087 27.4867 9.34341 27.474L9.19718 27.4636L9.11386 28.6053L11.4547 28.7728L11.538 27.631L11.439 27.6239C11.3483 27.6174 11.2872 27.5772 11.2571 27.5047C11.2257 27.4308 11.2111 27.3699 11.2105 27.3221L11.2414 27.2152L13.2165 27.3564C13.2514 27.4755 13.267 27.5603 13.2633 27.6108C13.2563 27.706 13.1688 27.7475 13.0009 27.7355L12.7652 27.7187L12.6819 28.8605L15.7135 29.0773L15.7968 27.9356L15.6573 27.9256C15.5517 27.918 15.4706 27.8913 15.4114 27.8437C15.3536 27.7963 15.3116 27.738 15.2881 27.6676C15.2633 27.597 15.2382 27.4922 15.2115 27.3558L14.1942 22.6922L10.7955 22.4491ZM12.4833 24.1928L12.5308 24.1961L12.9159 25.9721L11.7712 25.8903L12.4833 24.1928ZM16.2568 27.2785L16.3093 25.9201L19.7293 26.0495L19.6769 27.4079L16.2568 27.2785ZM25.871 23.0434L25.8467 24.9302L24.8445 24.9176C24.8274 24.7608 24.8045 24.6458 24.7755 24.5738C24.7466 24.5034 24.6983 24.4536 24.6294 24.4259C24.5605 24.3996 24.4534 24.3849 24.3053 24.383L23.1483 24.3685L23.1344 25.4505L23.8609 25.4596C24.3526 25.4658 24.785 25.5264 25.1584 25.6414C25.5332 25.755 25.8295 25.954 26.05 26.2356C26.2691 26.5171 26.3756 26.897 26.3694 27.3784C26.3639 27.8017 26.2767 28.142 26.1064 28.3992C25.936 28.6579 25.6972 28.8486 25.3913 28.9745C25.0854 29.1004 24.7312 29.1823 24.33 29.2205C23.9275 29.2587 23.4397 29.2734 22.8652 29.2661L20.4778 29.236L20.4925 28.0914L20.7614 28.0948C20.9135 28.0967 21.0089 28.0696 21.0476 28.0149C21.0864 27.9603 21.1065 27.8696 21.1082 27.7414L21.1501 24.4864C21.1517 24.3597 21.1352 24.2671 21.0993 24.2114C21.0634 24.1558 20.9673 24.1263 20.8125 24.1244L20.4282 24.1196L20.4429 22.9749L25.871 23.0434ZM23.1013 28.0169L23.2643 28.019C23.8455 28.0263 24.1404 27.8035 24.1463 27.3489C24.1498 27.0777 24.0651 26.9051 23.8935 26.8299C23.7206 26.7547 23.5174 26.7164 23.2811 26.7134L23.1181 26.7113L23.1013 28.0169ZM27.5724 23.0052L30.9785 22.9043L32.4703 27.4411C32.5109 27.5741 32.5466 27.6759 32.5786 27.7435C32.6092 27.8112 32.657 27.865 32.7194 27.9064C32.7832 27.9478 32.8666 27.9661 32.9725 27.9631L33.1123 27.9589L33.1469 29.1031L30.1087 29.1931L30.0741 28.0489L30.3104 28.0419C30.4787 28.0369 30.5614 27.9867 30.5585 27.8914C30.557 27.8407 30.5328 27.758 30.4858 27.6431L28.5065 27.7017L28.4867 27.8112C28.4922 27.8588 28.513 27.9178 28.5518 27.9882C28.5893 28.0572 28.6541 28.091 28.7451 28.0883L28.8441 28.0854L28.8787 29.2296L26.5329 29.2991L26.4983 28.1549L26.6449 28.1505C26.8228 28.1452 26.9425 28.1044 27.0054 28.028C27.0669 27.9501 27.1317 27.8006 27.1971 27.5794L28.1098 24.5551C28.1122 24.5446 28.1145 24.5326 28.1195 24.5161C28.1231 24.5011 28.128 24.4845 28.1329 24.465C28.1405 24.4469 28.1442 24.4349 28.1466 24.4258C28.1491 24.4168 28.1515 24.4093 28.1541 24.4018C28.1743 24.3549 28.1839 24.3099 28.1826 24.2681C28.1799 24.1773 28.1052 24.1348 27.9586 24.1391L27.607 24.1495L27.5724 23.0052ZM29.4309 24.5696L28.8971 26.3302L30.0443 26.2962L29.4785 24.5682L29.4309 24.5696ZM33.4327 29.113L36.4263 28.8988L36.343 27.757L36.2929 27.7606C36.1439 27.7713 36.0468 27.7469 36.0029 27.6872C35.9591 27.6276 35.9337 27.5412 35.9255 27.4282L35.8435 26.3043L37.2333 26.2049L37.3153 27.3288C37.3254 27.4671 37.3092 27.5624 37.2667 27.6147C37.2244 27.6686 37.1355 27.7004 37 27.7101L36.9526 27.7135L37.0359 28.8553L40.0256 28.6414L39.9423 27.4996L39.6659 27.5194C39.521 27.5298 39.4266 27.5051 39.3827 27.4455C39.3403 27.3858 39.3149 27.2995 39.3066 27.1864L39.0696 23.9396C39.0614 23.8266 39.0739 23.7375 39.1059 23.6725C39.1379 23.6074 39.2292 23.5695 39.3768 23.559L39.6532 23.5392L39.5698 22.3974L36.5802 22.6113L36.6635 23.7531L36.7109 23.7497C36.8464 23.74 36.939 23.7587 36.9886 23.8045C37.0382 23.8502 37.0682 23.9438 37.0783 24.082L37.1342 24.8491L35.7444 24.9485L35.6884 24.1814C35.6804 24.0715 35.6916 23.9824 35.7235 23.9159C35.7554 23.8493 35.8439 23.8117 35.9875 23.8014L36.035 23.7981L35.9516 22.6563L32.9769 22.8691L33.0602 24.0109L33.3298 23.9915C33.4652 23.9819 33.5578 24.0007 33.6075 24.0464C33.6571 24.0921 33.687 24.1842 33.6971 24.3239L33.9341 27.5707C33.9442 27.709 33.928 27.8043 33.8855 27.8567C33.8432 27.9105 33.7543 27.9423 33.6188 27.952L33.3492 27.9713L33.4327 29.113ZM42.7256 24.3964L42.8958 24.3781C43.0038 24.3665 43.085 24.3352 43.1395 24.2829C43.1938 24.2306 43.2425 24.1384 43.2836 24.0035C43.325 23.8701 43.389 23.6188 43.4771 23.2525C43.5408 22.9863 43.6186 22.7485 43.7078 22.541C43.7982 22.3318 43.9412 22.1411 44.137 21.9701C44.3325 21.7976 44.5904 21.6949 44.909 21.6606C45.2033 21.6289 45.5032 21.6477 45.8087 21.7168L45.9697 23.1838C45.8136 23.2051 45.6959 23.2657 45.614 23.3659C45.5321 23.4662 45.4424 23.6198 45.3435 23.8269C45.2188 24.0967 45.0887 24.3055 44.9533 24.4536C44.8193 24.6014 44.589 24.7192 44.2625 24.8068L44.2743 24.9134C44.9494 24.8408 45.4101 25.1301 45.6564 25.7813C45.7261 25.9552 45.7888 26.0789 45.8475 26.1535C45.9048 26.2268 45.9995 26.2556 46.1331 26.2413C46.1993 26.2341 46.2937 26.2105 46.4133 26.1676L46.6075 27.9369C46.3823 28.0631 46.1125 28.1445 45.7966 28.1785C45.4955 28.2109 45.2366 28.1923 45.023 28.1253C44.8092 28.0569 44.5974 27.8953 44.385 27.6407C44.1727 27.3862 43.95 27.0008 43.7172 26.4846C43.6308 26.2946 43.5715 26.166 43.5393 26.096C43.5058 26.0276 43.463 25.9617 43.4081 25.8972C43.3547 25.8339 43.2854 25.7874 43.2017 25.759C43.1166 25.7307 43.008 25.7243 42.873 25.7389L42.9891 26.7969C43.0038 26.9302 43.0384 27.0225 43.0921 27.0752C43.147 27.1278 43.2448 27.1472 43.3866 27.132L43.5405 27.1154L43.6654 28.2534L40.595 28.5838L40.4701 27.4457L40.6807 27.4231C40.8293 27.4071 40.9234 27.3685 40.9643 27.3056C41.0054 27.2442 41.0191 27.1453 41.0043 27.0105L40.6529 23.8098C40.6378 23.672 40.6043 23.5782 40.5508 23.5269C40.4976 23.4772 40.3973 23.4595 40.2473 23.4756L40.0368 23.4983L39.9119 22.3603L42.9985 22.0282L43.1234 23.1662L42.9533 23.1845C42.8102 23.1999 42.7188 23.2382 42.6778 23.3011C42.6367 23.3625 42.623 23.4614 42.6378 23.5962L42.7256 24.3964Z" fill="black"/>
<path fill-rule="evenodd" clip-rule="evenodd" d="M39.2942 31.1961H34.4502V38.9059L39.2942 34.7274V31.1961Z" fill="#ED1C24"/>
<path fill-rule="evenodd" clip-rule="evenodd" d="M10.1973 31.3502H15.0412V39.0599L10.1973 34.8814V31.3502Z" fill="#ED1C24"/>
</svg>
