<svg width="60" height="58" fill="none" xmlns="http://www.w3.org/2000/svg"><path fill-rule="evenodd" clip-rule="evenodd" d="M57.211 21.748l-8.082-2.684-.944 5.637 9.026-2.953z" fill="#fff"/><path fill-rule="evenodd" clip-rule="evenodd" d="M55.19 21.743l-5.556-1.845-.648 3.874 6.203-2.03zm-5.862-3.28l8.04 2.671a.635.635 0 0 1 .04 1.217l-9.026 2.952a.635.635 0 0 1-.823-.707l.943-5.636a.635.635 0 0 1 .825-.496z" fill="#ED1C24"/><path fill-rule="evenodd" clip-rule="evenodd" d="M30 8.368c-7.395 0-18.026.921-22.956 3.991 0 0 2.104 21.605 3.081 25.634 1.174 4.84 2.507 8.749 9.727 13.507C27.072 56.258 30 57.18 30 57.18s2.927-.922 10.148-5.68c7.22-4.758 8.553-8.667 9.727-13.507.977-4.029 3.081-25.634 3.081-25.634-4.93-3.07-15.56-3.99-22.956-3.99z" fill="#ED1C24"/><path fill-rule="evenodd" clip-rule="evenodd" d="M30 7.573c3.146 0 6.317.15 9.447.469 2.622.266 5.276.655 7.838 1.278 2.081.506 4.38 1.23 6.206 2.368l.275.17-.032.322a903.31 903.31 0 0 1-1.397 13.328c-.286 2.55-.584 5.103-.922 7.647-.133 1-.271 2-.43 2.996a26.28 26.28 0 0 1-.379 2.023c-.273 1.126-.566 2.25-.946 3.346-.676 1.951-1.588 3.655-2.895 5.264-1.72 2.118-3.944 3.864-6.215 5.361a106.225 106.225 0 0 1-4.7 2.94 58.656 58.656 0 0 1-3.204 1.76c-.605.307-1.222.603-1.85.863a7.918 7.918 0 0 1-.638.242L30 58l-.157-.05a7.934 7.934 0 0 1-.64-.242 27.232 27.232 0 0 1-1.85-.862 58.725 58.725 0 0 1-3.203-1.761 106.11 106.11 0 0 1-4.7-2.94c-2.271-1.497-4.494-3.243-6.215-5.361-1.307-1.609-2.219-3.312-2.895-5.264-.38-1.096-.673-2.22-.946-3.346-.16-.66-.272-1.352-.379-2.023a117.67 117.67 0 0 1-.43-2.996 380.821 380.821 0 0 1-.922-7.647A903.102 903.102 0 0 1 6.266 12.18l-.032-.321.275-.171c1.826-1.137 4.125-1.862 6.206-2.368 2.562-.623 5.216-1.011 7.838-1.278A93.54 93.54 0 0 1 30 7.572z" fill="#000"/><path fill-rule="evenodd" clip-rule="evenodd" d="M30 8.368c-7.395 0-18.026.921-22.956 3.991 0 0 2.104 21.605 3.081 25.634 1.174 4.84 2.507 8.749 9.727 13.507C27.072 56.258 30 57.18 30 57.18s2.927-.922 10.148-5.68c7.22-4.758 8.553-8.667 9.727-13.507.977-4.029 3.081-25.634 3.081-25.634-4.93-3.07-15.56-3.99-22.956-3.99z" fill="#ED1C24"/><path fill-rule="evenodd" clip-rule="evenodd" d="M30 55.367c-.377-.16-.966-.427-1.784-.845V39.498c-1.912-.049-4.333-.185-6.882-.371V50.45l-.546-.358a33.283 33.283 0 0 1-2.895-2.12v-4.764c-1.02-.086-2.02-.147-3.017-.274h-1.26c-.88-1.663-1.37-3.39-1.843-5.338-.715-2.949-2.172-16.592-2.934-24.302 4.798-2.378 14.216-3.237 21.161-3.237 6.946 0 16.364.86 21.162 3.237-.762 7.71-2.219 21.353-2.934 24.302-.479 1.973-.975 3.718-1.876 5.4-1.405.108-2.858.215-4.244.312v4.664a33.287 33.287 0 0 1-2.895 2.12l-.546.358V39.173c-2.55.15-4.97.264-6.882.315v15.034c-.819.418-1.407.685-1.785.845z" fill="#fff"/><path d="M29.993 31.542c8.738 0 15.822-7.058 15.822-15.763C45.815 7.073 38.73.016 29.993.016S14.17 7.073 14.17 15.779c0 8.705 7.084 15.763 15.822 15.763z" fill="#fff"/><path fill-rule="evenodd" clip-rule="evenodd" d="M34.347 1.058c9.533 8.026 7.526 27.627-9.13 26.073-1.462.023-6.318-2.198-7.665-2.56 2.817 4.22 7.646 6.971 13.075 6.883 8.502-.138 15.305-7.185 15.165-15.708-.116-7.059-4.956-12.95-11.445-14.688z" fill="#D1D3D4"/><path fill-rule="evenodd" clip-rule="evenodd" d="M31.492 31.535l.034-.025c-2.857.142-5.42-.242-7.69-1.152a14.857 14.857 0 0 1-2.004-.985 14.835 14.835 0 0 1-1.584-1.078 16.195 16.195 0 0 1-1.404-1.257l-.014-.014a16.71 16.71 0 0 1-.533-.565l-.049-.055c-1.7-1.911-2.93-4.228-3.688-6.95v-.002a14.745 14.745 0 0 1-.39-2.383 15.369 15.369 0 0 1 .045-2.887 17.025 17.025 0 0 1 .445-2.434c.028-.11.057-.221.088-.332a22.81 22.81 0 0 1 .243-.7c.552-1.508 1.226-2.838 2.022-3.992.217-.25.485-.636.688-.891.264-.334.526-.626.8-.907 2.336-2.394 4.846-3.794 8.151-4.557 6.08-1.404 12.778 1.307 16.293 6.32.397.567.855 1.3 1.196 1.994 1.3 2.644 2.277 6.4 1.371 10.34-.444 1.932-1.125 3.655-2.038 5.103a15.934 15.934 0 0 1-1.444 1.962c-.562.644-1.443 1.42-1.655 1.668-.154.114-.295.253-.481.363l-.204.187c-.127.166.048.078-.184.19-.191.094-.047-.034-.244.12-.103.079-.024.052-.186.15-.205.152-.451.259-.617.418-.755.292-1.568 1.086-3.897 1.756-.967.278-1.98.491-3.07.595zm-2.749-10.33l.428.188c.277.178 1.462.695 1.781.588.201-.068 1.026-.926 1.242-1.14.728-.724 1.667-1.56 2.295-2.417l-3.17 2.7c-.22.179-.449.305-.836.15a10.933 10.933 0 0 1-1.687-.813l-.103-.006c-.094-.144-.095-.102-.252-.173-1.117-.717-1.779-1.131-2.395-2.091-.532-.83-.937-1.867-1.221-2.955-.114-.436-.487-1.212-.104-1.626.25-.27 3.14-2.665 3.616-2.932-.449.09-4.283 2.78-4.397 3.02-.247.522.763 3.759 1.183 4.595.17.337.291.489.491.77.598.84 2.234 1.899 3.13 2.143zm10.67 6.774c.14-.166.217-.14.34-.31.343-.18 1.262-1.1 1.604-1.472.62-.676 1.05-1.079 1.145-2.092-.602.067-2.142.92-2.687.664-.078-.353.53-.767.743-.98 2.208-2.214 3.14-2.602 2.808-5.722-.05-.465-.121-.92-.22-1.337-.06-.25-.302-.987-.264-1.103.18-.539.815.455 1.1.832.178.237.652 1.027.846 1.168.453-1.484.673-1.941.51-3.495a15.255 15.255 0 0 0-.641-3.048c-.374-1.127-1.202-2.98-1.898-3.869-.487-.622-.824-.495-1.488-.734-.127 1.01-.32 1.93-.707 2.822-.318.733-.349.467.012 1.017.402.614 2.939 4.684 2.3 5.045-.324.12-.75-.326-.962-.49a11.702 11.702 0 0 0-.93-.642c-.358-.225-1.704-1.055-2.176-1.048-.217.061-1.058 1.575-1.23 1.854l-1.234 1.899-.196.272c-.132.273-.495.651-.76.656-.214-.198-.2-.51-.216-.882l-.007-.177c.062-.754-.071-3.015-.127-3.967-.022-.387.038-1.037-.272-1.205-.257-.139-5.326-1.247-5.776-1.294-.01-.013-.024-.048-.031-.038-.08.103-.052-.062-.058-.068l-.07-.072c.05-.322.208-.389.45-.51l1.876-.78c.872-.35 1.677-.67 2.545-1.02.721-.29.625-.29.347-.936-.183-.423-.342-.791-.553-1.238-.2-.42-.364-.819-.561-1.235-.12-.25-.585-1.013-.406-1.27.562-.2 3.507 2.14 3.957 2.509.293.24.596.475.873.73.395.365.528.122 1.07-.002.742-.172 1.736-.328 2.604-.225-.255-1.28.328-.967-1.41-2.376-1.655-1.341-3.538-2.263-5.675-2.857-.558-.155-1.238-.337-1.79-.307-.36.019-1.35.084-1.572.213l1.025 1.03c.256.267 1.027.94.731 1.16-.25.093-.955-.337-1.255-.457-1.311-.523-3.087-1.059-4.334-.536-.732.308-.966.532-1.563.892-.393.237-2.154 1.648-2.384 1.623-.241-.027-.058.013-.133-.067-.197-.37.92-2.079 1.105-2.486-.762-.07-.93.159-1.434.428-2.062 1.1-3.869 2.898-5.219 4.855a14.19 14.19 0 0 0-1.149 2.043c-.172.368-.21.39-.075.765.318.889-.378.776-.627 1.12-.168.235-.393 1.43-.464 1.79-.549 2.781-.203 5.653.743 8.226.18.486.288.955.839 1.145.362-.666.134-2.29.83-2.599.357.156.274.672.343 1.226.127 1.013.586 3.139 1.056 3.868.558.866 2.59 1.617 3.715 1.92.434.118 1.207.156 1.315.587-.278.544-2.135.237-2.644.494.053.208.438.654.632.817.63.532 2.451 1.312 3.252 1.59a15.54 15.54 0 0 0 5.42.854c.364-.007.929.04 1.166-.137.27-.202.484-.64.773-.749.346-.13.793.243 1.194.356.458.13.785-.063 1.176-.184.87-.27 3.347-1.271 3.879-1.884.236-.084.407-.256.612-.383.094-.133-.052-.015.107-.137.115-.087-.012-.05.154-.05zM27.01 21.474c.319.14.59.435.95.628.357.192.656.372 1.017.576.415.233 1.775.977 2.242.971.152-.11 3.136-3.882 3.293-4.185l-1.703 1.84c-.294.33-.534.616-.83.93-.212.227-.589.72-.813.877-.38-.01-2.28-.881-2.646-1.09-.21-.12-.382-.19-.615-.302-.209-.1-.379-.23-.578-.344l-1.174-.669c.072.15.014.084.149.184.137.064.312.192.403.285.076.08.068.085.157.167.09.085.06.032.148.133zm8.407 8.152c-.482-.007-1.373.138-1.538-.37-.18-.553.355-1.082.52-1.49-.328.153-.619.636-.79.948-.152.277-.479.982-.374 1.33.135.452.803.149 1.085.042.203-.077.36-.132.553-.207.122-.047.167-.06.293-.113.144-.059.146-.058.25-.14zM18.757 9.198c-.422.07-.98.513-1.551.29-.556-.217-.217-1.101-.15-1.626-.276.492-1.512 1.993-.654 2.151.804.148 2.01-.453 2.355-.815zm9.056.02c-.375-.09-1.453-.067-1.91-.083A24.738 24.738 0 0 1 23.934 9c-.665-.08-.655-.286-.777-1.304-.065-.546-.04-1.3-.121-1.786-.117.65-.157 1.53-.16 2.174-.002.232-.014.815.043.998.133.432.573.19.816.189.208-.002.382.09 1.097.08.586-.01 2.629-.057 2.981-.133zm8.195 9.48c-.31 1.358-.635 2.69-.858 4.091-.167 1.05-.009.973 1.063 1.15.692.115 1.405.166 2.1.216-.22-.14-1.407-.35-1.794-.476-.785-.257-1.077-.192-1.007-1.05.11-1.33.37-2.623.496-3.931zm8.81-1.87c-.04-.46-.633-1.502-.837-1.77-.494-.648-.519-1.833-1.72-3.44-.366-.488-.715-1.069-1.215-1.536l.493.841c.87 1.328 1.363 2.443 1.734 3.988.11.46.24.28.92 1.114.118.146.193.24.3.393.133.19.157.286.325.41zm-7.34-10.88c-.289-.619-2.037-2.216-2.784-2.689-.271-.171-.588-.378-.877-.538-.44-.243-.512-.214-.837-.569-.37-.404-1.079-.906-1.658-1.155.192.165.487.48.654.66 1.047 1.125.388.929 1.363 1.36 1.49.657 2.205 1.268 3.364 2.258.23.197.524.509.775.674zM22.18 28.499l.038.03.037.029.532.285c.203.096.398.19.591.278 3.004 1.364 5.182 1.641 8.422 1.361l-2.82-.354a38.153 38.153 0 0 1-3.522-.732l-3.278-.897zm-6.176-7.217l-.399-4.624a36.002 36.002 0 0 1-.052-2.438c.008-.412.147-2.428.1-2.614-.564.806-.687 4.117-.596 5.259.086 1.086.328 2.356.623 3.387.094.332.268.74.324 1.03zm12.24 3.701c.107.622-.27.66-.64.867l-2.908 1.482c.744-.157 1.695-.55 2.324-.86.834-.412 2.072-.845 1.223-1.489zm6.627-.175c2.103.342 3.282.095 3.663.139l-3.509-.42c-.548-.073-.588-.105-.708-.546-.45.53.074.749.554.827zm-3.921-2.236c-1.068-.331-2.013-.842-2.959-1.278-.874-.403-2.108-1.5-2.635-1.468-.207.445.469 1.591.688 2.016.058.114.077.207.132.32.079.16.123.2.2.33.298.514.543 1.181 1.02 1.835.578.79.502.787-.49 1.338l-2.04 1.07c-.302.145-.846.256-.946.66.537.567 4.32.655 5.08.652.535-.002.677-.089 1.14.199.673.418 1.024.8 1.505 1.303.175.184.426.624.747.605.339-.02.489-.44.655-.791.332-.703.635-1.946.852-2.132.35-.3 1.385-.507 1.897-.687.945-.331 1.892-.666 2.76-1.11.29-.15.697-.259.718-.65-.222-.291-.917-.277-1.353-.315-.387-.033-3.126-.364-3.272-.621-.221-.393 1.628-6.602.314-5.535L30.95 22.57zm-13.32-3.724l1.941-2.567c.32-.388.296-.582.942-.447-.322-.49-.568-.48-.92-.04-.558.693-1.751 2.266-1.962 3.054zm6.796-.141l-.503-1.282c-.223-.628-1.22-3.847-1.07-4.135.105-.098.329-.243.467-.321l1.56-.962c.2-.118 1.905-1.127 2.072-1.337-.286.088-2.06 1.059-2.45 1.27l-1.832.971c-.26.126-.403.197-.353.57.048.36.279 1.048.392 1.405.304.96 1.17 3.257 1.717 3.82zm-1.875-8.627c-.549-.448-.476-.078-.398-1.9.033-.79.09-1.582.164-2.383-.361.712-.518 2.865-.502 3.795.01.549.267.534.736.488zm-5.27 9.478c.463.096.497-.32.905-.843.28-.358.532-.707.79-1.048.252-.334.51-.65.795-.975.857-.978.484-.271 2.94 1.46.384.27 1.878 1.468 2.3 1.314.221-.298-.282-1.127-.401-1.412-.51-1.215-1.1-3.203-1.313-4.474.385-.415 3.6-2.525 4.515-3.029.238-.131.497-.212.54-.597-.497-.453-3.437-.267-4.385-.258-.65.006-.086.105-.826.02-.598-.07-.666.25-.586-2.337.02-.649.224-1.933.025-2.393-.437-.082-.615.28-.841.59-.22.3-.413.591-.614.907-.39.612-.761 1.268-1.123 1.95-.187.353-.334.682-.526 1.028-.244.439-.375.469-.882.532-.66.081-1.704.252-2.232.483-.94.41.28.953 1.062 2.59.197.41.29.591.176 1.162-.247 1.24-.672 4.381-.318 5.33zm.085 1.062c-.111.452.076 1.997.175 2.452.153.695.377 1.53.67 2.09.523.996 3.197 1.886 4.345 2.041-.24-.151-3.586-1.015-4.16-2.221-.496-1.045-1.095-3.282-1.03-4.362zm24.14 2.798c1.502-1.265 2.795-2.345 2.468-4.523-.04-.264-.35-1.81-.563-2.069.033.347.14.667.209 1.013.436 2.223.217 3.105-1.495 4.81l-1.407 1.326.788-.557zm-3.001-10.602c.037-.054.274-.207.4-.217.276-.021 1.139.644 1.367.819l1.377.836-2.303-1.855c-.43-.353-.757-.08-.841.417zm-3.895-2.063l-4.665-.616 4.273.942c1.47.343 1.168.016 1.262 1.801.047.908.201 3.41.176 3.995.061-.281.254-5.435.206-5.62-.115-.448-.692-.427-1.252-.502zm-.184-2.77c.463.008.815-.267.56-.727L33.299 4.32l1.255 2.73c.216.44.27.59-.128.934zm-10.8-4.24c.177-.067.07-.024.216-.127.888-.63 1.832-1.559 3.036-1.96 1.992-.663 2.929.343 4.42.735-.048-.048.008-.009-.1-.08a3.786 3.786 0 0 0-.111-.065c-2.159-1.156-3.927-1.587-5.963.162-.358.308-1.241 1.018-1.498 1.334z" fill="#000"/><path fill-rule="evenodd" clip-rule="evenodd" d="M59.282 37.066a219.718 219.718 0 0 1-58.565 0c.686-4.942 1.36-9.885 2.046-14.827a204.54 204.54 0 0 0 54.45 0l2.07 14.827z" fill="#fff"/><path fill-rule="evenodd" clip-rule="evenodd" d="M59.367 37.694A220.717 220.717 0 0 1 30 39.66 220.68 220.68 0 0 1 .633 37.693L0 37.61l.087-.63c.383-2.754.709-5.122 1.034-7.486.356-2.584.711-5.169 1.013-7.34l.086-.625.628.084a204.15 204.15 0 0 0 54.28 0l.628-.084.087.624 2.07 14.827.087.63-.633.084zM30 38.39c9.541 0 19.074-.623 28.566-1.868L56.67 22.95a205.376 205.376 0 0 1-26.679 1.744A205.66 205.66 0 0 1 3.306 22.95c-.34 2.453-.634 4.582-.927 6.712-.328 2.385-.655 4.768-.946 6.86A219.399 219.399 0 0 0 30 38.393z" fill="#ED1C24"/><path fill-rule="evenodd" clip-rule="evenodd" d="M3.696 26.259l3.271.375c.659.075 1.195.152 1.61.23a4.32 4.32 0 0 1 1.119.36c.33.162.579.393.743.69.166.296.221.676.167 1.143a1.74 1.74 0 0 1-.313.82 1.69 1.69 0 0 1-1.583.686l-.142-.017-.011.1.222.026c.294.034.578.138.85.313.273.174.487.418.641.73.154.313.208.678.16 1.095-.059.506-.21.89-.455 1.157a1.792 1.792 0 0 1-.965.536 4.99 4.99 0 0 1-1.312.099 29.213 29.213 0 0 1-1.877-.166l-.233-.027-2.796-.32.165-1.432.336.039c.186.021.305-.001.358-.065.054-.064.089-.175.107-.335l.47-4.072c.019-.158.01-.276-.028-.35-.036-.075-.146-.123-.334-.145l-.336-.038.166-1.432zm2.874 3.457l.527.06c.512.06.796-.15.85-.627.032-.27-.035-.461-.2-.57-.166-.107-.402-.18-.713-.215l-.304-.035-.16 1.387zm-.35 3.041l.516.06c.567.064.878-.138.932-.608.037-.317-.032-.535-.208-.655-.174-.12-.417-.197-.726-.232l-.344-.04-.17 1.475zm6.308-5.568l-.104 1.438.439.031c.183.014.27.076.262.19a.398.398 0 0 1-.053.164l-.012.03a.349.349 0 0 1-.022.047l-.023.062c-.009.02-.013.035-.018.048l-1.525 3.672c-.11.268-.21.447-.296.537-.088.088-.242.124-.465.108l-.182-.013-.105 1.437 2.929.21.104-1.437-.124-.009c-.113-.008-.19-.058-.227-.15a.634.634 0 0 1-.059-.23l.04-.134 2.47.178c.044.15.064.256.059.32-.009.12-.118.172-.328.157l-.295-.021-.105 1.437 3.793.273.105-1.437-.175-.013a.538.538 0 0 1-.308-.103.48.48 0 0 1-.154-.221 3.09 3.09 0 0 1-.096-.393l-1.272-5.872-4.253-.306zm2.112 2.196l.06.004.481 2.236-1.432-.103.891-2.137zm4.721 3.885l.066-1.71 4.279.162-.066 1.71-4.279-.162zm12.03-5.333l-.031 2.376-1.254-.016a1.783 1.783 0 0 0-.087-.433.323.323 0 0 0-.182-.186 1.254 1.254 0 0 0-.406-.054l-1.447-.018-.018 1.362.91.012a5.75 5.75 0 0 1 1.623.228c.468.143.84.394 1.115.749.274.354.407.832.4 1.438-.007.533-.116.962-.33 1.286a1.91 1.91 0 0 1-.894.724 4.618 4.618 0 0 1-1.328.31 17.42 17.42 0 0 1-1.833.057l-2.987-.038.019-1.44.336.003c.19.003.31-.031.358-.1.049-.069.074-.183.076-.345l.052-4.098c.002-.16-.018-.276-.063-.346-.045-.07-.165-.107-.359-.11l-.48-.006.018-1.44 6.791.085zM27.924 34.2l.204.003c.727.01 1.096-.271 1.103-.844.005-.341-.101-.559-.316-.653a1.96 1.96 0 0 0-.766-.147l-.204-.002-.021 1.643zm5.594-6.31l4.261-.127 1.867 5.712c.05.168.095.296.135.381a.48.48 0 0 0 .177.205c.08.052.184.075.316.071l.175-.005.043 1.44-3.8.114-.044-1.44.295-.01c.211-.006.314-.069.31-.189a1.06 1.06 0 0 0-.09-.312l-2.476.073-.025.138a.65.65 0 0 0 .081.223c.047.087.128.13.242.126l.124-.004.043 1.441-2.935.088-.043-1.441.183-.006c.223-.006.373-.058.451-.154.077-.098.158-.286.24-.565l1.142-3.807.012-.05.017-.064a.372.372 0 0 0 .017-.049.44.44 0 0 1 .01-.03.395.395 0 0 0 .035-.169c-.003-.114-.097-.167-.28-.162l-.44.013-.043-1.44zm2.325 1.97l-.668 2.217 1.436-.043-.708-2.176-.06.002zm5.007 5.72l3.745-.27-.104-1.437-.063.005c-.186.013-.307-.018-.362-.093a.628.628 0 0 1-.097-.326l-.103-1.415 1.74-.125.102 1.415c.012.174-.008.294-.061.36-.053.068-.164.108-.334.12l-.06.004.105 1.438 3.74-.27-.104-1.437-.345.025c-.182.013-.3-.018-.355-.093a.647.647 0 0 1-.095-.326l-.296-4.088a.665.665 0 0 1 .045-.336c.04-.082.154-.13.339-.143l.346-.025-.105-1.438-3.74.27.104 1.437.06-.004c.169-.013.285.011.347.069.062.057.1.175.112.35l.07.965-1.739.125-.07-.966a.673.673 0 0 1 .044-.334c.04-.084.15-.131.33-.144l.06-.004-.104-1.438-3.722.268.104 1.438.337-.025c.17-.012.285.012.348.07.062.057.1.173.112.349l.296 4.088c.013.174-.007.294-.06.36-.054.067-.165.107-.334.12l-.338.024.105 1.437zm11.627-5.938l.213-.023a.504.504 0 0 0 .305-.12c.068-.066.128-.182.18-.352.052-.168.132-.484.242-.945.08-.335.177-.635.289-.896a2.02 2.02 0 0 1 .537-.719c.244-.217.567-.346.966-.39.368-.04.743-.016 1.125.071l.202 1.847a.66.66 0 0 0-.445.23 2.99 2.99 0 0 0-.339.58c-.156.34-.319.603-.488.789-.168.186-.456.334-.864.445l.014.134c.845-.092 1.422.273 1.73 1.093.087.218.165.374.239.468.071.093.19.129.357.11.083-.008.201-.038.35-.092l.244 2.228c-.282.158-.62.261-1.015.304-.377.04-.7.017-.968-.067-.267-.086-.532-.29-.798-.61s-.544-.806-.836-1.456l-.222-.49a1.195 1.195 0 0 0-.164-.25.573.573 0 0 0-.258-.174.981.981 0 0 0-.412-.025l.146 1.332c.018.168.061.284.128.35.07.067.191.091.369.072l.192-.02.157 1.432-3.842.416-.156-1.433.263-.028c.186-.02.304-.07.355-.148.052-.078.069-.202.05-.372l-.44-4.03c-.018-.173-.06-.291-.127-.356-.067-.062-.192-.085-.38-.064l-.263.028-.157-1.433 3.862-.418.157 1.433-.213.023c-.18.02-.294.068-.345.147-.051.077-.069.202-.05.371l.11 1.008z" fill="#000"/><path fill-rule="evenodd" clip-rule="evenodd" d="M48.186 38.202h-6.061v9.707l6.06-5.26v-4.447zm-36.404.194h6.06v9.707l-6.06-5.261v-4.446z" fill="#ED1C24"/></svg>