<svg width="152" height="148" viewBox="0 0 152 148" fill="none" xmlns="http://www.w3.org/2000/svg">
<g opacity="0.3">
<rect width="152" height="148" fill="black" fill-opacity="0"/>
<path fill-rule="evenodd" clip-rule="evenodd" d="M144.935 55.4953L124.459 48.6458L122.07 63.0294L144.935 55.4953Z" fill="white"/>
<path fill-rule="evenodd" clip-rule="evenodd" d="M139.813 54.2584L125.74 49.5509L124.098 59.4366L139.813 54.2584ZM124.965 45.8916L145.335 52.7056C145.852 52.8385 146.291 53.2258 146.468 53.7725C146.744 54.6218 146.281 55.5341 145.434 55.8102L122.569 63.3439C122.331 63.422 122.071 63.4451 121.806 63.4008C120.929 63.2541 120.336 62.4211 120.482 61.5403L122.871 47.1567L122.875 47.1573C122.888 47.0767 122.908 46.9961 122.934 46.9162C123.213 46.0708 124.122 45.6119 124.965 45.8916Z" fill="#DEDDDD"/>
<path fill-rule="evenodd" clip-rule="evenodd" d="M12.0367 54.2584L26.1095 49.5509L27.7513 59.4366L12.0367 54.2584ZM26.8849 45.8916L6.51477 52.7056C5.99809 52.8385 5.55821 53.2258 5.38119 53.7725C5.10601 54.6218 5.56909 55.5341 6.41538 55.8102L29.2802 63.3439C29.5186 63.422 29.7788 63.4451 30.0433 63.4008C30.9208 63.2541 31.5137 62.4211 31.3675 61.5403L28.9786 47.1567L28.9751 47.1573C28.9615 47.0767 28.942 46.9961 28.9155 46.9162C28.6368 46.0708 27.7277 45.6119 26.8849 45.8916Z" fill="#DEDDDD"/>
<path fill-rule="evenodd" clip-rule="evenodd" d="M76.0001 21.3533C57.2654 21.3533 30.3344 23.7032 17.8447 31.5368C17.8447 31.5368 23.1756 86.6669 25.651 96.9469C28.6246 109.297 32.0005 119.272 50.2924 131.414C68.5846 143.556 76.0003 145.906 76.0003 145.906C76.0003 145.906 83.416 143.556 101.708 131.414C120 119.272 123.376 109.297 126.349 96.9469C128.825 86.6669 134.155 31.5368 134.155 31.5368C121.666 23.703 94.7347 21.3533 76.0001 21.3533Z" fill="#ED1C24"/>
<path fill-rule="evenodd" clip-rule="evenodd" d="M75.9996 19.3237C83.9688 19.3237 92.0034 19.7075 99.9313 20.52C106.574 21.2009 113.298 22.1916 119.788 23.7821C125.06 25.074 130.885 26.9228 135.51 29.8238L136.206 30.26L136.127 31.0796C135.03 42.4213 133.85 53.7654 132.587 65.0892C131.861 71.598 131.108 78.1098 130.251 84.6026C129.915 87.1534 129.563 89.7055 129.161 92.2471C128.891 93.9582 128.608 95.7241 128.202 97.4084C127.51 100.284 126.768 103.15 125.805 105.948C124.092 110.927 121.781 115.275 118.471 119.379C114.111 124.785 108.48 129.241 102.726 133.06C98.8189 135.653 94.8561 138.176 90.8183 140.561C88.1583 142.132 85.4564 143.653 82.7034 145.055C81.1698 145.835 79.6057 146.592 78.0173 147.255C77.494 147.473 76.9402 147.702 76.3989 147.873L75.9996 148L75.6004 147.873C75.0591 147.702 74.5052 147.473 73.982 147.255C72.3935 146.592 70.8293 145.836 69.2957 145.055C66.5425 143.653 63.8406 142.133 61.1805 140.561C57.1426 138.176 53.1796 135.654 49.2722 133.06C43.5191 129.241 37.8875 124.785 33.5278 119.379C30.2178 115.275 27.9075 110.928 26.1938 105.948C25.2311 103.15 24.4895 100.284 23.7972 97.4086C23.3917 95.7243 23.1085 93.9586 22.838 92.2473C22.4363 89.7057 22.0845 87.1536 21.748 84.6028C20.8912 78.1098 20.1384 71.598 19.4122 65.0894C18.149 53.7658 16.9684 42.4215 15.8722 31.0798L15.793 30.2602L16.4887 29.824C21.114 26.923 26.939 25.0744 32.2104 23.7825C38.7005 22.192 45.425 21.2013 52.0673 20.5204C59.9952 19.7075 68.0303 19.3237 75.9996 19.3237Z" fill="#DEDDDD"/>
<path fill-rule="evenodd" clip-rule="evenodd" d="M76.0001 21.3533C57.2654 21.3533 30.3344 23.7032 17.8447 31.5368C17.8447 31.5368 23.1756 86.6669 25.651 96.9469C28.6246 109.297 32.0005 119.272 50.2924 131.414C68.5846 143.556 76.0003 145.906 76.0003 145.906C76.0003 145.906 83.416 143.556 101.708 131.414C120 119.272 123.376 109.297 126.349 96.9469C128.825 86.6669 134.155 31.5368 134.155 31.5368C121.666 23.703 94.7347 21.3533 76.0001 21.3533Z" fill="#DEDDDD"/>
<path fill-rule="evenodd" clip-rule="evenodd" d="M75.9997 141.282C75.0436 140.874 73.5529 140.193 71.4798 139.125V100.787C66.6368 100.664 60.5023 100.315 54.0452 99.8405V128.734C53.5908 128.436 53.13 128.132 52.6609 127.821C49.8563 125.959 47.4339 124.165 45.328 122.412V110.255C42.745 110.036 40.2082 109.881 37.6843 109.557H34.493C32.2626 105.312 31.0208 100.906 29.8238 95.9346C28.0117 88.41 24.3212 53.5959 22.3906 33.9236C34.5452 27.8549 58.4048 25.6616 75.9997 25.6616C93.5947 25.6616 117.454 27.8549 129.609 33.9236C127.678 53.5959 123.988 88.41 122.176 95.9346C120.964 100.968 119.706 105.422 117.423 109.716C113.866 109.989 110.184 110.263 106.672 110.511V122.413C104.566 124.165 102.143 125.959 99.3386 127.821C98.8695 128.132 98.4089 128.436 97.9544 128.734V99.9575C91.4971 100.341 85.3627 100.634 80.5199 100.763V139.125C78.4464 140.193 76.9559 140.873 75.9997 141.282Z" fill="white"/>
<rect width="80.4135" height="80.4844" fill="black" fill-opacity="0" transform="translate(35.7783)"/>
<path d="M75.9806 80.4843C98.1173 80.4843 116.063 62.4758 116.063 40.2612C116.063 18.0466 98.1173 0.0380859 75.9806 0.0380859C53.8438 0.0380859 35.8984 18.0466 35.8984 40.2612C35.8984 62.4758 53.8438 80.4843 75.9806 80.4843Z" fill="white"/>
<path fill-rule="evenodd" clip-rule="evenodd" d="M79.7812 80.4687L79.8645 80.4052C72.6291 80.7685 66.1363 79.7886 60.385 77.4657C59.6414 77.1654 58.9101 76.8429 58.1914 76.4975C57.2065 76.0244 56.245 75.5089 55.3067 74.9517C53.9187 74.1274 52.5812 73.2111 51.2952 72.2022C51.066 72.0183 50.8393 71.8327 50.6151 71.6447C49.9727 71.1071 49.3499 70.5527 48.7461 69.9814C48.643 69.884 48.5405 69.7857 48.4387 69.6874C48.2017 69.4584 47.968 69.2268 47.737 68.9925L47.7025 68.9574C47.2406 68.4878 46.7907 68.0074 46.3533 67.5167L46.2284 67.3764C41.9208 62.4993 38.8067 56.587 36.8856 49.639L36.8846 49.6355C36.3907 47.634 36.0623 45.607 35.8991 43.5551C35.7064 41.1346 35.7444 38.6788 36.012 36.1881C36.166 34.7554 36.396 33.3114 36.7024 31.8554C36.8337 31.2312 36.9793 30.6049 37.1384 29.9766C37.2099 29.6947 37.284 29.4123 37.361 29.1296C37.4748 28.7821 37.5908 28.4382 37.7093 28.0977C37.7976 27.8441 37.8871 27.5922 37.9779 27.3423C39.376 23.4966 41.0831 20.1016 43.0996 17.1577C43.6503 16.5218 44.3295 15.5344 44.8418 14.8834C45.5117 14.0319 46.1742 13.2879 46.8691 12.5706C52.7876 6.4615 59.1465 2.88971 67.519 0.941622C82.9201 -2.64213 99.8889 4.2756 108.794 17.0703C109.799 18.5142 110.959 20.3845 111.824 22.1558C115.119 28.9043 117.593 38.4865 115.298 48.5435C114.173 53.4709 112.448 57.8676 110.133 61.5632C109.006 63.3627 107.772 65.0759 106.477 66.5702C105.052 68.2135 102.822 70.1923 102.282 70.8266C101.892 71.1178 101.536 71.4704 101.065 71.7529L100.548 72.2281C100.227 72.6527 100.67 72.4278 100.082 72.7157C99.5977 72.9531 99.9638 72.6267 99.4638 73.0178C99.2038 73.221 99.4018 73.1539 98.9923 73.4009C98.4737 73.7913 97.8497 74.0633 97.4291 74.4682C95.5178 75.2153 93.4566 77.2406 87.5567 78.9507C85.1082 79.6598 82.5395 80.2035 79.7812 80.4687ZM72.8166 54.1107L73.9001 54.5886C74.6024 55.0428 77.6035 56.3622 78.4124 56.0893C78.9221 55.9172 81.0121 53.726 81.5577 53.1801C83.4031 51.333 85.7803 49.1976 87.3735 47.0125L79.3407 53.9014C78.7841 54.3582 78.2048 54.6814 77.224 54.2873C75.659 53.6584 74.388 53.0807 72.9507 52.21L72.6885 52.196C72.4507 51.8278 72.4476 51.9358 72.05 51.7548C69.2216 49.9248 67.5438 48.8678 65.9829 46.4177C64.6347 44.3013 63.61 41.6535 62.8892 38.878C62.6004 37.7662 61.6554 35.7862 62.6277 34.7288C63.259 34.0424 70.5827 27.9286 71.7865 27.246C70.6497 27.4748 60.9372 34.3391 60.6471 34.9559C60.0215 36.2858 62.5809 44.5453 63.6457 46.6776C64.0759 47.539 64.3825 47.9264 64.89 48.644C66.4045 50.7856 70.547 53.4892 72.8166 54.1107ZM99.8443 71.3947C100.199 70.9706 100.397 71.0386 100.71 70.6026C101.576 70.1463 103.904 67.7988 104.771 66.8467C106.342 65.1218 107.429 64.0943 107.673 61.509C106.148 61.6803 102.245 63.859 100.865 63.2045C100.667 62.3027 102.207 61.2467 102.747 60.7016C108.34 55.054 110.701 54.0646 109.86 46.103C109.734 44.9158 109.553 43.7525 109.303 42.6914C109.151 42.0525 108.537 40.1716 108.635 39.8767C109.091 38.5009 110.699 41.0376 111.419 41.9987C111.872 42.6036 113.072 44.6199 113.563 44.9787C114.712 41.1923 115.27 40.0251 114.854 36.0601C114.58 33.4517 113.993 30.5919 113.232 28.2824C112.284 25.4063 110.188 20.6805 108.424 18.4109C107.191 16.8241 106.336 17.1476 104.655 16.5374C104.333 19.1163 103.844 21.4648 102.864 23.7397C102.058 25.6091 101.98 24.9301 102.894 26.3347C103.913 27.9016 110.339 38.2849 108.722 39.207C107.899 39.5111 106.822 38.375 106.283 37.955C105.558 37.3897 104.749 36.8378 103.927 36.3187C103.021 35.7458 99.6114 33.6265 98.416 33.6457C97.8655 33.8014 95.7347 37.6632 95.2993 38.3754L92.1729 43.2198L91.6772 43.9161C91.3433 44.6127 90.4233 45.5771 89.7528 45.5891C89.2094 45.0831 89.2457 44.2856 89.2028 43.3387L89.1864 42.8865C89.3439 40.9626 89.0053 35.1943 88.8652 32.7638C88.8083 31.7753 88.9617 30.1173 88.1762 29.6903C87.5238 29.3357 74.6827 26.5074 73.5426 26.3875C73.5163 26.3549 73.483 26.2638 73.4631 26.2902C73.2622 26.553 73.3323 26.1319 73.3183 26.1161C73.3117 26.1086 73.1581 25.9526 73.1401 25.9324C73.2678 25.1106 73.6672 24.9406 74.2821 24.6315L79.0322 22.6436C81.2427 21.7469 83.2811 20.9309 85.4803 20.0381C87.3067 19.2968 87.064 19.2991 86.3582 17.6515C85.8955 16.5716 85.493 15.6315 84.9568 14.4925C84.4506 13.4174 84.036 12.4026 83.5355 11.3394C83.2345 10.7002 82.0553 8.7556 82.5077 8.10067C83.9323 7.59083 91.393 13.5606 92.5331 14.5015C93.2751 15.1138 94.0411 15.7141 94.744 16.3662C95.7443 17.2946 96.0817 16.6767 97.4525 16.3585C99.3356 15.9214 101.851 15.5233 104.052 15.7854C103.405 12.5174 104.883 13.318 100.479 9.72191C96.2877 6.29911 91.5154 3.94793 86.1025 2.43159C84.6905 2.03612 82.9659 1.57305 81.5678 1.64807C80.6566 1.6967 78.1465 1.86383 77.5857 2.1915L80.183 4.81965C80.8307 5.50137 82.7854 7.22029 82.0354 7.78104C81.4014 8.01762 79.6156 6.92065 78.8548 6.61462C75.5337 5.27942 71.0347 3.91166 67.8753 5.24748C66.0205 6.03182 65.4276 6.60473 63.9151 7.52344C62.9208 8.12767 58.4588 11.7281 57.8776 11.663C57.2654 11.5942 57.7304 11.6978 57.5402 11.4932C57.0395 10.5466 59.871 6.18865 60.3384 5.14938C58.4097 4.97133 57.9825 5.55475 56.7073 6.24038C51.4815 9.04967 46.9057 13.6372 43.4854 18.6308C42.3753 20.2514 41.4127 22.0381 40.5747 23.8444C40.1393 24.7825 40.0424 24.8392 40.3831 25.796C41.1908 28.0625 39.4253 27.7744 38.7967 28.6542C38.3687 29.2528 37.7999 32.3032 37.6198 33.2224C36.2297 40.3177 37.1064 47.6468 39.5027 54.2105C39.9561 55.4517 40.2328 56.6492 41.6269 57.1343C42.5445 55.434 41.968 51.2876 43.7286 50.5012C44.6354 50.8994 44.4243 52.2162 44.5997 53.6301C44.9203 56.214 46.0834 61.6385 47.2743 63.4992C48.689 65.7096 53.8374 67.6251 56.6861 68.4012C57.7866 68.7011 59.7439 68.7979 60.0168 69.8967C59.3137 71.2863 54.6079 70.5008 53.3203 71.1567C53.4546 71.6876 54.4296 72.8262 54.92 73.2429C56.5173 74.6003 61.1307 76.5894 63.1576 77.3017C67.5713 78.8524 72.2706 79.5772 76.8874 79.4791C77.812 79.4593 79.2419 79.5809 79.8434 79.1281C80.5266 78.6138 81.0683 77.497 81.8007 77.218C82.6775 76.8839 83.8115 77.8368 84.8258 78.127C85.9859 78.459 86.8157 77.9665 87.8049 77.6567C90.0099 76.9668 96.2846 74.4128 97.6322 72.8484C98.2308 72.6358 98.6633 72.1958 99.1826 71.871C99.4204 71.5334 99.05 71.8325 99.4535 71.5229C99.7449 71.2995 99.4229 71.397 99.8443 71.3947ZM68.4269 54.797C69.2352 55.1521 69.9217 55.9063 70.8331 56.3993C71.7393 56.8895 72.4973 57.3476 73.4124 57.8672C74.4626 58.4638 77.9068 60.361 79.0909 60.3459C79.4764 60.0636 87.0342 50.4408 87.4324 49.6668L83.1189 54.3603C82.373 55.2042 81.7649 55.9325 81.0176 56.736C80.4796 57.3145 79.5245 58.5732 78.9562 58.974C77.9925 58.9462 73.1826 56.7234 72.2531 56.1915C71.72 55.8863 71.2863 55.7079 70.6944 55.4214C70.1669 55.1665 69.7352 54.8337 69.2313 54.5443L66.257 52.8367C66.4398 53.2198 66.293 53.0509 66.6339 53.3066C66.9803 53.4682 67.4259 53.7956 67.6543 54.0339C67.849 54.2373 67.828 54.2509 68.0523 54.4596C68.2831 54.6748 68.2069 54.5394 68.4269 54.797ZM89.7246 75.5978C88.504 75.579 86.2475 75.9491 85.8292 74.6549C85.3727 73.2431 86.7276 71.893 87.1451 70.8513C86.3169 71.2422 85.5788 72.4732 85.1457 73.2693C84.7613 73.9761 83.9333 75.7766 84.1974 76.6659C84.5395 77.8185 86.2329 77.0432 86.9472 76.7714C87.4614 76.5758 87.8587 76.4342 88.3465 76.2438C88.6564 76.1229 88.7701 76.0891 89.0907 75.9559C89.4554 75.8047 89.4589 75.8061 89.7246 75.5978ZM47.5168 23.47C46.4475 23.6503 45.0336 24.7796 43.5881 24.2106C42.1796 23.6563 43.04 21.4009 43.2098 20.0604C42.5085 21.3162 39.3793 25.1485 41.5524 25.5514C43.5898 25.9292 46.6453 24.3957 47.5168 23.47ZM70.4603 23.5225C69.5103 23.2936 66.7778 23.3513 65.62 23.3097C64.017 23.2517 62.1922 23.1537 60.6341 22.9647C58.9481 22.7602 58.9726 22.2362 58.6656 19.6383C58.5009 18.2446 58.5645 16.3225 58.3575 15.0806C58.0622 16.7408 57.9593 18.985 57.9503 20.6287C57.947 21.221 57.9174 22.7087 58.0606 23.1751C58.3996 24.2774 59.5133 23.6616 60.1293 23.6561C60.6565 23.6511 61.0954 23.8875 62.9074 23.8603C64.3922 23.838 69.5668 23.716 70.4603 23.5225ZM91.2203 47.7121C90.4333 51.1776 89.6117 54.5775 89.0474 58.1522C88.6249 60.8284 89.0246 60.6338 91.7398 61.0862C93.493 61.3784 95.2999 61.5094 97.0613 61.6383C96.5 61.2776 93.4958 60.7457 92.5142 60.4222C90.5251 59.7666 89.7854 59.9327 89.9647 57.7437C90.243 54.3496 90.8997 51.0508 91.2203 47.7121ZM113.538 42.9428C113.44 41.7659 111.935 39.1074 111.418 38.4238C110.168 36.7707 110.104 33.7458 107.062 29.6481C106.135 28.3997 105.25 26.9188 103.983 25.7262L105.232 27.8727C107.434 31.2609 108.685 34.1073 109.625 38.0477C109.905 39.2214 110.232 38.7614 111.954 40.891C112.256 41.2643 112.445 41.5035 112.718 41.8951C113.054 42.3775 113.113 42.624 113.538 42.9428ZM94.9434 15.18C94.2123 13.5981 89.7852 9.52407 87.8906 8.31685C87.2043 7.87934 86.4015 7.35157 85.67 6.94435C84.5564 6.32425 84.3719 6.39679 83.5501 5.49189C82.6139 4.46087 80.816 3.17925 79.3497 2.54349C79.835 2.96431 80.5839 3.77111 81.0049 4.22655C83.6589 7.0985 81.989 6.59751 84.4588 7.69655C88.2333 9.37611 90.0458 10.9335 92.981 13.4606C93.5655 13.9641 94.3084 14.7581 94.9434 15.18ZM56.1897 72.7198C56.2201 72.7468 56.261 72.7778 56.285 72.7959C56.3087 72.8134 56.3499 72.8486 56.3789 72.8697L57.7283 73.5971C58.2409 73.8428 58.7343 74.0816 59.2254 74.3063C66.8347 77.7876 72.3515 78.4946 80.5605 77.7791L73.4171 76.8769C70.4971 76.3937 67.3288 75.7688 64.4936 75.0088L56.1897 72.7198ZM40.5439 54.303L39.5339 42.5051C39.4351 40.4719 39.3614 38.3534 39.4015 36.282C39.4216 35.2327 39.774 30.0875 39.6526 29.6135C38.2258 31.6687 37.9145 40.117 38.1443 43.0314C38.3628 45.8036 38.9747 49.043 39.7216 51.6761C39.9615 52.5212 40.4022 53.5615 40.5439 54.303ZM71.5504 63.7475C71.8223 65.3343 70.8676 65.432 69.9301 65.9604L62.5626 69.7418C64.4487 69.3414 66.8573 68.34 68.4501 67.5476C70.5642 66.4962 73.7011 65.3912 71.5504 63.7475ZM88.3395 63.3009C93.6667 64.1739 96.6543 63.542 97.6209 63.6554L88.7313 62.5825C87.3408 62.3962 87.2394 62.3167 86.9377 61.1911C85.7982 62.5411 87.1229 63.1016 88.3395 63.3009ZM78.4065 57.5941C75.7023 56.7496 73.306 55.4461 70.9107 54.3335C68.6971 53.3052 65.5699 50.5074 64.2357 50.5876C63.7102 51.7239 65.4231 54.6488 65.978 55.7332C66.1258 56.0221 66.1722 56.2599 66.3137 56.5499C66.5121 56.9569 66.6236 57.0585 66.8169 57.3928C67.5732 58.7024 68.196 60.4057 69.4054 62.0733C70.868 64.0896 70.6743 64.0811 68.1615 65.4881L62.9937 68.2182C62.2291 68.5885 60.8516 68.8705 60.5967 69.8996C61.9581 71.3492 71.5413 71.5724 73.467 71.5658C74.8219 71.5611 75.1826 71.3393 76.3549 72.073C78.06 73.1396 78.9499 74.1125 80.1674 75.3985C80.6116 75.8677 81.2476 76.9915 82.0596 76.9416C82.9176 76.8891 83.2979 75.8187 83.7185 74.9233C84.5596 73.1308 85.3283 69.9573 85.8778 69.4833C86.7656 68.7178 89.3854 68.1902 90.6843 67.7312C93.0781 66.8851 95.4767 66.0305 97.6759 64.8964C98.4103 64.5176 99.4416 64.2375 99.4944 63.2379C98.9317 62.4966 97.1707 62.5312 96.0665 62.436C95.0865 62.3515 88.1464 61.5064 87.7789 60.8506C87.2166 59.8472 91.9014 44.0047 88.5732 46.7266L78.4065 57.5941ZM44.665 48.0923L49.5803 41.541C50.3923 40.5518 50.3309 40.0572 51.967 40.4018C51.1511 39.1528 50.5272 39.1789 49.6347 40.2975C48.2229 42.0669 45.1998 46.0808 44.665 48.0923ZM61.8782 47.7315L60.606 44.4604C60.0408 42.8575 57.5147 34.6449 57.895 33.9096C58.1604 33.6597 58.7274 33.2895 59.0783 33.0903L63.0274 30.6362C63.5362 30.335 67.8556 27.7604 68.2796 27.2248C67.5529 27.4494 63.0578 29.9255 62.0704 30.4664L57.4295 32.9433C56.7721 33.2652 56.4095 33.446 56.5356 34.3968C56.6576 35.3174 57.242 37.0707 57.5291 37.9826C58.3004 40.4344 60.4912 46.293 61.8782 47.7315ZM57.1303 25.7181C55.7394 24.5748 55.9242 25.5199 56.1201 20.8699C56.2051 18.8542 56.3483 16.8331 56.5356 14.7894C55.6213 16.6067 55.2237 22.1016 55.2656 24.473C55.2905 25.8735 55.9413 25.836 57.1303 25.7181ZM43.7799 49.905C44.9507 50.1482 45.0369 49.0894 46.0715 47.7538C46.779 46.8402 47.4181 45.9485 48.0709 45.0788C48.7108 44.2263 49.3644 43.4221 50.0877 42.5906C52.2584 40.0945 51.3119 41.8992 57.5344 46.3147C58.5082 47.0057 62.2916 50.0625 63.3603 49.6684C63.9217 48.908 62.6468 46.7932 62.3443 46.0672C61.0518 42.9657 59.5595 37.8922 59.02 34.6491C59.9957 33.5902 68.1377 28.2061 70.4573 26.921C71.0614 26.5863 71.7153 26.3799 71.8239 25.3975C70.5659 24.2426 63.1192 24.717 60.7167 24.7392C59.0697 24.7547 60.4974 25.0067 58.623 24.7889C57.1085 24.6127 56.936 25.43 57.1389 18.8257C57.1896 17.1709 57.7069 13.8946 57.2028 12.7198C56.0955 12.5102 55.6455 13.4349 55.0714 14.226C54.5146 14.9928 54.0249 15.7349 53.5158 16.5399C52.5276 18.1018 51.5887 19.7764 50.6722 21.5182C50.1992 22.4169 49.8269 23.2565 49.3396 24.1383C48.7206 25.2584 48.3884 25.3358 47.1059 25.4958C45.4349 25.7041 42.7886 26.1402 41.4499 26.7285C39.0704 27.7744 42.1613 29.1611 44.1416 33.3361C44.6398 34.3865 44.8745 34.8471 44.5866 36.3022C43.9602 39.4672 42.8854 47.4828 43.7799 49.905ZM43.9937 52.6131C43.7119 53.7676 44.1853 57.7097 44.4385 58.871C44.8254 60.6433 45.3914 62.7748 46.1352 64.2023C47.4606 66.746 54.2331 69.0172 57.1424 69.4125C56.5325 69.0258 48.0573 66.8226 46.605 63.7442C45.3472 61.0783 43.8298 55.3707 43.9937 52.6131ZM105.149 59.7526C108.954 56.525 112.23 53.7691 111.401 48.2115C111.301 47.5378 110.512 43.5924 109.974 42.9333C110.059 43.8184 110.332 44.6341 110.503 45.5172C111.608 51.1891 111.055 53.4408 106.716 57.7899L103.153 61.175L105.149 59.7526ZM97.5451 32.7001C97.6392 32.5621 98.2394 32.1716 98.5594 32.1466C99.258 32.0926 101.445 33.7901 102.022 34.2361L105.511 36.37L99.6773 31.6353C98.5867 30.7354 97.7579 31.4313 97.5451 32.7001ZM87.6786 27.435L75.86 25.8644L86.6868 28.269C90.4097 29.143 89.6458 28.3082 89.8823 32.8646C90.0025 35.1799 90.3927 41.5649 90.329 43.0572C90.483 42.34 90.9726 29.1881 90.8518 28.7176C90.5584 27.5745 89.0981 27.6279 87.6786 27.435ZM87.2123 20.3701C88.3855 20.3878 89.2778 19.6853 88.6307 18.5133L84.358 11.0204L87.5382 17.9886C88.0842 19.1099 88.2216 19.491 87.2123 20.3701ZM59.8517 9.54695C60.3 9.37714 60.03 9.48821 60.3986 9.22525C62.6497 7.61885 65.0407 5.24665 68.0905 4.22367C73.1368 2.53133 75.5105 5.09951 79.2871 6.09983C79.1669 5.97536 79.3097 6.07634 79.0367 5.89375C79.003 5.87129 78.7876 5.74661 78.7533 5.72806C73.2846 2.77822 68.8066 1.6796 63.6478 6.14187C62.7405 6.92683 60.5027 8.74076 59.8517 9.54695Z" fill="#DEDDDD"/>
<path fill-rule="evenodd" clip-rule="evenodd" d="M150.181 94.5828C100.845 101.251 51.1512 101.252 1.81543 94.5828C3.5542 81.9729 5.26114 69.3589 6.9993 56.7488C52.8738 62.9392 99.0658 62.9425 144.94 56.7488C146.687 69.3601 148.434 81.9717 150.181 94.5828Z" fill="white"/>
<path fill-rule="evenodd" clip-rule="evenodd" d="M150.397 96.1835C125.634 99.5303 100.805 101.204 75.9977 101.204C51.192 101.204 26.3635 99.5305 1.60241 96.1835L0 95.9671L0.221377 94.3611C1.19026 87.334 2.01601 81.2911 2.83991 75.2581C3.74061 68.6639 4.64131 62.0695 5.40525 56.5271L5.62498 54.9331L7.21508 55.1476C30.0614 58.2304 53.0097 59.7727 75.9803 59.7727C98.9447 59.7727 121.887 58.2314 144.727 55.1476L146.316 54.9331L146.537 56.5269L151.778 94.3609L152 95.9667L150.397 96.1835ZM75.9975 97.9641C100.169 97.9641 124.319 96.3743 148.364 93.1958L143.566 58.5614C121.066 61.5291 98.5122 63.0127 75.9803 63.0127C53.4428 63.0127 30.8833 61.5283 8.37679 58.5616C7.5151 64.8203 6.77273 70.2544 6.03057 75.6886C5.19927 81.7756 4.3688 87.855 3.63362 93.1958C27.6778 96.3743 51.827 97.9641 75.9975 97.9641Z" fill="#DEDDDD"/>
<path fill-rule="evenodd" clip-rule="evenodd" d="M9.36315 67.0059L17.6514 67.9621C19.3194 68.1546 20.6792 68.3499 21.7311 68.5484C22.7786 68.7464 23.7229 69.0529 24.5636 69.4681C25.4 69.8826 26.0303 70.4711 26.4461 71.2277C26.8665 71.9848 27.0065 72.9552 26.8702 74.1445C26.7819 74.9151 26.5157 75.6124 26.0761 76.2365C25.6319 76.8601 25.0581 77.3289 24.35 77.6473C23.6461 77.9661 22.8834 78.0807 22.0666 77.9863L21.7075 77.9449L21.6781 78.2016L22.2424 78.2668C22.9866 78.3525 23.7058 78.6187 24.3958 79.0647C25.0856 79.5107 25.6296 80.1326 26.0194 80.9295C26.4092 81.7265 26.5449 82.6579 26.4229 83.7236C26.2753 85.0128 25.8898 85.995 25.2702 86.6755C24.6501 87.3607 23.8352 87.8161 22.8259 88.042C21.812 88.2673 20.7061 88.3517 19.5038 88.2949C18.3014 88.2382 16.714 88.0985 14.7468 87.8714L14.1566 87.8034L7.07422 86.9865L7.49274 83.3329L8.34395 83.4312C8.81443 83.4853 9.11549 83.4287 9.25123 83.2661C9.38676 83.1033 9.47568 82.8195 9.52251 82.4104L10.7128 72.0204C10.7592 71.6161 10.7374 71.3148 10.6419 71.1252C10.5509 70.9365 10.2704 70.8126 9.79584 70.7578L8.94463 70.6597L9.36315 67.0059ZM16.6462 75.8284L17.9806 75.9824C19.2764 76.1318 19.9962 75.5978 20.1357 74.3801C20.2147 73.6903 20.0451 73.2031 19.626 72.9282C19.2068 72.6533 18.6084 72.4687 17.8215 72.3778L17.0516 72.289L16.6462 75.8284ZM15.7572 83.5874L17.0659 83.7382C18.5028 83.9041 19.29 83.3877 19.4274 82.1887C19.52 81.38 19.3452 80.8248 18.8994 80.518C18.4579 80.2115 17.8434 80.0152 17.0608 79.9249L16.1882 79.8243L15.7572 83.5874ZM31.7394 69.3797L31.4754 73.048L32.5874 73.1285C33.0511 73.1621 33.2727 73.3223 33.2517 73.6137C33.2421 73.7474 33.1973 73.8882 33.118 74.0314C33.1078 74.0545 33.0975 74.078 33.0866 74.1058C33.0761 74.1338 33.0605 74.1711 33.0305 74.2265C33.009 74.2873 32.988 74.3387 32.9716 74.3854C32.9507 74.4367 32.9394 74.4743 32.9283 74.5072L29.064 83.8771C28.786 84.5627 28.5328 85.0198 28.3134 85.2486C28.0902 85.4724 27.6994 85.5641 27.1369 85.5233L26.6735 85.4897L26.4094 89.1577L33.8288 89.6958L34.0929 86.0276L33.7793 86.0047C33.4916 85.9839 33.2981 85.8547 33.2024 85.622C33.103 85.3844 33.0566 85.1888 33.0548 85.0353L33.1529 84.6917L39.4131 85.1455C39.5236 85.528 39.5733 85.8005 39.5614 85.9629C39.5394 86.2687 39.2619 86.402 38.7297 86.3635L37.9826 86.3093L37.7185 89.9775L47.3276 90.6743L47.5917 87.0062L47.1496 86.9741C46.8146 86.9498 46.5577 86.864 46.37 86.7111C46.1869 86.5586 46.0536 86.3713 45.9792 86.1452C45.9006 85.9186 45.8211 85.5816 45.7363 85.1435L42.512 70.1606L31.7394 69.3797ZM37.0892 74.9816L37.2396 74.9923L38.4602 80.6981L34.8322 80.4351L37.0892 74.9816ZM49.0498 84.8952L49.2159 80.5312L60.056 80.9468L59.8898 85.3108L49.0498 84.8952ZM79.5227 71.2889L79.4457 77.3507L76.269 77.3101C76.215 76.8067 76.1423 76.437 76.0505 76.2057C75.9587 75.9795 75.8057 75.8195 75.5874 75.7305C75.3689 75.6462 75.0295 75.5988 74.5602 75.5929L70.893 75.5461L70.8488 79.0223L73.1517 79.0517C74.7099 79.0715 76.0807 79.2663 77.2642 79.6358C78.4522 80.0005 79.3911 80.6398 80.0901 81.5445C80.7845 82.449 81.1221 83.6696 81.1024 85.2162C81.0851 86.5762 80.8087 87.6692 80.2688 88.4956C79.7287 89.3267 78.9718 89.9396 78.0023 90.3439C77.0328 90.7483 75.9101 91.0116 74.6385 91.1343C73.3628 91.2569 71.8164 91.3041 69.9957 91.2808L62.4285 91.1841L62.4751 87.5068L63.3273 87.5177C63.8095 87.5239 64.1118 87.4368 64.2346 87.2612C64.3574 87.0856 64.4213 86.7942 64.4266 86.3824L64.5593 75.9249C64.5644 75.5178 64.5122 75.2203 64.3985 75.0416C64.2845 74.8629 63.98 74.7681 63.4894 74.7619L62.2712 74.7465L62.3178 71.069L79.5227 71.2889ZM70.7441 87.2676L71.2605 87.2742C73.1028 87.2976 74.0376 86.5817 74.0561 85.1212C74.0672 84.2499 73.7988 83.6956 73.255 83.454C72.7069 83.2123 72.0627 83.0893 71.3137 83.0796L70.7973 83.073L70.7441 87.2676ZM84.9155 71.1664L95.7114 70.8423L100.44 85.4176C100.569 85.8448 100.682 86.172 100.783 86.3892C100.88 86.6067 101.032 86.7793 101.23 86.9125C101.432 87.0454 101.696 87.1043 102.032 87.0944L102.475 87.081L102.585 90.7571L92.9546 91.0463L92.845 87.3702L93.5937 87.3477C94.1272 87.3316 94.3895 87.1705 94.3802 86.8643C94.3755 86.7014 94.2987 86.4356 94.1498 86.0665L87.8763 86.2549L87.8135 86.6064C87.8309 86.7594 87.8969 86.949 88.0199 87.1752C88.1386 87.3968 88.3441 87.5054 88.6325 87.4969L88.9464 87.4874L89.0561 91.1635L81.6207 91.3867L81.511 87.7106L81.9757 87.6966C82.5395 87.6797 82.919 87.5484 83.1184 87.303C83.3132 87.0528 83.5186 86.5724 83.7258 85.8619L86.6187 76.1458C86.6265 76.112 86.6337 76.0734 86.6495 76.0203C86.661 75.972 86.6766 75.9189 86.692 75.8562C86.7162 75.7979 86.728 75.7594 86.7356 75.7303C86.7434 75.7013 86.7512 75.6772 86.7592 75.653C86.8234 75.5026 86.8538 75.3579 86.8495 75.2238C86.8409 74.9318 86.6041 74.7953 86.1396 74.8091L85.0251 74.8425L84.9155 71.1664ZM90.8062 76.1923L89.1144 81.8484L92.7505 81.7392L90.9571 76.1878L90.8062 76.1923ZM103.49 90.7889L112.979 90.1008L112.715 86.4325L112.556 86.4441C112.084 86.4783 111.776 86.4 111.637 86.2083C111.498 86.0166 111.418 85.7393 111.392 85.3761L111.132 81.7654L115.537 81.446L115.797 85.0567C115.829 85.501 115.777 85.8073 115.643 85.9754C115.508 86.1483 115.227 86.2505 114.797 86.2817L114.647 86.2926L114.911 89.9608L124.387 89.2738L124.123 85.6055L123.247 85.669C122.788 85.7024 122.489 85.6232 122.349 85.4318C122.215 85.2399 122.134 84.9625 122.108 84.5994L121.357 74.1682C121.331 73.8051 121.371 73.5191 121.472 73.3101C121.574 73.1009 121.863 72.9793 122.331 72.9453L123.207 72.8819L122.943 69.2136L113.466 69.9007L113.731 73.5689L113.881 73.558C114.31 73.5269 114.604 73.5871 114.761 73.7342C114.918 73.8812 115.013 74.1816 115.045 74.6257L115.223 77.0902L110.817 77.4097L110.64 74.9452C110.614 74.5919 110.65 74.3059 110.751 74.0922C110.852 73.8783 111.133 73.7573 111.588 73.7243L111.738 73.7136L111.474 70.0454L102.045 70.7289L102.31 74.3972L103.164 74.3351C103.593 74.304 103.887 74.3644 104.044 74.5113C104.202 74.6583 104.296 74.954 104.328 75.4029L105.079 85.8341C105.111 86.2784 105.06 86.5844 104.926 86.7528C104.791 86.9257 104.51 87.0277 104.08 87.0588L103.226 87.1208L103.49 90.7889ZM132.945 75.6357L133.484 75.577C133.827 75.5397 134.084 75.4393 134.257 75.2712C134.429 75.103 134.583 74.8069 134.714 74.3735C134.845 73.945 135.048 73.1376 135.327 71.9607C135.529 71.1054 135.775 70.3415 136.058 69.675C136.345 69.003 136.798 68.3901 137.419 67.8407C138.038 67.2866 138.856 66.9566 139.866 66.8466C140.799 66.7448 141.749 66.8049 142.717 67.0269L143.227 71.74C142.733 71.8084 142.36 72.0031 142.1 72.3252C141.84 72.6473 141.556 73.1409 141.243 73.8061C140.847 74.6729 140.435 75.3439 140.006 75.8195C139.581 76.2946 138.851 76.6729 137.816 76.9542L137.854 77.2969C139.994 77.0635 141.454 77.9929 142.235 80.085C142.455 80.6437 142.654 81.0412 142.84 81.2809C143.022 81.5165 143.322 81.609 143.746 81.5628C143.955 81.5399 144.254 81.4639 144.634 81.3262L145.249 87.0104C144.535 87.4157 143.68 87.6775 142.679 87.7867C141.725 87.8907 140.904 87.831 140.227 87.6158C139.549 87.3959 138.878 86.8766 138.205 86.0589C137.532 85.2412 136.826 84.003 136.088 82.3447C135.814 81.7341 135.626 81.3209 135.524 81.096C135.418 80.8764 135.282 80.6647 135.108 80.4574C134.939 80.2542 134.719 80.1048 134.454 80.0133C134.185 79.9224 133.84 79.902 133.412 79.9488L133.78 83.3479C133.827 83.7763 133.937 84.0727 134.107 84.2421C134.281 84.4109 134.591 84.4733 135.04 84.4245L135.528 84.3711L135.924 88.0274L126.192 89.0887L125.796 85.4324L126.464 85.3597C126.935 85.3083 127.233 85.1843 127.362 84.9823C127.493 84.7851 127.536 84.4673 127.489 84.0341L126.376 73.7513C126.328 73.3087 126.221 73.0072 126.052 72.8425C125.883 72.6828 125.565 72.6259 125.09 72.6776L124.423 72.7504L124.027 69.0943L133.81 68.0274L134.206 71.6835L133.667 71.7424C133.213 71.7919 132.923 71.9149 132.794 72.1169C132.663 72.3141 132.62 72.6319 132.667 73.0651L132.945 75.6357Z" fill="#DEDDDD"/>
<path fill-rule="evenodd" clip-rule="evenodd" d="M122.07 97.481H106.717V122.25L122.07 108.826V97.481Z" fill="#DEDDDD"/>
<path fill-rule="evenodd" clip-rule="evenodd" d="M29.8486 97.9761H45.2021V122.745L29.8486 109.321V97.9761Z" fill="#DEDDDD"/>
</g>
</svg>
