<svg width="60" height="58" viewBox="0 0 60 58" fill="none" xmlns="http://www.w3.org/2000/svg">
<path fill-rule="evenodd" clip-rule="evenodd" d="M9.0256 2.68427L0.943002 0L0 5.63683L9.0256 2.68427Z" transform="translate(48.1855 19.064)" fill="white"/>
<path fill-rule="evenodd" clip-rule="evenodd" d="M7.63934 3.31104L2.08427 1.46621L1.43618 5.34034L7.63934 3.31104ZM1.77818 0.0321275L9.81903 2.7025C10.023 2.7546 10.1966 2.90635 10.2665 3.12061C10.3751 3.45342 10.1923 3.81096 9.85827 3.91918L0.832667 6.87157C0.738553 6.90218 0.635846 6.91123 0.531438 6.89386C0.185057 6.83636 -0.0489709 6.50993 0.00874574 6.16475L0.951747 0.527922L0.953128 0.528164C0.958478 0.496587 0.966177 0.465009 0.976634 0.433674C1.08664 0.10239 1.4455 -0.0774658 1.77818 0.0321275Z" transform="translate(47.5498 18.4316)" fill="#ED1C24"/>
<path fill-rule="evenodd" clip-rule="evenodd" d="M22.9561 0C15.5608 0 4.93015 0.920924 0 3.99083C0 3.99083 2.10431 25.5959 3.08144 29.6245C4.25522 34.4646 5.58781 38.3737 12.8083 43.132C20.0289 47.8903 22.9561 48.8113 22.9561 48.8113C22.9561 48.8113 25.8834 47.8903 33.1038 43.132C40.3244 38.3737 41.657 34.4646 42.8308 29.6245C43.8079 25.5959 45.912 3.99083 45.912 3.99083C40.982 0.920843 30.3513 0 22.9561 0Z" transform="translate(7.04395 8.36816)" fill="#ED1C24"/>
<path fill-rule="evenodd" clip-rule="evenodd" d="M23.7658 0C26.9115 0 30.0831 0.150378 33.2125 0.46882C35.8346 0.735656 38.489 1.12388 41.0509 1.74719C43.1317 2.25349 45.4311 2.978 47.2568 4.11488L47.5314 4.28585L47.5001 4.60704C47.0674 9.05175 46.6015 13.4974 46.1029 17.9351C45.8163 20.4859 45.5191 23.0378 45.1809 25.5822C45.0481 26.5819 44.9092 27.5821 44.7506 28.5781C44.6439 29.2487 44.5321 29.9407 44.372 30.6008C44.0987 31.7275 43.806 32.8509 43.4259 33.9474C42.7495 35.8987 41.8376 37.6025 40.5309 39.2108C38.8099 41.3293 36.5869 43.0756 34.3159 44.5722C32.7734 45.5886 31.2091 46.5772 29.6153 47.5119C28.5653 48.1277 27.4987 48.7236 26.412 49.2729C25.8066 49.5789 25.1893 49.8752 24.5622 50.1351C24.3557 50.2207 24.1371 50.3103 23.9234 50.3776L23.7658 50.4271L23.6082 50.3776C23.3945 50.3103 23.1759 50.2207 22.9693 50.1351C22.3423 49.8753 21.7249 49.579 21.1195 49.273C20.0327 48.7236 18.9662 48.1279 17.9161 47.5121C16.3222 46.5773 14.7579 45.5888 13.2155 44.5723C10.9445 43.0757 8.72153 41.3294 7.00057 39.2109C5.694 37.6025 4.78205 35.8988 4.10558 33.9474C3.72556 32.851 3.43284 31.7276 3.15958 30.6008C2.99948 29.9408 2.8877 29.2488 2.78094 28.5782C2.62238 27.5821 2.48352 26.582 2.35066 25.5823C2.01246 23.0378 1.71529 20.4859 1.42865 17.9352C0.930032 13.4976 0.464003 9.05183 0.0312903 4.60712L0 4.28593L0.27464 4.11496C2.10041 2.97808 4.39976 2.25365 6.48055 1.74736C9.04246 1.12404 11.6969 0.735818 14.3188 0.468982C17.4483 0.150378 20.62 0 23.7658 0Z" transform="translate(6.23438 7.57275)" fill="black"/>
<path fill-rule="evenodd" clip-rule="evenodd" d="M22.9561 0C15.5608 0 4.93015 0.920924 0 3.99083C0 3.99083 2.10431 25.5959 3.08144 29.6245C4.25522 34.4646 5.58781 38.3737 12.8083 43.132C20.0289 47.8903 22.9561 48.8113 22.9561 48.8113C22.9561 48.8113 25.8834 47.8903 33.1038 43.132C40.3244 38.3737 41.657 34.4646 42.8308 29.6245C43.8079 25.5959 45.912 3.99083 45.912 3.99083C40.982 0.920843 30.3513 0 22.9561 0Z" transform="translate(7.04395 8.36816)" fill="#ED1C24"/>
<path fill-rule="evenodd" clip-rule="evenodd" d="M21.1615 45.3106C20.7841 45.1507 20.1956 44.8839 19.3773 44.4655V29.4412C17.4656 29.3927 15.0441 29.2562 12.4952 29.0701V40.3933C12.3159 40.2763 12.1339 40.1573 11.9488 40.0352C10.8417 39.3057 9.88551 38.6028 9.05422 37.9158V33.1513C8.03461 33.0658 7.03324 33.0049 6.03698 32.8779H4.77727C3.89685 31.2141 3.40666 29.4876 2.93415 27.5394C2.21885 24.5906 0.76207 10.9472 0 3.23781C4.79786 0.859545 14.2161 0 21.1615 0C28.1069 0 37.5251 0.859545 42.3229 3.23781C41.561 10.9472 40.1041 24.5906 39.3888 27.5394C38.9105 29.512 38.414 31.2574 37.5128 32.9403C36.1086 33.0472 34.6553 33.1547 33.2689 33.2517V37.9159C32.4376 38.6029 31.4813 39.3058 30.3742 40.0353C30.189 40.1574 30.0072 40.2765 29.8278 40.3933V29.116C27.2789 29.2663 24.8574 29.3809 22.9458 29.4317V44.4654C22.1273 44.8839 21.5389 45.1506 21.1615 45.3106Z" transform="translate(8.83887 10.0566)" fill="white"/>
<path d="M15.8219 31.5262C24.5601 31.5262 31.6438 24.4688 31.6438 15.7631C31.6438 7.05738 24.5601 0 15.8219 0C7.0837 0 0 7.05738 0 15.7631C0 24.4688 7.0837 31.5262 15.8219 31.5262Z" transform="translate(14.1709 0.015625)" fill="white"/>
<path fill-rule="evenodd" clip-rule="evenodd" d="M16.7956 0C26.3284 8.02632 24.3217 27.6278 7.66529 26.0729C6.20364 26.0966 1.34678 23.875 0 23.5141C2.81741 27.7339 7.64623 30.4848 13.0757 30.3965C21.5769 30.2583 28.3798 23.2114 28.2401 14.6881C28.1244 7.62986 23.284 1.73855 16.7956 0Z" transform="translate(17.5518 1.05762)" fill="#D1D3D4"/>
<path fill-rule="evenodd" clip-rule="evenodd" d="M17.3695 31.535L17.4025 31.5102C14.5464 31.6525 11.9834 31.2685 9.71317 30.3582C9.41964 30.2405 9.13098 30.1141 8.84726 29.9788C8.45848 29.7933 8.07895 29.5913 7.70857 29.373C7.16067 29.0499 6.63271 28.6909 6.12509 28.2954C6.03463 28.2234 5.94513 28.1506 5.85661 28.077C5.60305 27.8663 5.35719 27.649 5.11886 27.4252C5.07817 27.387 5.03772 27.3484 4.99751 27.3099C4.90397 27.2202 4.81172 27.1294 4.72052 27.0376L4.7069 27.0239C4.52459 26.8398 4.34698 26.6515 4.17432 26.4593L4.12503 26.4043C2.42466 24.493 1.19543 22.176 0.437088 19.4531L0.436683 19.4517C0.241727 18.6674 0.112107 17.873 0.0476625 17.0689C-0.0283743 16.1203 -0.0133775 15.1579 0.0922472 14.1818C0.153044 13.6204 0.243834 13.0545 0.36478 12.4839C0.416579 12.2393 0.474052 11.9938 0.536876 11.7476C0.565086 11.6371 0.594349 11.5265 0.624748 11.4157C0.669657 11.2795 0.715457 11.1447 0.76223 11.0113C0.797087 10.9119 0.83243 10.8132 0.86826 10.7152C1.42013 9.20812 2.09401 7.87765 2.88996 6.72397C3.10737 6.47474 3.37545 6.08782 3.5777 5.83269C3.84212 5.49898 4.10363 5.20743 4.37795 4.9263C6.71418 2.53221 9.22428 1.13245 12.5292 0.369014C18.6086 -1.03543 25.3068 1.67557 28.8222 6.68973C29.2188 7.25555 29.6767 7.98854 30.0181 8.68268C31.3188 11.3274 32.2954 15.0825 31.3892 19.0238C30.9453 20.9548 30.2644 22.6778 29.3506 24.1261C28.9056 24.8313 28.4185 25.5027 27.9072 26.0883C27.345 26.7323 26.4644 27.5078 26.2516 27.7564C26.0976 27.8705 25.9568 28.0087 25.771 28.1194L25.5672 28.3056C25.4404 28.472 25.6152 28.3839 25.3832 28.4967C25.1918 28.5897 25.3364 28.4618 25.139 28.6151C25.0364 28.6947 25.1145 28.6684 24.9529 28.7652C24.7482 28.9182 24.5018 29.0248 24.3358 29.1835C23.5814 29.4763 22.7677 30.27 20.4388 30.9401C19.4723 31.218 18.4584 31.4311 17.3695 31.535ZM14.6204 21.2056L15.0481 21.3928C15.3253 21.5708 16.51 22.0879 16.8293 21.9809C17.0305 21.9135 17.8554 21.0548 18.0708 20.8408C18.7992 20.117 19.7376 19.2801 20.3665 18.4238L17.1957 21.1235C16.976 21.3026 16.7473 21.4292 16.3601 21.2748C15.7424 21.0283 15.2407 20.8019 14.6733 20.4607L14.5698 20.4552C14.4759 20.3109 14.4747 20.3532 14.3178 20.2823C13.2013 19.5651 12.539 19.1509 11.9229 18.1907C11.3907 17.3613 10.9862 16.3237 10.7016 15.236C10.5877 14.8003 10.2146 14.0243 10.5985 13.6099C10.8476 13.3409 13.7386 10.945 14.2138 10.6775C13.765 10.7671 9.93115 13.4572 9.81661 13.6989C9.56969 14.2201 10.58 17.4569 11.0003 18.2926C11.1701 18.6302 11.2911 18.782 11.4914 19.0632C12.0893 19.9025 13.7245 20.962 14.6204 21.2056ZM25.2892 27.979C25.4291 27.8128 25.5074 27.8395 25.6308 27.6686C25.9729 27.4898 26.8919 26.5698 27.2341 26.1967C27.8543 25.5207 28.2833 25.118 28.3794 24.1049C27.7774 24.172 26.237 25.0258 25.692 24.7693C25.6139 24.4159 26.222 24.0021 26.4349 23.7885C28.6427 21.5752 29.5747 21.1875 29.2427 18.0674C29.1932 17.6021 29.1218 17.1462 29.0227 16.7304C28.963 16.48 28.7206 15.7429 28.7592 15.6274C28.939 15.0882 29.5738 16.0823 29.8581 16.459C30.0371 16.696 30.5106 17.4862 30.7046 17.6268C31.158 16.1429 31.3783 15.6855 31.2141 14.1317C31.1061 13.1095 30.8743 11.9887 30.5738 11.0836C30.1997 9.95653 29.3724 8.10451 28.6761 7.21508C28.1894 6.59322 27.8516 6.72002 27.1881 6.48088C27.0612 7.49153 26.8682 8.41189 26.4812 9.30341C26.1632 10.036 26.1324 9.76989 26.493 10.3204C26.8952 10.9344 29.4317 15.0036 28.7934 15.3649C28.4687 15.4841 28.0436 15.0389 27.8309 14.8743C27.5446 14.6527 27.2251 14.4365 26.901 14.233C26.5432 14.0085 25.1973 13.1779 24.7254 13.1855C24.5081 13.2465 23.667 14.7599 23.4951 15.039L22.261 16.9375L22.0653 17.2104C21.9335 17.4833 21.5704 17.8613 21.3057 17.866C21.0912 17.6677 21.1056 17.3552 21.0886 16.9841L21.0821 16.8069C21.1443 16.0529 21.0106 13.7924 20.9553 12.8399C20.9329 12.4525 20.9934 11.8027 20.6834 11.6354C20.4258 11.4964 15.357 10.388 14.9069 10.341C14.8966 10.3283 14.8834 10.2926 14.8756 10.3029C14.7963 10.4059 14.8239 10.2409 14.8184 10.2347C14.8158 10.2318 14.7552 10.1706 14.7481 10.1627C14.7985 9.84064 14.9561 9.77401 15.1988 9.65287L17.0739 8.87384C17.9465 8.52245 18.7511 8.20264 19.6192 7.85278C20.3402 7.56228 20.2443 7.56317 19.9657 6.91748C19.7831 6.49429 19.6242 6.12585 19.4126 5.67949C19.2127 5.25815 19.0491 4.86048 18.8515 4.44383C18.7327 4.19331 18.2672 3.43125 18.4458 3.17459C19.0081 2.97478 21.9531 5.31428 22.4032 5.68304C22.6961 5.92298 22.9985 6.15824 23.2759 6.41377C23.6708 6.7776 23.804 6.53548 24.3451 6.41078C25.0884 6.23949 26.0815 6.08345 26.9501 6.18618C26.6946 4.90547 27.2781 5.21923 25.5398 3.80994C23.8853 2.46857 22.0015 1.54716 19.8648 0.952919C19.3074 0.797938 18.6267 0.616467 18.0748 0.645864C17.7151 0.664924 16.7243 0.730421 16.5029 0.858832L17.5282 1.88878C17.7839 2.15594 18.5554 2.82957 18.2594 3.04933C18.0091 3.14204 17.3042 2.71215 17.0039 2.59222C15.6929 2.06896 13.917 1.53295 12.6699 2.05644C11.9377 2.36382 11.7037 2.58834 11.1066 2.94837C10.7141 3.18517 8.9528 4.59615 8.7234 4.57063C8.48175 4.54366 8.66528 4.58428 8.59021 4.50408C8.39258 4.13314 9.51027 2.42528 9.69477 2.018C8.93343 1.94822 8.76482 2.17686 8.26142 2.44555C6.19862 3.54649 4.39238 5.34433 3.04228 7.30126C2.60406 7.93637 2.22411 8.63657 1.8933 9.34444C1.72145 9.71207 1.68318 9.73428 1.81767 10.1093C2.13649 10.9975 1.43959 10.8846 1.19146 11.2293C1.02252 11.4639 0.797978 12.6594 0.726886 13.0196C0.178173 15.8002 0.52423 18.6724 1.47015 21.2446C1.64914 21.7311 1.75833 22.2004 2.30866 22.3905C2.67085 21.7241 2.44331 20.0992 3.13826 19.791C3.49623 19.9471 3.4129 20.4631 3.48213 21.0172C3.60867 22.0298 4.0678 24.1556 4.53789 24.8848C5.09633 25.7511 7.12857 26.5017 8.25307 26.8059C8.68748 26.9234 9.46009 26.9613 9.56783 27.392C9.29027 27.9365 7.43272 27.6287 6.92445 27.8857C6.97747 28.0938 7.36235 28.54 7.55593 28.7033C8.18644 29.2353 10.0075 30.0148 10.8076 30.2939C12.5499 30.9016 14.4048 31.1857 16.2273 31.1472C16.5922 31.1395 17.1567 31.1871 17.3941 31.0097C17.6638 30.8081 17.8776 30.3705 18.1667 30.2611C18.5128 30.1302 18.9605 30.5036 19.3608 30.6173C19.8188 30.7474 20.1463 30.5544 20.5368 30.433C21.4072 30.1627 23.8841 29.1618 24.416 28.5487C24.6523 28.4654 24.823 28.2929 25.028 28.1657C25.1219 28.0334 24.9757 28.1506 25.1349 28.0293C25.25 27.9417 25.1229 27.9799 25.2892 27.979ZM12.8876 21.4745C13.2066 21.6136 13.4776 21.9092 13.8374 22.1024C14.1951 22.2945 14.4943 22.4741 14.8555 22.6777C15.2701 22.9115 16.6297 23.655 17.0971 23.6491C17.2492 23.5384 20.2326 19.7674 20.3898 19.464L18.6871 21.3034C18.3926 21.6341 18.1526 21.9195 17.8576 22.2344C17.6452 22.4611 17.2682 22.9544 17.0439 23.1114C16.6635 23.1005 14.7648 22.2295 14.3979 22.021C14.1875 21.9014 14.0163 21.8315 13.7827 21.7192C13.5744 21.6193 13.404 21.4889 13.2051 21.3755L12.0311 20.7063C12.1032 20.8564 12.0453 20.7902 12.1798 20.8904C12.3166 20.9537 12.4925 21.0821 12.5826 21.1754C12.6595 21.2551 12.6512 21.2605 12.7397 21.3423C12.8308 21.4266 12.8008 21.3735 12.8876 21.4745ZM21.2946 29.6262C20.8128 29.6188 19.922 29.7639 19.7569 29.2567C19.5767 28.7034 20.1116 28.1743 20.2764 27.7661C19.9494 27.9193 19.6581 28.4016 19.4871 28.7136C19.3354 28.9906 19.0085 29.6963 19.1128 30.0447C19.2478 30.4964 19.9163 30.1926 20.1982 30.0861C20.4012 30.0094 20.5581 29.954 20.7506 29.8793C20.8729 29.8319 20.9178 29.8187 21.0444 29.7665C21.1883 29.7072 21.1897 29.7078 21.2946 29.6262ZM4.63362 9.1977C4.21153 9.26836 3.65341 9.71094 3.08281 9.48796C2.5268 9.27071 2.86646 8.38685 2.93349 7.8615C2.65667 8.35366 1.42143 9.8555 2.27924 10.0134C3.08346 10.1614 4.28959 9.56048 4.63362 9.1977ZM13.6903 9.21829C13.3153 9.12857 12.2367 9.15118 11.7796 9.13487C11.1468 9.11217 10.4265 9.07373 9.8115 8.99967C9.14598 8.91956 9.15562 8.71418 9.03443 7.6961C8.96942 7.14991 8.99455 6.39665 8.91284 5.90998C8.79627 6.56059 8.75566 7.44009 8.75209 8.08424C8.75079 8.31635 8.73912 8.89937 8.79562 9.08213C8.92946 9.51412 9.36906 9.27281 9.61225 9.27063C9.82034 9.26869 9.99357 9.36132 10.7089 9.35066C11.2949 9.34194 13.3376 9.29413 13.6903 9.21829ZM21.885 18.698C21.5743 20.0561 21.25 21.3885 21.0273 22.7894C20.8605 23.8381 21.0183 23.7619 22.0901 23.9392C22.7821 24.0537 23.4954 24.1051 24.1906 24.1555C23.9691 24.0142 22.7832 23.8058 22.3958 23.679C21.6106 23.4221 21.3186 23.4871 21.3894 22.6293C21.4992 21.2992 21.7584 20.0064 21.885 18.698ZM30.6947 16.8289C30.6558 16.3677 30.0617 15.3259 29.8577 15.058C29.3645 14.4101 29.3391 13.2247 28.1381 11.6188C27.7722 11.1296 27.4229 10.5492 26.923 10.0819L27.416 10.9231C28.2852 12.2509 28.779 13.3664 29.1499 14.9106C29.2604 15.3705 29.3896 15.1903 30.0694 16.0249C30.1885 16.1711 30.2633 16.2649 30.3709 16.4183C30.5035 16.6074 30.5267 16.704 30.6947 16.8289ZM23.3546 5.94891C23.0661 5.32898 21.3185 3.73241 20.5706 3.25931C20.2997 3.08785 19.9828 2.88102 19.6941 2.72143C19.2545 2.47842 19.1817 2.50685 18.8573 2.15223C18.4877 1.74818 17.778 1.24592 17.1992 0.996773C17.3908 1.16169 17.6864 1.47787 17.8526 1.65635C18.9002 2.78184 18.241 2.58551 19.216 3.01621C20.7059 3.67442 21.4214 4.28473 22.58 5.27511C22.8107 5.47241 23.104 5.78359 23.3546 5.94891ZM8.05714 28.4983C8.06914 28.5089 8.08527 28.521 8.09476 28.5281C8.10408 28.535 8.12037 28.5488 8.1318 28.557L8.66446 28.8421C8.8668 28.9384 9.06159 29.032 9.25541 29.12C12.2591 30.4843 14.4368 30.7614 17.6772 30.481L14.8574 30.1274C13.7048 29.9381 12.4541 29.6932 11.335 29.3953L8.05714 28.4983ZM1.88114 21.2809L1.48247 16.6574C1.44348 15.8606 1.41438 15.0304 1.43019 14.2186C1.43813 13.8074 1.57723 11.791 1.52933 11.6053C0.966103 12.4107 0.843211 15.7215 0.933921 16.8637C1.02017 17.9501 1.26174 19.2196 1.55656 20.2514C1.65124 20.5826 1.82521 20.9903 1.88114 21.2809ZM14.1205 24.9821C14.2279 25.604 13.851 25.6423 13.481 25.8493L10.5728 27.3312C11.3172 27.1743 12.268 26.7819 12.8967 26.4714C13.7313 26.0593 14.9695 25.6263 14.1205 24.9821ZM20.7478 24.8071C22.8507 25.1492 24.03 24.9016 24.4115 24.946L20.9025 24.5256C20.3536 24.4526 20.3136 24.4214 20.1945 23.9803C19.7447 24.5093 20.2676 24.729 20.7478 24.8071ZM16.8269 22.5707C15.7595 22.2397 14.8136 21.7289 13.868 21.2929C12.9943 20.8899 11.7598 19.7934 11.2332 19.8249C11.0257 20.2702 11.7019 21.4164 11.9209 21.8414C11.9793 21.9546 11.9976 22.0478 12.0535 22.1614C12.1318 22.321 12.1758 22.3608 12.2521 22.4918C12.5506 23.005 12.7965 23.6725 13.2738 24.326C13.8512 25.1162 13.7747 25.1129 12.7829 25.6642L10.7429 26.7342C10.4411 26.8793 9.89734 26.9898 9.79675 27.3931C10.3341 27.9612 14.117 28.0486 14.8771 28.0461C15.412 28.0442 15.5543 27.9573 16.0171 28.2448C16.6902 28.6628 17.0414 29.0441 17.522 29.5481C17.6974 29.732 17.9484 30.1723 18.2689 30.1528C18.6076 30.1322 18.7577 29.7127 18.9238 29.3618C19.2558 28.6594 19.5592 27.4157 19.7761 27.23C20.1266 26.9299 21.1607 26.7232 21.6734 26.5433C22.6184 26.2117 23.5652 25.8768 24.4333 25.4324C24.7231 25.2839 25.1302 25.1742 25.1511 24.7824C24.929 24.4919 24.2338 24.5055 23.798 24.4682C23.4111 24.435 20.6716 24.1038 20.5265 23.8469C20.3046 23.4536 22.1539 17.2451 20.8401 18.3118L16.8269 22.5707ZM3.5079 18.847L5.44814 16.2796C5.76866 15.8919 5.74442 15.6981 6.39025 15.8331C6.06819 15.3436 5.82192 15.3539 5.46962 15.7923C4.91231 16.4857 3.71899 18.0587 3.5079 18.847ZM10.3026 18.7056L9.8004 17.4237C9.57731 16.7955 8.58016 13.5771 8.73029 13.2889C8.83502 13.1909 9.05883 13.0459 9.19737 12.9678L10.7562 12.0061C10.9571 11.888 12.6621 10.8791 12.8295 10.6692C12.5426 10.7572 10.7682 11.7276 10.3785 11.9396L8.54652 12.9102C8.28704 13.0364 8.14388 13.1072 8.19365 13.4798C8.2418 13.8406 8.47251 14.5277 8.58583 14.8851C8.8903 15.8459 9.75508 18.1419 10.3026 18.7056ZM8.42841 10.0787C7.87937 9.63066 7.95233 10.001 8.02966 8.17873C8.06322 7.3888 8.11972 6.59677 8.19365 5.79586C7.83276 6.50802 7.67582 8.66144 7.69236 9.59076C7.70217 10.1396 7.95906 10.1249 8.42841 10.0787ZM3.15852 19.5574C3.62066 19.6527 3.65471 19.2377 4.0631 18.7143C4.34236 18.3563 4.59463 18.0068 4.85233 17.666C5.10492 17.3319 5.36294 17.0168 5.64845 16.6909C6.50528 15.7127 6.13166 16.42 8.58794 18.1504C8.97234 18.4211 10.4658 19.6191 10.8876 19.4647C11.1092 19.1667 10.606 18.3379 10.4866 18.0534C9.97638 16.8379 9.3873 14.8496 9.17435 13.5787C9.55948 13.1637 12.7734 11.0538 13.6891 10.5501C13.9275 10.419 14.1856 10.338 14.2285 9.95306C13.7319 9.50047 10.7924 9.68639 9.84409 9.69511C9.19396 9.70117 9.75751 9.79994 9.01765 9.71457C8.41982 9.64552 8.35172 9.96582 8.43181 7.37766C8.45184 6.72914 8.65603 5.4452 8.45702 4.98478C8.01993 4.90264 7.84233 5.26502 7.61568 5.57506C7.39591 5.87557 7.20258 6.1664 7.00162 6.48185C6.61155 7.09394 6.24093 7.75021 5.87915 8.43281C5.69246 8.78501 5.5455 9.11403 5.35313 9.45961C5.10881 9.89855 4.97765 9.92891 4.47142 9.99158C3.81181 10.0732 2.76723 10.2441 2.23879 10.4747C1.29951 10.8846 2.51959 11.428 3.30128 13.0642C3.49793 13.4758 3.59059 13.6563 3.47694 14.2266C3.2297 15.4669 2.80542 18.6081 3.15852 19.5574ZM3.24291 20.6187C3.13169 21.0711 3.31854 22.616 3.41849 23.0711C3.57121 23.7656 3.79462 24.6009 4.08823 25.1604C4.61141 26.1572 7.28478 27.0473 8.43319 27.2022C8.19244 27.0507 4.84698 26.1872 4.2737 24.9808C3.77719 23.9361 3.17822 21.6993 3.24291 20.6187ZM27.383 23.4166C28.8852 22.1517 30.1783 21.0717 29.8512 18.8937C29.8115 18.6297 29.5002 17.0835 29.2879 16.8252C29.3212 17.1721 29.4289 17.4917 29.4968 17.8378C29.9326 20.0606 29.7143 20.943 28.0017 22.6474L26.5954 23.974L27.383 23.4166ZM24.3816 12.8149C24.4188 12.7608 24.6557 12.6078 24.782 12.598C25.0578 12.5768 25.921 13.2421 26.1488 13.4168L27.5262 14.2531L25.2233 12.3976C24.7928 12.0449 24.4656 12.3177 24.3816 12.8149ZM20.487 10.7515L15.8217 10.1361L20.0954 11.0784C21.565 11.4209 21.2635 11.0937 21.3569 12.8794C21.4043 13.7867 21.5583 16.289 21.5332 16.8738C21.594 16.5927 21.7872 11.4386 21.7395 11.2542C21.6237 10.8062 21.0473 10.8271 20.487 10.7515ZM20.3029 7.98288C20.766 7.98983 21.1182 7.71451 20.8628 7.25522L19.1762 4.31882L20.4315 7.0496C20.6471 7.48903 20.7013 7.63836 20.3029 7.98288ZM9.50265 3.74137C9.67961 3.67482 9.57301 3.71835 9.71852 3.6153C10.6071 2.98577 11.5509 2.05612 12.7548 1.65522C14.7468 0.992008 15.6838 1.99846 17.1745 2.39047C17.1271 2.34169 17.1834 2.38127 17.0757 2.30971C17.0624 2.30091 16.9774 2.25205 16.9638 2.24478C14.8051 1.08876 13.0375 0.658221 11.0011 2.40695C10.643 2.71457 9.75962 3.42543 9.50265 3.74137Z" transform="translate(14.123)" fill="black"/>
<path fill-rule="evenodd" clip-rule="evenodd" d="M58.5653 14.8268C39.0906 17.44 19.4747 17.4404 0 14.8268C0.686358 9.88513 1.36015 4.94179 2.04627 0C20.1546 2.42599 38.3883 2.42729 56.4965 0C57.1861 4.94228 57.8757 9.88464 58.5653 14.8268Z" transform="translate(0.716797 22.2393)" fill="white"/>
<path fill-rule="evenodd" clip-rule="evenodd" d="M59.3671 16.1657C49.5925 17.4773 39.7913 18.1331 29.9991 18.1331C20.2074 18.1331 10.4067 17.4774 0.632532 16.1657L0 16.0809L0.0873856 15.4515C0.469839 12.6976 0.795792 10.3295 1.12102 7.96518C1.47656 5.38098 1.8321 2.79669 2.13365 0.624691L2.22039 0L2.84806 0.084074C11.8664 1.29218 20.9249 1.8966 29.9922 1.8966C39.0571 1.8966 48.1131 1.29259 57.129 0.084074L57.7563 0L57.8434 0.62461L59.9122 15.4514L60 16.0807L59.3671 16.1657ZM29.999 16.8635C39.5403 16.8635 49.0733 16.2405 58.5646 14.9948L56.6709 1.42189C47.7891 2.58493 38.8864 3.16634 29.9922 3.16634C21.0958 3.16634 12.1908 2.58461 3.30663 1.42197C2.96649 3.8747 2.67345 6.00429 2.38049 8.13389C2.05234 10.5193 1.72453 12.9018 1.43432 14.9948C10.9255 16.2405 20.458 16.8635 29.999 16.8635Z" transform="translate(0 21.5278)" fill="#ED1C24"/>
<path fill-rule="evenodd" clip-rule="evenodd" d="M0.903525 0.0812355L4.17521 0.45597C4.83361 0.531401 5.3704 0.607963 5.7856 0.685736C6.19911 0.763348 6.57183 0.883439 6.9037 1.04617C7.23387 1.20858 7.48265 1.43924 7.6468 1.73572C7.81274 2.03243 7.86802 2.41274 7.8142 2.87881C7.77934 3.18078 7.67428 3.45408 7.50073 3.69862C7.32539 3.94301 7.0989 4.12674 6.8194 4.25152C6.54151 4.37646 6.24045 4.42136 5.91806 4.38437L5.77628 4.36814L5.76469 4.46876L5.98745 4.49429C6.28122 4.52788 6.5651 4.63223 6.83747 4.80699C7.10976 4.98176 7.3245 5.2255 7.47836 5.53781C7.63221 5.85011 7.68579 6.21515 7.63764 6.63277C7.57936 7.13801 7.42721 7.52292 7.18264 7.7896C6.93783 8.05813 6.61617 8.23661 6.21775 8.32512C5.81754 8.4134 5.38102 8.44651 4.9064 8.42422C4.43178 8.40201 3.80516 8.34726 3.02866 8.25826L2.79569 8.2316L0 7.91147L0.165206 6.47965L0.501211 6.51817C0.686925 6.53941 0.805763 6.5172 0.859345 6.45348C0.912847 6.38968 0.947947 6.27847 0.966429 6.11816L1.43627 2.04641C1.45459 1.88795 1.446 1.76988 1.4083 1.69558C1.37239 1.6216 1.26166 1.57306 1.07432 1.55158L0.738319 1.51314L0.903525 0.0812355ZM3.77841 3.53872L4.30516 3.59905C4.81666 3.6576 5.10079 3.44834 5.15583 2.97113C5.18704 2.70082 5.12008 2.5099 4.95463 2.40216C4.78918 2.29442 4.55297 2.22206 4.24233 2.18645L3.93843 2.15164L3.77841 3.53872ZM3.42749 6.57938L3.9441 6.6385C4.5113 6.70352 4.82201 6.50113 4.87624 6.03126C4.9128 5.71435 4.84382 5.49678 4.66783 5.37652C4.49355 5.25643 4.25101 5.17947 3.94208 5.14409L3.59764 5.10468L3.42749 6.57938ZM9.73628 1.01153L9.63203 2.44908L10.071 2.48066C10.254 2.49382 10.3415 2.55658 10.3332 2.67077C10.3294 2.72319 10.3117 2.77835 10.2804 2.83448C10.2764 2.84352 10.2723 2.85273 10.268 2.86363C10.2639 2.87461 10.2578 2.88923 10.2459 2.91096C10.2374 2.93478 10.2291 2.95489 10.2227 2.97323C10.2144 2.99333 10.2099 3.00803 10.2055 3.02096L8.68019 6.69294C8.57043 6.96163 8.47048 7.14076 8.38391 7.2304C8.29579 7.31811 8.14153 7.35405 7.9195 7.33806L7.73654 7.3249L7.63229 8.76237L10.561 8.97324L10.6653 7.53568L10.5415 7.52672C10.4279 7.51856 10.3515 7.46792 10.3138 7.37674C10.2745 7.28363 10.2562 7.20698 10.2555 7.14681L10.2942 7.01219L12.7653 7.19002C12.809 7.33992 12.8286 7.44668 12.8239 7.51032C12.8152 7.63017 12.7057 7.68243 12.4956 7.66732L12.2007 7.64608L12.0964 9.08364L15.8895 9.35669L15.9937 7.91922L15.8192 7.90662C15.687 7.89709 15.5856 7.86349 15.5115 7.80357C15.4392 7.74381 15.3866 7.67039 15.3572 7.5818C15.3262 7.49296 15.2948 7.36092 15.2613 7.18922L13.9886 1.31753L9.73628 1.01153ZM11.848 3.20687L11.9074 3.21107L12.3892 5.44711L10.9571 5.34406L11.848 3.20687ZM16.5693 7.0919L16.6349 5.38169L20.9138 5.54459L20.8483 7.25479L16.5693 7.0919ZM28.5981 1.7597L28.5677 4.1353L27.3137 4.11939C27.2924 3.92209 27.2637 3.7772 27.2275 3.68659C27.1913 3.59791 27.1309 3.53524 27.0447 3.50035C26.9584 3.46732 26.8244 3.44875 26.6392 3.4464L25.1916 3.42807L25.1742 4.79036L26.0832 4.80191C26.6983 4.80966 27.2394 4.88598 27.7066 5.03078C28.1755 5.17373 28.5461 5.42425 28.8221 5.7788C29.0961 6.13326 29.2294 6.61161 29.2216 7.21773C29.2148 7.75067 29.1057 8.17903 28.8926 8.50288C28.6794 8.82859 28.3806 9.06878 27.9979 9.22723C27.6152 9.38568 27.172 9.4889 26.6701 9.53695C26.1665 9.585 25.5561 9.6035 24.8374 9.59437L21.8504 9.5565L21.8688 8.11539L22.2052 8.11967C22.3955 8.12209 22.5148 8.08793 22.5633 8.01912C22.6118 7.95031 22.637 7.83612 22.6391 7.67475L22.6915 3.57651C22.6935 3.41701 22.6729 3.30039 22.628 3.23037C22.583 3.16035 22.4628 3.1232 22.2691 3.12078L21.7883 3.11472L21.8067 1.67353L28.5981 1.7597ZM25.1328 8.02162L25.3367 8.02421C26.0639 8.03342 26.4329 7.75285 26.4402 7.18049C26.4446 6.83903 26.3386 6.62179 26.124 6.52713C25.9076 6.4324 25.6533 6.38418 25.3577 6.38039L25.1538 6.3778L25.1328 8.02162ZM30.7268 1.71173L34.9883 1.58469L36.8548 7.29663C36.9057 7.46405 36.9504 7.5923 36.9904 7.67742C37.0286 7.76262 37.0884 7.8303 37.1666 7.88247C37.2464 7.93456 37.3507 7.95766 37.4832 7.95378L37.6582 7.94853L37.7014 9.38916L33.9002 9.50247L33.8569 8.06184L34.1524 8.05304C34.363 8.04674 34.4665 7.98358 34.4629 7.86357C34.461 7.79977 34.4307 7.69559 34.372 7.55095L31.8956 7.62476L31.8708 7.76254C31.8777 7.82247 31.9037 7.89677 31.9522 7.98544C31.9991 8.07226 32.0802 8.11482 32.194 8.11151L32.318 8.1078L32.3613 9.54842L29.4262 9.63588L29.3829 8.19526L29.5664 8.18977C29.7889 8.18315 29.9387 8.1317 30.0174 8.03551C30.0944 7.93747 30.1754 7.74922 30.2572 7.47075L31.3991 3.66309C31.4022 3.64984 31.4051 3.63474 31.4113 3.6139C31.4158 3.59501 31.422 3.57417 31.4281 3.54962C31.4376 3.52676 31.4423 3.51166 31.4453 3.50027C31.4483 3.48889 31.4514 3.47944 31.4546 3.46999C31.48 3.41103 31.492 3.35434 31.4903 3.30176C31.4869 3.18732 31.3934 3.13386 31.21 3.13927L30.7701 3.15235L30.7268 1.71173ZM33.0521 3.68134L32.3843 5.89792L33.8196 5.85512L33.1117 3.67957L33.0521 3.68134ZM38.0589 9.4016L41.8045 9.13193L41.7003 7.69438L41.6375 7.6989C41.4512 7.71231 41.3296 7.68162 41.2748 7.60651C41.22 7.5314 41.1882 7.4227 41.1779 7.2804L41.0753 5.86537L42.8141 5.74019L42.9168 7.15521C42.9294 7.32934 42.9091 7.44935 42.856 7.51525C42.803 7.58301 42.6917 7.62307 42.5222 7.63526L42.4629 7.63954L42.5671 9.0771L46.3077 8.80784L46.2035 7.37028L45.8577 7.39516C45.6764 7.40824 45.5583 7.37723 45.5034 7.3022C45.4503 7.22701 45.4185 7.11831 45.4081 6.97601L45.1116 2.8881C45.1013 2.7458 45.1171 2.6337 45.1571 2.55181C45.1971 2.46984 45.3113 2.42219 45.4959 2.40886L45.8418 2.38399L45.7375 0.946434L41.9969 1.21569L42.1012 2.65325L42.1605 2.64897C42.33 2.63677 42.4459 2.66035 42.508 2.71802C42.5701 2.7756 42.6075 2.89335 42.6202 3.06739L42.6902 4.03322L40.9512 4.1584L40.8812 3.19257C40.8712 3.05415 40.8852 2.94205 40.9251 2.8583C40.965 2.77447 41.0758 2.72706 41.2555 2.71414L41.3148 2.70994L41.2106 1.27239L37.4887 1.54027L37.5929 2.97783L37.9302 2.95352C38.0997 2.94132 38.2155 2.96499 38.2776 3.02257C38.3397 3.08015 38.3771 3.19604 38.3898 3.37194L38.6863 7.45985C38.6989 7.63397 38.6786 7.7539 38.6255 7.81988C38.5725 7.88764 38.4613 7.92762 38.2918 7.93981L37.9545 7.96412L38.0589 9.4016ZM49.6859 3.4632L49.8988 3.44019C50.034 3.42557 50.1356 3.38624 50.2037 3.32034C50.2717 3.25444 50.3325 3.13838 50.384 2.96854C50.4358 2.80064 50.5158 2.48421 50.6262 2.02298C50.7058 1.68782 50.8031 1.38844 50.9147 1.12726C51.0279 0.863895 51.2068 0.623712 51.4517 0.408402C51.6963 0.191235 52.019 0.0619352 52.4176 0.0188085C52.7859 -0.0210876 53.1611 0.0024947 53.5433 0.0894748L53.7447 1.93649C53.5494 1.9633 53.4021 2.03962 53.2997 2.16585C53.1972 2.29208 53.085 2.48551 52.9613 2.7462C52.8052 3.08589 52.6425 3.34885 52.4731 3.53524C52.3054 3.7214 52.0173 3.86968 51.6088 3.97992L51.6235 4.11422C52.4681 4.02272 53.0446 4.38695 53.3528 5.20684C53.4399 5.42579 53.5184 5.58158 53.5919 5.6755C53.6635 5.76781 53.782 5.80408 53.9492 5.78599C54.032 5.77702 54.1501 5.74722 54.2997 5.69327L54.5428 7.92083C54.2609 8.07969 53.9235 8.18226 53.5282 8.22506C53.1515 8.26585 52.8276 8.24242 52.5602 8.15811C52.2927 8.07194 52.0278 7.86842 51.7621 7.54796C51.4964 7.2275 51.2178 6.74228 50.9265 6.09239C50.8184 5.8531 50.7443 5.69117 50.7039 5.60306C50.662 5.51697 50.6085 5.43403 50.5398 5.35278C50.473 5.27315 50.3863 5.2146 50.2816 5.17874C50.1751 5.14312 50.0392 5.13513 49.8703 5.15346L50.0156 6.48554C50.0339 6.65344 50.0773 6.76958 50.1444 6.83596C50.2131 6.90211 50.3355 6.92658 50.5128 6.90744L50.7054 6.88652L50.8617 8.31939L47.0202 8.73531L46.8639 7.30244L47.1274 7.27393C47.3133 7.25382 47.4311 7.20521 47.4822 7.12606C47.5336 7.04877 47.5508 6.92424 47.5322 6.75448L47.0926 2.72472C47.0737 2.55125 47.0317 2.43309 46.9649 2.36856C46.8982 2.30597 46.7728 2.28368 46.5852 2.30395L46.3217 2.33246L46.1654 0.899673L50.0273 0.48157L50.1836 1.91436L49.9708 1.93746C49.7917 1.95684 49.6773 2.00506 49.6261 2.0842C49.5747 2.16149 49.5575 2.28602 49.5761 2.45579L49.6859 3.4632Z" transform="translate(2.79199 26.1777)" fill="black"/>
<path fill-rule="evenodd" clip-rule="evenodd" d="M6.06057 0H0V9.70689L6.06057 4.446V0Z" transform="translate(42.125 38.2021)" fill="#ED1C24"/>
<path fill-rule="evenodd" clip-rule="evenodd" d="M0 0H6.06057V9.70689L0 4.446V0Z" transform="translate(11.7822 38.396)" fill="#ED1C24"/>
</svg>
