<svg width="152" height="148" fill="none" xmlns="http://www.w3.org/2000/svg"><g opacity=".3"><path d="M0 0h152v148H0z"/><path fill-rule="evenodd" clip-rule="evenodd" d="M144.935 55.495l-20.476-6.85-2.389 14.384 22.865-7.534z" fill="#fff"/><path fill-rule="evenodd" clip-rule="evenodd" d="M139.813 54.258l-14.073-4.707-1.642 9.886 15.715-5.179zm-14.848-8.366l20.37 6.814a1.617 1.617 0 0 1 .099 3.105l-22.865 7.533a1.596 1.596 0 0 1-.763.057 1.617 1.617 0 0 1-1.324-1.86l2.389-14.384h.004a1.608 1.608 0 0 1 2.09-1.265zM12.037 54.258l14.072-4.707 1.642 9.886-15.714-5.179zm14.848-8.366l-20.37 6.814a1.618 1.618 0 0 0-.1 3.105l22.865 7.533a1.616 1.616 0 0 0 2.087-1.804L28.98 47.157h-.004a1.606 1.606 0 0 0-2.09-1.266z" fill="#DEDDDD"/><path fill-rule="evenodd" clip-rule="evenodd" d="M76 21.353c-18.735 0-45.666 2.35-58.155 10.184 0 0 5.33 55.13 7.806 65.41 2.974 12.35 6.35 22.325 24.641 34.467C68.585 143.556 76 145.906 76 145.906s7.416-2.35 25.708-14.492c18.292-12.142 21.668-22.117 24.641-34.467 2.476-10.28 7.806-65.41 7.806-65.41C121.666 23.703 94.735 21.353 76 21.353z" fill="#ED1C24"/><path fill-rule="evenodd" clip-rule="evenodd" d="M76 19.324c7.969 0 16.003.383 23.931 1.196 6.643.68 13.367 1.672 19.857 3.262 5.272 1.292 11.097 3.14 15.722 6.042l.696.436-.079.82a2334.276 2334.276 0 0 1-3.54 34.01c-.726 6.508-1.479 13.02-2.336 19.513-.336 2.55-.688 5.103-1.09 7.644-.27 1.711-.553 3.477-.959 5.161-.692 2.876-1.434 5.742-2.397 8.54-1.713 4.979-4.024 9.327-7.334 13.431-4.36 5.406-9.991 9.862-15.745 13.681-3.907 2.593-7.87 5.116-11.908 7.501-2.66 1.571-5.362 3.092-8.115 4.494-1.533.78-3.097 1.537-4.686 2.2-.523.218-1.077.447-1.618.618l-.4.127-.399-.127a20.02 20.02 0 0 1-1.618-.618c-1.588-.663-3.153-1.419-4.686-2.2-2.754-1.402-5.455-2.922-8.116-4.494-4.037-2.385-8-4.907-11.908-7.501-5.753-3.819-11.384-8.275-15.744-13.681-3.31-4.104-5.62-8.451-7.334-13.431-.963-2.798-1.704-5.664-2.397-8.54-.405-1.684-.689-3.45-.959-5.16a301.861 301.861 0 0 1-1.09-7.645c-.857-6.493-1.61-13.005-2.336-19.514a2320.167 2320.167 0 0 1-3.54-34.01l-.079-.819.696-.436c4.625-2.901 10.45-4.75 15.721-6.042 6.49-1.59 13.215-2.58 19.857-3.262 7.928-.813 15.963-1.196 23.933-1.196z" fill="#DEDDDD"/><path fill-rule="evenodd" clip-rule="evenodd" d="M76 21.353c-18.735 0-45.666 2.35-58.155 10.184 0 0 5.33 55.13 7.806 65.41 2.974 12.35 6.35 22.325 24.641 34.467C68.585 143.556 76 145.906 76 145.906s7.416-2.35 25.708-14.492c18.292-12.142 21.668-22.117 24.641-34.467 2.476-10.28 7.806-65.41 7.806-65.41C121.666 23.703 94.735 21.353 76 21.353z" fill="#DEDDDD"/><path fill-rule="evenodd" clip-rule="evenodd" d="M76 141.282c-.956-.408-2.447-1.089-4.52-2.157v-38.338c-4.843-.123-10.978-.472-17.435-.947v28.894a332.23 332.23 0 0 1-1.384-.913c-2.805-1.862-5.227-3.656-7.333-5.409v-12.157c-2.583-.219-5.12-.374-7.644-.698h-3.191c-2.23-4.245-3.472-8.651-4.67-13.622-1.811-7.525-5.502-42.34-7.432-62.011 12.154-6.07 36.014-8.262 53.609-8.262s41.454 2.193 53.609 8.262c-1.931 19.672-5.621 54.486-7.433 62.01-1.212 5.034-2.47 9.488-4.753 13.782-3.557.273-7.239.547-10.751.795v11.902c-2.106 1.752-4.529 3.546-7.333 5.408-.47.311-.93.615-1.385.913V99.957c-6.457.384-12.591.677-17.434.806v38.362c-2.074 1.068-3.564 1.748-4.52 2.157z" fill="#fff"/><path d="M35.778 0h80.413v80.484H35.778z"/><path d="M75.98 80.484c22.137 0 40.083-18.008 40.083-40.223 0-22.214-17.946-40.223-40.082-40.223-22.137 0-40.083 18.009-40.083 40.223 0 22.215 17.946 40.223 40.083 40.223z" fill="#fff"/><path fill-rule="evenodd" clip-rule="evenodd" d="M79.781 80.469l.084-.064c-7.236.364-13.729-.616-19.48-2.94a37.357 37.357 0 0 1-5.078-2.513 37.594 37.594 0 0 1-4.012-2.75 41.055 41.055 0 0 1-3.558-3.21l-.035-.035c-.461-.47-.911-.95-1.349-1.44l-.125-.14c-4.307-4.878-7.421-10.79-9.342-17.738l-.001-.004a37.872 37.872 0 0 1-.986-6.08 39.492 39.492 0 0 1 .113-7.367 43.83 43.83 0 0 1 .69-4.333 47.416 47.416 0 0 1 .659-2.725 59.084 59.084 0 0 1 .617-1.788c1.398-3.845 3.105-7.24 5.122-10.184.55-.636 1.23-1.624 1.742-2.275a29.403 29.403 0 0 1 2.027-2.312C52.788 6.46 59.147 2.89 67.52.94c15.401-3.583 32.37 3.335 41.275 16.13 1.005 1.443 2.165 3.313 3.03 5.085 3.295 6.748 5.769 16.33 3.474 26.388-1.125 4.927-2.85 9.324-5.165 13.02-1.127 1.799-2.361 3.512-3.656 5.006-1.425 1.644-3.655 3.622-4.195 4.257-.39.29-.746.643-1.217.926l-.517.475c-.321.425.122.2-.466.488-.484.237-.118-.09-.618.302-.26.203-.062.136-.472.383-.518.39-1.142.662-1.563 1.067-1.911.747-3.972 2.773-9.872 4.483-2.449.709-5.017 1.253-7.776 1.518zM72.817 54.11l1.083.478c.702.454 3.703 1.773 4.512 1.5.51-.172 2.6-2.363 3.146-2.909 1.845-1.847 4.222-3.982 5.816-6.167L79.34 53.9c-.557.457-1.136.78-2.117.386-1.565-.629-2.836-1.206-4.273-2.077l-.262-.014c-.238-.368-.241-.26-.639-.441-2.828-1.83-4.506-2.887-6.067-5.337-1.348-2.117-2.373-4.764-3.094-7.54-.289-1.112-1.234-3.092-.261-4.15.631-.686 7.955-6.8 9.159-7.482-1.137.229-10.85 7.093-11.14 7.71-.625 1.33 1.934 9.59 2.999 11.722.43.861.736 1.248 1.244 1.966 1.514 2.142 5.657 4.845 7.927 5.467zm27.027 17.284c.355-.424.553-.356.866-.792.866-.457 3.194-2.804 4.061-3.756 1.571-1.725 2.658-2.753 2.902-5.338-1.525.171-5.428 2.35-6.808 1.696-.198-.902 1.342-1.958 1.882-2.503 5.593-5.648 7.954-6.637 7.113-14.599a27.925 27.925 0 0 0-.557-3.412c-.152-.639-.766-2.52-.668-2.814.456-1.376 2.064 1.16 2.784 2.122.453.605 1.653 2.62 2.144 2.98 1.149-3.787 1.707-4.954 1.291-8.919-.274-2.608-.861-5.468-1.622-7.778-.948-2.876-3.044-7.602-4.808-9.871-1.233-1.587-2.088-1.263-3.769-1.874-.322 2.58-.811 4.928-1.791 7.203-.806 1.87-.884 1.19.03 2.595 1.019 1.567 7.445 11.95 5.828 12.872-.823.304-1.9-.832-2.439-1.252a29.416 29.416 0 0 0-2.356-1.636c-.906-.573-4.316-2.693-5.511-2.673-.55.155-2.681 4.017-3.117 4.73l-3.126 4.844-.496.696c-.334.697-1.254 1.661-1.924 1.673-.544-.506-.507-1.303-.55-2.25l-.017-.453c.158-1.923-.18-7.692-.32-10.122-.058-.989.096-2.647-.69-3.074-.652-.354-13.493-3.183-14.633-3.303-.027-.032-.06-.123-.08-.097-.2.263-.13-.158-.145-.174-.006-.007-.16-.163-.178-.184.128-.821.527-.991 1.142-1.3l4.75-1.988c2.21-.897 4.25-1.713 6.448-2.606 1.827-.741 1.584-.739.878-2.387-.463-1.08-.865-2.02-1.401-3.159-.506-1.075-.921-2.09-1.421-3.153-.302-.639-1.48-2.583-1.028-3.238 1.424-.51 8.885 5.46 10.025 6.4.742.613 1.508 1.213 2.211 1.865 1 .929 1.338.31 2.709-.008 1.883-.437 4.398-.835 6.599-.573-.647-3.268.831-2.467-3.573-6.063-4.191-3.423-8.964-5.774-14.376-7.29-1.412-.396-3.137-.859-4.535-.784-.911.049-3.421.216-3.982.544l2.597 2.628c.648.681 2.602 2.4 1.852 2.961-.634.237-2.42-.86-3.18-1.166-3.321-1.336-7.82-2.703-10.98-1.368-1.855.785-2.447 1.358-3.96 2.276-.994.605-5.456 4.205-6.037 4.14-.613-.069-.148.035-.338-.17-.5-.946 2.331-5.304 2.798-6.344-1.928-.178-2.355.406-3.63 1.091-5.227 2.81-9.802 7.397-13.223 12.39-1.11 1.621-2.072 3.408-2.91 5.214-.436.938-.533.995-.192 1.952.808 2.267-.958 1.978-1.586 2.858-.428.599-.997 3.65-1.177 4.568-1.39 7.096-.514 14.425 1.883 20.989.453 1.24.73 2.438 2.124 2.923.917-1.7.341-5.846 2.102-6.633.906.398.695 1.715.87 3.13.321 2.583 1.484 8.008 2.675 9.868 1.415 2.21 6.563 4.126 9.412 4.902 1.1.3 3.058.397 3.33 1.496-.702 1.39-5.408.604-6.696 1.26.135.53 1.11 1.67 1.6 2.086 1.597 1.357 6.21 3.346 8.238 4.059a39.11 39.11 0 0 0 13.73 2.177c.924-.02 2.354.102 2.955-.35.684-.515 1.225-1.632 1.958-1.911.876-.334 2.01.619 3.025.909 1.16.332 1.99-.16 2.979-.47 2.205-.69 8.48-3.244 9.827-4.809.599-.212 1.031-.652 1.55-.977.238-.338-.132-.038.272-.348.29-.224-.031-.126.39-.128zM68.427 54.797c.808.355 1.495 1.11 2.406 1.602.906.49 1.664.949 2.58 1.468 1.05.597 4.494 2.494 5.678 2.479.385-.282 7.943-9.905 8.341-10.68L83.12 54.36c-.746.844-1.354 1.572-2.101 2.376-.538.579-1.493 1.837-2.062 2.238-.963-.028-5.773-2.25-6.703-2.782-.533-.306-.967-.484-1.559-.77-.527-.255-.959-.588-1.463-.878l-2.974-1.707c.183.383.036.214.377.47.346.161.792.489 1.02.727.195.203.174.217.398.426.231.215.155.08.375.337zm21.298 20.8c-1.221-.018-3.477.352-3.896-.942-.456-1.412.899-2.762 1.316-3.804-.828.391-1.566 1.622-2 2.418-.384.707-1.212 2.508-.948 3.397.343 1.153 2.036.377 2.75.105.514-.195.912-.337 1.4-.527.31-.121.423-.155.744-.288.364-.151.368-.15.634-.358zM47.517 23.47c-1.07.18-2.483 1.31-3.929.74-1.408-.554-.548-2.81-.378-4.15-.702 1.256-3.83 5.088-1.658 5.491 2.038.378 5.093-1.155 5.965-2.081zm22.943.053c-.95-.23-3.682-.172-4.84-.213-1.603-.058-3.428-.156-4.986-.345-1.686-.205-1.661-.729-1.968-3.327-.165-1.393-.101-3.316-.308-4.557-.296 1.66-.399 3.904-.408 5.548-.003.592-.033 2.08.11 2.546.34 1.102 1.453.487 2.07.481.526-.005.965.232 2.777.204 1.485-.022 6.66-.144 7.553-.337zm20.76 24.19c-.787 3.465-1.608 6.864-2.173 10.44-.422 2.675-.022 2.48 2.693 2.933 1.753.292 3.56.423 5.321.552-.561-.36-3.565-.892-4.547-1.216-1.989-.655-2.729-.49-2.55-2.678.279-3.394.936-6.693 1.256-10.032zm22.318-4.77c-.098-1.177-1.603-3.836-2.12-4.52-1.25-1.652-1.314-4.677-4.356-8.775-.927-1.248-1.812-2.73-3.079-3.922l1.249 2.147c2.202 3.388 3.453 6.234 4.393 10.175.28 1.173.607.713 2.329 2.843.302.373.491.613.764 1.004.336.482.395.729.82 1.048zM94.943 15.18c-.73-1.582-5.158-5.656-7.052-6.863-.687-.438-1.49-.965-2.221-1.373-1.114-.62-1.298-.547-2.12-1.452-.936-1.031-2.734-2.313-4.2-2.949.485.421 1.234 1.228 1.655 1.684 2.654 2.871.984 2.37 3.454 3.47 3.774 1.68 5.587 3.237 8.522 5.764.585.503 1.327 1.297 1.962 1.719zM56.19 72.72c.03.027.071.058.095.076.024.017.065.053.094.074l1.35.727c.512.246 1.005.485 1.496.71 7.61 3.48 13.127 4.188 21.336 3.472l-7.144-.902c-2.92-.483-6.088-1.108-8.923-1.868l-8.304-2.29zM40.544 54.303l-1.01-11.798c-.099-2.033-.173-4.152-.133-6.223.02-1.05.373-6.194.252-6.668-1.427 2.055-1.739 10.503-1.509 13.417.219 2.773.83 6.012 1.578 8.645.24.845.68 1.886.822 2.627zm31.006 9.445c.272 1.586-.682 1.684-1.62 2.212l-7.367 3.782c1.886-.4 4.294-1.402 5.887-2.194 2.114-1.052 5.251-2.157 3.1-3.8zm16.79-.447c5.327.873 8.314.241 9.28.354l-8.889-1.072c-1.39-.187-1.492-.266-1.793-1.392-1.14 1.35.185 1.91 1.401 2.11zm-9.934-5.707c-2.704-.844-5.1-2.148-7.495-3.26-2.214-1.029-5.341-3.827-6.675-3.746-.526 1.136 1.187 4.06 1.742 5.145.148.29.194.527.336.817.198.407.31.509.503.843.756 1.31 1.379 3.013 2.588 4.68 1.463 2.017 1.27 2.008-1.243 3.415l-5.168 2.73c-.765.37-2.142.653-2.397 1.682 1.361 1.45 10.944 1.672 12.87 1.666 1.355-.005 1.716-.227 2.888.507 1.705 1.067 2.595 2.04 3.812 3.326.445.469 1.08 1.593 1.893 1.543.858-.053 1.238-1.123 1.659-2.019.84-1.792 1.61-4.966 2.159-5.44.888-.765 3.507-1.293 4.806-1.752 2.394-.846 4.793-1.7 6.992-2.835.734-.378 1.766-.659 1.818-1.658-.562-.741-2.323-.707-3.427-.802-.98-.084-7.92-.93-8.288-1.585-.562-1.004 4.122-16.846.794-14.124L78.407 57.594zm-33.741-9.502l4.915-6.551c.812-.99.75-1.484 2.387-1.14-.816-1.248-1.44-1.222-2.332-.104-1.412 1.77-4.435 5.784-4.97 7.795zm17.213-.36l-1.272-3.272c-.565-1.602-3.091-9.815-2.711-10.55.265-.25.832-.62 1.183-.82l3.95-2.454c.508-.301 4.828-2.876 5.252-3.411-.727.224-5.222 2.7-6.21 3.241l-4.64 2.477c-.658.322-1.02.503-.894 1.454.122.92.706 2.674.993 3.586.771 2.451 2.962 8.31 4.35 9.748zM57.13 25.717c-1.39-1.143-1.206-.198-1.01-4.848.085-2.016.228-4.037.416-6.08-.915 1.817-1.312 7.312-1.27 9.683.025 1.4.675 1.363 1.864 1.245zM43.78 49.905c1.17.243 1.257-.816 2.291-2.151.708-.914 1.347-1.805 2-2.675a43.844 43.844 0 0 1 2.017-2.488c2.17-2.497 1.224-.692 7.446 3.724.974.69 4.758 3.748 5.826 3.353.562-.76-.713-2.875-1.016-3.6-1.292-3.102-2.785-8.176-3.324-11.419.976-1.059 9.118-6.443 11.437-7.728.604-.335 1.258-.541 1.367-1.523-1.258-1.155-8.705-.681-11.107-.659-1.647.016-.22.268-2.094.05-1.514-.176-1.687.641-1.484-5.963.05-1.655.568-4.931.064-6.106-1.108-.21-1.558.715-2.132 1.506a42.563 42.563 0 0 0-1.555 2.314c-.988 1.562-1.927 3.236-2.844 4.978-.473.899-.845 1.738-1.332 2.62-.62 1.12-.952 1.198-2.234 1.358-1.671.208-4.317.644-5.656 1.233-2.38 1.045.711 2.432 2.692 6.607.498 1.05.732 1.511.445 2.966-.627 3.165-1.702 11.18-.807 13.603zm.214 2.708c-.282 1.155.191 5.097.444 6.258.387 1.772.953 3.904 1.697 5.331 1.326 2.544 8.098 4.815 11.007 5.21-.61-.386-9.085-2.59-10.537-5.668-1.258-2.666-2.775-8.373-2.611-11.13zm61.155 7.14c3.805-3.228 7.081-5.984 6.252-11.541-.1-.674-.889-4.62-1.427-5.279.085.885.358 1.701.529 2.584 1.105 5.672.552 7.924-3.787 12.273l-3.563 3.385 1.996-1.422zM97.545 32.7c.094-.138.694-.528 1.014-.553.699-.054 2.886 1.643 3.463 2.09l3.489 2.133-5.834-4.735c-1.09-.9-1.92-.204-2.132 1.065zm-9.866-5.265l-11.819-1.57 10.827 2.404c3.723.874 2.959.04 3.195 4.596.12 2.315.51 8.7.447 10.192.154-.717.644-13.869.523-14.34-.294-1.142-1.754-1.09-3.173-1.282zm-.467-7.065c1.173.018 2.066-.685 1.419-1.857l-4.273-7.493 3.18 6.969c.546 1.12.684 1.502-.326 2.381zM59.852 9.547c.448-.17.178-.059.547-.322 2.25-1.606 4.642-3.978 7.692-5.001C73.137 2.53 75.51 5.1 79.287 6.1c-.12-.125.023-.024-.25-.206a9.767 9.767 0 0 0-.284-.166c-5.468-2.95-9.946-4.048-15.105.414-.908.785-3.145 2.599-3.796 3.405z" fill="#DEDDDD"/><path fill-rule="evenodd" clip-rule="evenodd" d="M150.181 94.583a552.642 552.642 0 0 1-148.366 0C3.555 81.973 5.261 69.359 7 56.749a514.474 514.474 0 0 0 137.941 0l5.241 37.834z" fill="#fff"/><path fill-rule="evenodd" clip-rule="evenodd" d="M150.397 96.183a555.198 555.198 0 0 1-74.4 5.021 555.102 555.102 0 0 1-74.395-5.02L0 95.966l.221-1.606c.97-7.027 1.795-13.07 2.619-19.103.9-6.594 1.801-13.188 2.565-18.73l.22-1.595 1.59.215a513.954 513.954 0 0 0 68.765 4.625c22.965 0 45.907-1.542 68.747-4.625l1.589-.215.221 1.594 5.241 37.834.222 1.606-1.603.216zm-74.4 1.781a552.02 552.02 0 0 0 72.367-4.768l-4.798-34.635a516.59 516.59 0 0 1-67.586 4.452 517.045 517.045 0 0 1-67.603-4.451C7.515 64.82 6.773 70.254 6.03 75.689c-.832 6.087-1.662 12.166-2.397 17.507a551.894 551.894 0 0 0 72.364 4.768z" fill="#DEDDDD"/><path fill-rule="evenodd" clip-rule="evenodd" d="M9.363 67.006l8.288.956c1.668.193 3.028.388 4.08.586 1.048.198 1.992.505 2.833.92.836.415 1.466 1.003 1.882 1.76.42.757.56 1.727.424 2.916a4.459 4.459 0 0 1-.794 2.093 4.183 4.183 0 0 1-1.726 1.41 4.255 4.255 0 0 1-2.283.34l-.36-.042-.029.257.564.065c.745.086 1.464.352 2.154.798.69.446 1.234 1.068 1.623 1.865.39.796.526 1.728.404 2.794-.148 1.289-.533 2.271-1.153 2.951-.62.686-1.435 1.141-2.444 1.367-1.014.225-2.12.31-3.322.253-1.203-.057-2.79-.197-4.757-.424l-.59-.068-7.083-.816.419-3.654.85.098c.471.054.772-.002.908-.165s.225-.447.272-.856l1.19-10.39c.046-.404.024-.705-.071-.895-.091-.189-.372-.312-.846-.367l-.851-.098.418-3.654zm7.283 8.822l1.335.154c1.295.15 2.015-.384 2.155-1.602.079-.69-.09-1.177-.51-1.452-.42-.275-1.018-.46-1.805-.55l-.77-.089-.405 3.54zm-.889 7.76l1.309.15c1.437.166 2.224-.35 2.361-1.55.093-.808-.082-1.363-.528-1.67-.441-.306-1.056-.503-1.838-.593l-.873-.1-.43 3.762zM31.74 69.38l-.264 3.668 1.112.08c.464.034.686.194.665.486a1.02 1.02 0 0 1-.134.417l-.031.075a.93.93 0 0 1-.056.12l-.06.16c-.02.05-.032.088-.043.121l-3.864 9.37c-.278.686-.531 1.143-.75 1.372-.224.223-.615.315-1.177.274l-.463-.033-.265 3.668 7.42.538.264-3.668-.314-.023c-.287-.021-.48-.15-.577-.383a1.643 1.643 0 0 1-.147-.587l.098-.343 6.26.454c.11.382.16.654.148.817-.022.306-.3.439-.831.4l-.747-.054-.264 3.669 9.609.696.264-3.668-.442-.032c-.335-.024-.592-.11-.78-.263a1.226 1.226 0 0 1-.39-.566 7.907 7.907 0 0 1-.244-1.001L42.512 70.16l-10.773-.781zm5.35 5.602l.15.01 1.221 5.706-3.628-.263 2.257-5.453zm11.96 9.913l.167-4.364 10.84.416-.166 4.364-10.84-.416zM79.524 71.29l-.077 6.062-3.177-.04c-.054-.504-.127-.874-.219-1.105a.822.822 0 0 0-.463-.475c-.218-.085-.558-.132-1.027-.138l-3.667-.047-.044 3.476 2.303.03c1.558.02 2.929.214 4.112.584 1.188.365 2.127 1.004 2.826 1.909.694.904 1.032 2.125 1.012 3.671-.017 1.36-.293 2.453-.833 3.28-.54.83-1.297 1.444-2.267 1.848-.97.404-2.092.668-3.364.79-1.275.123-2.822.17-4.642.147l-7.567-.097.046-3.677.852.01c.483.007.785-.08.908-.256.122-.175.186-.467.192-.879l.132-10.457c.005-.407-.047-.705-.16-.883-.115-.18-.419-.274-.91-.28l-1.218-.016.047-3.677 17.205.22zm-8.779 15.979l.516.006c1.843.024 2.778-.692 2.796-2.153.011-.871-.257-1.425-.801-1.667-.548-.242-1.192-.365-1.941-.374l-.517-.007-.053 4.195zm14.171-16.102l10.796-.324 4.729 14.576c.129.427.242.754.343.971.097.218.249.39.447.523.202.133.466.192.802.182l.443-.013.11 3.676-9.63.29-.11-3.677.749-.022c.533-.016.796-.177.786-.484-.004-.163-.081-.428-.23-.797l-6.274.188-.063.351c.018.153.084.343.207.57.119.22.324.33.612.32l.314-.009.11 3.677-7.435.223-.11-3.676.465-.014c.564-.017.943-.149 1.142-.394.195-.25.4-.73.608-1.441l2.893-9.716c.007-.034.015-.073.03-.126.012-.048.028-.101.043-.164a.933.933 0 0 0 .044-.126c.007-.029.015-.053.023-.077.064-.15.095-.295.09-.43-.008-.291-.245-.428-.71-.414l-1.114.034-.11-3.677zm5.891 5.026l-1.692 5.656 3.636-.109-1.793-5.551-.15.004zM103.49 90.79l9.489-.688-.264-3.668-.159.011c-.472.034-.78-.044-.919-.236-.139-.191-.219-.469-.245-.832l-.26-3.61 4.405-.32.26 3.61c.032.445-.02.751-.154.92-.135.172-.416.275-.846.306l-.15.01.264 3.669 9.476-.687-.264-3.668-.876.063c-.459.033-.758-.046-.898-.237-.134-.192-.215-.47-.241-.833l-.751-10.43c-.026-.364.014-.65.115-.859.102-.21.391-.33.859-.365l.876-.063-.264-3.668-9.477.687.265 3.668.15-.011c.429-.031.723.03.88.176.157.147.252.448.284.892l.178 2.464-4.406.32-.177-2.465c-.026-.353.01-.64.111-.853.101-.214.382-.335.837-.368l.15-.01-.264-3.669-9.429.684.265 3.668.854-.062c.429-.031.723.03.88.176.158.147.252.443.284.892l.751 10.431c.032.444-.019.75-.153.919-.135.173-.416.275-.846.306l-.854.062.264 3.668zm29.455-15.153l.539-.059c.343-.037.6-.138.773-.306.172-.168.326-.464.457-.897.131-.429.334-1.236.613-2.413.202-.856.448-1.62.731-2.286.287-.672.74-1.285 1.361-1.834.619-.554 1.437-.884 2.447-.994a8.534 8.534 0 0 1 2.851.18l.51 4.713c-.494.068-.867.263-1.127.585-.26.322-.544.816-.857 1.481-.396.867-.808 1.538-1.237 2.014-.425.475-1.155.853-2.19 1.134l.038.343c2.14-.233 3.6.696 4.381 2.788.22.559.419.956.605 1.196.182.235.482.328.906.282.209-.023.508-.1.888-.237l.615 5.684c-.714.406-1.569.667-2.57.777-.954.104-1.775.044-2.452-.171-.678-.22-1.349-.74-2.022-1.557-.673-.818-1.379-2.056-2.117-3.714-.274-.61-.462-1.024-.564-1.249a3.05 3.05 0 0 0-.416-.639 1.45 1.45 0 0 0-.654-.444c-.269-.09-.614-.111-1.042-.064l.368 3.399c.047.428.157.725.327.894.174.169.484.231.933.182l.488-.053.396 3.656-9.732 1.062-.396-3.657.668-.072c.471-.052.769-.176.898-.378.131-.197.174-.515.127-.948l-1.113-10.283c-.048-.442-.155-.744-.324-.909-.169-.16-.487-.216-.962-.164l-.667.072-.396-3.656 9.783-1.067.396 3.656-.539.06c-.454.049-.744.172-.873.374-.131.197-.174.515-.127.948l.278 2.57zM122.07 97.481h-15.353v24.769l15.353-13.424V97.481zm-92.221.495h15.353v24.769L29.85 109.321V97.976z" fill="#DEDDDD"/></g></svg>