<svg width="24" height="27" fill="none" xmlns="http://www.w3.org/2000/svg"><path d="M0 0h24v27H0z"/><path d="M11.805 26.93a41.846 41.846 0 0 1-1.513-.588 29.959 29.959 0 0 1-.86-.373 28.455 28.455 0 0 1-2.282-1.14 25.391 25.391 0 0 1-1.457-.883 20.475 20.475 0 0 1-1.366-.983A16.585 16.585 0 0 1 3.06 21.86a13.383 13.383 0 0 1-1.139-1.244 11.69 11.69 0 0 1-.54-.732 9.184 9.184 0 0 1-.869-1.564 7.582 7.582 0 0 1-.314-.857C.017 16.842 0 16.457 0 16.415v-11.3c0-.642.332-1.594.946-2.093.962-.778 2.228-1.423 3.762-1.916.475-.153.986-.294 1.52-.419A24.063 24.063 0 0 1 7.763.38 28.4 28.4 0 0 1 11.979 0h.03a26.72 26.72 0 0 1 1.805.083 29.849 29.849 0 0 1 2.08.242 25.107 25.107 0 0 1 1.955.38 19.423 19.423 0 0 1 1.82.527 14.37 14.37 0 0 1 1.07.42l.067.031a10.212 10.212 0 0 1 2.041 1.178 6.8 6.8 0 0 1 .206.16c.197.16.374.374.525.636.166.284.297.623.364.95.038.17.058.344.058.509v11.298c-.002.06-.025.6-.331 1.448-.338.936-.881 1.871-1.614 2.78a14.523 14.523 0 0 1-1.958 1.976c-.96.806-2.086 1.568-3.348 2.267-.753.415-1.559.812-2.397 1.179a35.42 35.42 0 0 1-2.159.864L12 27l-.194-.07z" fill="#C4C4C4"/><path d="M23 5.398v10.927s-.013.466-.286 1.227c-.237.66-.67 1.542-1.463 2.532a13.416 13.416 0 0 1-1.81 1.837c-.834.705-1.864 1.427-3.135 2.134-.681.38-1.433.755-2.26 1.12a33.29 33.29 0 0 1-2.048.825 39.225 39.225 0 0 1-1.434-.561 28.792 28.792 0 0 1-.81-.353 27.103 27.103 0 0 1-2.155-1.082 23.925 23.925 0 0 1-1.368-.835 19.527 19.527 0 0 1-1.278-.925 15.29 15.29 0 0 1-1.174-1.03 12.28 12.28 0 0 1-1.051-1.156c-.183-.23-.348-.455-.495-.673a8.313 8.313 0 0 1-.786-1.424 6.782 6.782 0 0 1-.278-.765c-.16-.547-.169-.871-.169-.871V5.398c0-.51.286-1.252.706-1.594.966-.786 2.185-1.352 3.443-1.76a18.32 18.32 0 0 1 1.42-.393c.492-.117.977-.212 1.444-.29a26.909 26.909 0 0 1 3.57-.354C11.843.999 11.992 1 12 1a25.032 25.032 0 0 1 1.701.079 27.79 27.79 0 0 1 1.964.23 23.37 23.37 0 0 1 1.835.359 17.951 17.951 0 0 1 1.702.495 13.106 13.106 0 0 1 .974.383l.007.007a9.236 9.236 0 0 1 1.926 1.105c.063.048.125.097.185.146.142.116.269.278.374.46.136.234.236.503.288.756.03.133.044.262.044.378z" fill="#F4F4F4"/><path d="M18.598 12.014a6.764 6.764 0 0 0-2.227-4.87 6.54 6.54 0 0 0-2.205-1.308c-2.343-.826-4.84-.228-6.57 1.34a6.645 6.645 0 0 0-1.463 1.92l-.004-.001-.007.021a6.748 6.748 0 0 0-.625 4.185l.02.104c.428 2.276 2.01 4.267 4.317 5.08a6.49 6.49 0 0 0 2.166.372c2.73-.002 5.289-1.738 6.234-4.499a5.518 5.518 0 0 0 .115-.373 6.743 6.743 0 0 0 .249-1.97zM13.153 6.02a6.09 6.09 0 0 1 2.439 1.062l.02.014-.05.055a4.706 4.706 0 0 0-.132-.08c-.618-.364-1.334-.614-1.863-.765a9.644 9.644 0 0 0-.766-.19v.007l-.316-.194c.223.017.445.048.668.09zm-.4.359c.01.002.618.12 1.34.376.222.078.454.17.683.276.312.142.617.31.88.505.292.326.745.881.846 1.297-.243.18-.533.39-.804.581-.2.14-.389.27-.544.372-.41-.252-1.837-.831-2.37-.853-.304-.771-.847-1.617-1.085-1.971l-.008-.011c.25-.189 1.062-.572 1.062-.572zm2.37 5.358s-.247-1.476-.332-1.519c-.616-.312-1.729-.738-1.925-.586-.789.615-.736.721-.943.836 0 0 .868-1.23 1.063-1.187.429.092 1.851.656 1.963.836.112.181.175 1.62.175 1.62zm-3.668-4.664c.219.324.8 1.219 1.1 1.997-.286.407-1.207 1.726-1.457 2.143-.855.053-2.272.094-2.635.103-.204-.294-.662-.98-.815-1.403.432-1.298 1.289-2.3 1.548-2.584.481-.123 1.586-.372 2.26-.256zM8.04 11.33c-.065-.184-.704-1.123-.773-1.124-.07 0-.614.271-.614.271s.675-.584.736-.492c.061.091.834 1.28.82 1.393-.016.112-.18.794-.18.794s.045-.743.01-.842zm.336-4.222c.148-.11.301-.211.458-.307l.058.269.034.162c-.325.368-1.058 1.28-1.483 2.47-.257.137-.753.425-1.067.763a1.608 1.608 0 0 1-.118-.569 6.197 6.197 0 0 1 2.118-2.788zm-2.183 6.087c-.04.14-.096.348-.146.57a6.314 6.314 0 0 1 .035-3.341c.04.129.09.236.135.317a7.394 7.394 0 0 0-.147 1.267c-.007.38.026.781.14 1.128a.612.612 0 0 1-.017.059zm1.351 3.282a6.318 6.318 0 0 1-1.33-2.177c.035-.262.116-.612.198-.91.214.114.663.327 1.105.399a.18.18 0 0 1-.017-.03l.166.048.042-.25.026.044a52.9 52.9 0 0 1 .218-.641c.112-.323.242-.683.355-.97.066-.168.128-.311.177-.408.38-.011 1.748-.05 2.602-.103.062.121.182.293.33.486.15.193.33.409.512.616l.006.007.067.075c.309.347.616.66.787.794a504.013 504.013 0 0 1-1.004 2.47c-.246.082-.953.263-2.201.167-.687-.484-1.679-2.193-1.85-2.493l-.067.206a2.095 2.095 0 0 1-.15-.018c.143.247 1.077 1.848 1.817 2.446-.004.185-.01.494-.01.767 0 .139.001.268.005.367-.442-.006-.879-.175-1.152-.306a6.178 6.178 0 0 1-.632-.586zm2.435 1.59a6.11 6.11 0 0 1-1.014-.465c.19.032.388.044.586.023.413.155 1.354.498 1.859.597.042.056.11.12.22.18a6.068 6.068 0 0 1-1.651-.335zm.408-1.657c.074.01 1.268-.164 1.366-.067.098.097.795.766.795.766s-.704-.538-.904-.585c-.2-.047-1.257-.114-1.257-.114zm2.394 1.951a3.23 3.23 0 0 1-.78-.099 1.114 1.114 0 0 1-.23-.089c.048-.02.103-.046.163-.074l.067-.03c.331-.152.791-.375 1.065-.551.266-.019 1.861-.162 3.003-.985l.213.123a6.164 6.164 0 0 1-3.5 1.705zm3.37-2.23c-.965.842-2.501 1.06-2.984 1.11a5.42 5.42 0 0 1-.795-.673A2.989 2.989 0 0 1 12 16.1l-.003-.004.003-.006c.36-.873.964-2.369 1.062-2.61.446-.114 1.645-.427 2.12-.638.106.092.236.206.378.334.423.38.95.875 1.24 1.213-.09.66-.428 1.346-.65 1.74zm1.65-3.136c-.02.191-.05.387-.087.584 0 0-.57.458-.775.569-.349-.394-.906-.907-1.285-1.243a33.04 33.04 0 0 0-.276-.244c0-.033 0-.077-.002-.132a135.57 135.57 0 0 0-.008-.541l-.01-.555c-.014-.562-.034-1.153-.066-1.422.144-.094.31-.206.478-.323.328-.23.664-.476.868-.626.259.272 1.06 1.237 1.06 1.237.002.009.1.458.14 1.134a8.843 8.843 0 0 1-.037 1.562zm.28.179a6.346 6.346 0 0 1-.079.407c-.006-.012-.01-.023-.016-.033a9.05 9.05 0 0 0 .117-2.114 8.697 8.697 0 0 0-.018-.26 6.244 6.244 0 0 1-.003 1.999z" fill="#B4B4B4"/></svg>