<svg width="72" height="81" fill="none" xmlns="http://www.w3.org/2000/svg"><path d="M0 0h72v81H0z"/><path d="M35.413 80.787c-.684-.25-1.403-.52-2.197-.825-.87-.34-1.634-.646-2.341-.94a90.384 90.384 0 0 1-2.578-1.115 86.07 86.07 0 0 1-4.7-2.261 76.263 76.263 0 0 1-4.486-2.522 59.29 59.29 0 0 1-2.033-1.286 61.164 61.164 0 0 1-2.201-1.517 52.809 52.809 0 0 1-1.897-1.43 49.696 49.696 0 0 1-3.797-3.313 40.232 40.232 0 0 1-3.416-3.734 35.073 35.073 0 0 1-1.623-2.195 31.086 31.086 0 0 1-1.313-2.104 27.531 27.531 0 0 1-1.294-2.59 22.73 22.73 0 0 1-.94-2.57C.05 50.527.004 49.37 0 49.245V15.347c0-1.929.995-4.785 2.838-6.281 2.887-2.335 6.684-4.268 11.285-5.749a57.96 57.96 0 0 1 4.559-1.256 72.21 72.21 0 0 1 4.609-.922 81.474 81.474 0 0 1 3.825-.545 85.221 85.221 0 0 1 7.53-.573C35.33 0 35.773 0 35.935 0h.09c.223 0 1.045.004 2.32.06 1 .04 2.042.104 3.095.189a89.558 89.558 0 0 1 6.245.726c1.061.162 2.12.347 3.145.548.983.195 1.87.388 2.716.593.973.229 1.965.49 2.938.774.835.243 1.686.515 2.525.807a43.185 43.185 0 0 1 3.208 1.257l.202.096a30.63 30.63 0 0 1 4.073 2.132 25.7 25.7 0 0 1 2.669 1.883c.59.477 1.12 1.119 1.573 1.906.5.853.89 1.87 1.093 2.851.113.512.173 1.032.173 1.525v33.896c-.006.177-.075 1.798-.993 4.342-1.014 2.808-2.643 5.614-4.842 8.342-1.65 2.043-3.625 4.038-5.875 5.928-2.877 2.416-6.257 4.703-10.044 6.799a87.98 87.98 0 0 1-7.189 3.537 106 106 0 0 1-6.477 2.594l-.582.215-.585-.213z" fill="#C4C4C4"/><path d="M71 14.899v34.527s-.04 1.474-.909 3.877c-.754 2.089-2.133 4.875-4.656 8.002-1.486 1.84-3.373 3.801-5.76 5.806-2.652 2.226-5.93 4.509-9.973 6.744a87.685 87.685 0 0 1-7.194 3.538 105.906 105.906 0 0 1-5.495 2.23L35.994 80c-.755-.275-1.492-.553-2.215-.831-.8-.313-1.585-.626-2.348-.942a90.881 90.881 0 0 1-2.578-1.115 86.847 86.847 0 0 1-4.717-2.268 76.199 76.199 0 0 1-4.473-2.513c-.7-.424-1.373-.849-2.018-1.276a62.268 62.268 0 0 1-2.189-1.507 52.45 52.45 0 0 1-1.878-1.416 48.489 48.489 0 0 1-3.736-3.257 38.96 38.96 0 0 1-3.344-3.651 33.785 33.785 0 0 1-1.573-2.127 30.206 30.206 0 0 1-1.269-2.03c-.5-.882-.903-1.71-1.234-2.47a21.346 21.346 0 0 1-.885-2.417C1.029 50.45 1 49.426 1 49.426V14.899c0-1.615.911-3.956 2.247-5.039C6.32 7.376 10.199 5.588 14.202 4.3a57.65 57.65 0 0 1 4.517-1.243 71.568 71.568 0 0 1 4.595-.919c1.333-.222 2.619-.4 3.823-.544a86.196 86.196 0 0 1 7.536-.573C35.501.997 35.973 1 36 1c.035 0 .888-.004 2.32.058.847.035 1.892.093 3.094.19a88.98 88.98 0 0 1 6.247.725c1.016.156 2.07.337 3.14.548.89.175 1.792.368 2.7.588.97.228 1.948.486 2.92.77.837.242 1.67.508 2.494.795a41.872 41.872 0 0 1 3.1 1.212l.02.02a29.449 29.449 0 0 1 4.17 2.157 24.44 24.44 0 0 1 2.548 1.796c.453.366.856.878 1.19 1.457a8.08 8.08 0 0 1 .918 2.385c.093.421.139.828.139 1.197z" fill="#F4F4F4"/><path d="M55.794 36.043a20.019 20.019 0 0 0-.115-1.743c-.538-4.945-2.881-9.557-6.567-12.87a19.62 19.62 0 0 0-6.615-3.923c-7.03-2.478-14.52-.684-19.71 4.021a19.933 19.933 0 0 0-4.39 5.76l-.009-.004c-.007.021-.013.043-.021.064a20.245 20.245 0 0 0-1.874 12.554l.056.312c1.285 6.828 6.03 12.803 12.953 15.243A19.459 19.459 0 0 0 36 56.571c8.192-.007 15.867-5.214 18.702-13.496.082-.236.157-.472.228-.71a15.669 15.669 0 0 0 .119-.411c.55-1.965.79-3.954.746-5.911zM39.459 18.057a18.27 18.27 0 0 1 7.317 3.187l.059.042c-.05.054-.099.11-.148.165a14.534 14.534 0 0 0-.398-.242c-1.852-1.092-4.001-1.84-5.588-2.295-1.287-.37-2.206-.549-2.297-.567l-.003.019-.946-.583a17.89 17.89 0 0 1 2.004.274zm-1.2 1.077c.032.005 1.854.36 4.02 1.128.664.235 1.361.51 2.049.827.934.428 1.85.932 2.641 1.517.874.976 2.233 2.643 2.537 3.89-.73.54-1.6 1.17-2.414 1.744a62 62 0 0 1-1.629 1.115c-1.234-.757-5.512-2.493-7.111-2.56-.912-2.313-2.541-4.85-3.255-5.913l-.024-.033c.75-.565 3.185-1.715 3.185-1.715zM45.37 35.21s-.745-4.428-.999-4.558c-1.846-.938-5.186-2.216-5.773-1.76-2.368 1.845-2.209 2.165-2.831 2.51 0 0 2.603-3.689 3.19-3.562 1.287.277 5.553 1.968 5.888 2.509.336.542.525 4.86.525 4.86zM34.365 21.216c.656.97 2.4 3.656 3.298 5.99-.857 1.223-3.62 5.179-4.368 6.43-2.567.16-6.816.28-7.907.31-.612-.882-1.987-2.94-2.445-4.21 1.297-3.893 3.868-6.902 4.645-7.753 1.444-.369 4.759-1.115 6.777-.767zM24.115 33.99c-.193-.551-2.111-3.37-2.319-3.372-.207-.003-1.84.813-1.84.813s2.024-1.753 2.207-1.477c.184.276 2.504 3.842 2.46 4.179-.047.336-.54 2.383-.54 2.383s.136-2.229.032-2.526zm1.01-12.665c.444-.328.903-.635 1.373-.921l.173.805.103.488c-.975 1.103-3.173 3.84-4.448 7.41-.771.41-2.259 1.273-3.203 2.287-.174-.426-.334-1-.352-1.704a18.59 18.59 0 0 1 6.354-8.365zm-6.549 18.26c-.12.42-.288 1.045-.438 1.708a18.943 18.943 0 0 1-.501-6.993c.117-1.012.316-2.024.605-3.03a5.3 5.3 0 0 0 .405.952 22.198 22.198 0 0 0-.327 2.078 19.561 19.561 0 0 0-.114 1.724c-.02 1.139.08 2.344.423 3.383-.016.055-.035.114-.053.178zm4.054 9.846a18.954 18.954 0 0 1-3.992-6.53c.106-.787.35-1.837.594-2.73.644.34 1.99.982 3.315 1.196a1.565 1.565 0 0 1-.051-.09l.498.144.128-.752.075.135c.158-.47.392-1.164.655-1.924a80.48 80.48 0 0 1 1.066-2.91c.2-.504.384-.933.532-1.225 1.142-.032 5.242-.15 7.804-.307.188.363.546.878.993 1.456.448.58.986 1.227 1.534 1.85l.019.02.2.225c.926 1.04 1.847 1.98 2.362 2.383a1548.953 1548.953 0 0 1-2.562 6.314l-.451 1.095c-.738.247-2.859.79-6.604.501-2.062-1.45-5.035-6.579-5.548-7.478l-.203.617a6.289 6.289 0 0 1-.447-.054c.427.741 3.23 5.544 5.449 7.34-.012.552-.03 1.48-.03 2.3 0 .415.003.803.015 1.099-1.325-.018-2.636-.525-3.456-.918a18.542 18.542 0 0 1-1.895-1.757zm7.302 4.768a18.323 18.323 0 0 1-3.04-1.393 6.5 6.5 0 0 0 1.758.07c1.24.464 4.06 1.494 5.576 1.79.127.17.332.361.659.54a18.24 18.24 0 0 1-4.953-1.007zm1.226-4.97c.22.031 3.804-.492 4.097-.2.294.292 2.386 2.297 2.386 2.297s-2.11-1.613-2.71-1.754c-.6-.14-3.773-.344-3.773-.344zm7.182 5.854c-1.065-.028-1.814-.148-2.34-.296a4.034 4.034 0 0 1-.2-.062 3.34 3.34 0 0 1-.49-.205c.143-.063.307-.138.49-.222.064-.028.13-.06.2-.09.993-.459 2.373-1.127 3.194-1.654.8-.056 5.584-.485 9.01-2.954l.638.37a18.493 18.493 0 0 1-10.502 5.113zm10.107-6.692c-2.894 2.528-7.501 3.185-8.949 3.331-.52-.362-1.502-1.092-2.385-2.018A8.953 8.953 0 0 1 36 48.303l-.008-.012.008-.02c1.082-2.617 2.89-7.105 3.185-7.83 1.339-.34 4.936-1.278 6.364-1.91.316.273.706.617 1.131.999 1.27 1.142 2.85 2.626 3.718 3.639-.267 1.98-1.283 4.039-1.95 5.222zm4.955-9.406a23.27 23.27 0 0 1-.264 1.751s-1.71 1.376-2.325 1.707c-1.045-1.181-2.719-2.72-3.854-3.73a95.731 95.731 0 0 0-.829-.73c-.001-.098-.001-.23-.005-.396a339.83 339.83 0 0 0-.023-1.624c-.009-.514-.018-1.085-.032-1.663-.04-1.686-.102-3.46-.196-4.266.432-.282.928-.62 1.432-.971a136.44 136.44 0 0 0 2.603-1.877c.779.817 3.183 3.711 3.183 3.711.006.027.299 1.372.42 3.403.031.532.051 1.109.051 1.724 0 .92-.044 1.92-.161 2.961zm.84.535a18.74 18.74 0 0 1-.239 1.224c-.017-.036-.032-.069-.048-.1.073-.407.135-.808.185-1.204a27.19 27.19 0 0 0 .216-3.41 28.828 28.828 0 0 0-.105-2.506 18.771 18.771 0 0 1 .228 2.509 18.767 18.767 0 0 1-.236 3.488z" fill="#B4B4B4"/></svg>