<svg xmlns="http://www.w3.org/2000/svg"><symbol id="insta-icon" viewBox="0 0 14 14">
<path d="M3.98468 14H10.0153C12.2122 14 14 12.2126 14 10.0152V3.98434C14 1.78738 12.2122 0 10.0153 0H3.98468C1.78779 0 0 1.78738 0 3.98434V10.0152C0 12.2126 1.78779 14 3.98468 14ZM1.19991 3.98434C1.19991 2.44912 2.44904 1.19995 3.98468 1.19995H10.0153C11.551 1.19995 12.8001 2.44912 12.8001 3.98434V10.0152C12.8001 11.5509 11.551 12.8001 10.0153 12.8001H3.98468C2.4495 12.8001 1.19991 11.5509 1.19991 10.0152V3.98434Z"/>
<path d="M3.5844 7.16903C5.56072 7.16903 7.16879 5.5609 7.16879 3.58452C7.16879 1.60813 5.56072 0 3.5844 0C1.60762 0 0 1.60813 0 3.58452C0 5.5609 1.60808 7.16903 3.5844 7.16903ZM3.5844 1.19948C4.89947 1.19948 5.96889 2.2694 5.96889 3.58405C5.96889 4.8987 4.89947 5.96862 3.5844 5.96862C2.26933 5.96862 1.19991 4.8987 1.19991 3.58405C1.19991 2.2694 2.26979 1.19948 3.5844 1.19948Z" transform="translate(3.41504 3.41602)"/>
<path d="M0.861388 1.72283C1.33712 1.72283 1.72278 1.33716 1.72278 0.861417C1.72278 0.38567 1.33712 0 0.861388 0C0.385657 0 0 0.38567 0 0.861417C0 1.33716 0.385657 1.72283 0.861388 1.72283Z" transform="translate(9.87695 2.34912)"/>
</symbol><symbol id="vk-icon" viewBox="0 0 24 12">
<path fill-rule="evenodd" clip-rule="evenodd" d="M11.7421 11.9499H13.1769C13.1769 11.9499 13.6102 11.9077 13.8316 11.699C14.0355 11.5069 14.029 11.1469 14.029 11.1469C14.029 11.1469 14.0013 9.45983 14.8942 9.21153C15.7747 8.96642 16.9057 10.8418 18.1045 11.5631C19.0105 12.1088 19.6995 11.9888 19.6995 11.9888L22.9047 11.9499C22.9047 11.9499 24.5812 11.8592 23.7859 10.7039C23.7211 10.6094 23.3227 9.8492 21.4029 8.28726C19.3929 6.65256 19.6623 6.91682 22.0832 4.08912C23.5572 2.36696 24.1471 1.31567 23.9629 0.865026C23.7874 0.436083 22.7029 0.549064 22.7029 0.549064L19.0943 0.568851C19.0943 0.568851 18.8262 0.536936 18.6281 0.64098C18.4344 0.742471 18.3099 0.979921 18.3099 0.979921C18.3099 0.979921 17.7382 2.31271 16.9771 3.44634C15.3705 5.83744 14.7274 5.96446 14.4652 5.81574C13.8542 5.46977 14.0071 4.4255 14.0071 3.68379C14.0071 1.3661 14.4084 0.3997 13.2257 0.149483C12.8339 0.0665034 12.5447 0.011609 11.5411 0.00267268C10.2535 -0.00881685 9.16398 0.00586421 8.54639 0.270762C8.13564 0.446934 7.81883 0.839493 8.01183 0.862472C8.25071 0.890558 8.79037 0.990134 9.07659 1.33163C9.44656 1.7727 9.43345 2.76271 9.43345 2.76271C9.43345 2.76271 9.64611 5.49084 8.93749 5.82978C8.45099 6.06212 7.78387 5.58786 6.35132 3.41825C5.6172 2.30696 5.06297 1.07822 5.06297 1.07822C5.06297 1.07822 4.95664 0.849068 4.76583 0.725875C4.53423 0.577149 4.2116 0.529914 4.2116 0.529914L0.782066 0.549702C0.782066 0.549702 0.267163 0.562468 0.0785356 0.758428C-0.0897 0.933325 0.064698 1.29397 0.064698 1.29397C0.064698 1.29397 2.74918 6.79873 5.78908 9.57281C8.57771 12.1171 11.7421 11.9499 11.7421 11.9499Z"/>
</symbol></svg>