<svg width="24" height="12" xmlns="http://www.w3.org/2000/svg"><path fill-rule="evenodd" clip-rule="evenodd" d="M11.742 11.95h1.435s.433-.042.655-.251c.204-.192.197-.552.197-.552s-.028-1.687.865-1.935c.88-.246 2.012 1.63 3.21 2.351.907.546 1.596.426 1.596.426l3.205-.04s1.676-.09.88-1.245c-.064-.095-.462-.855-2.382-2.417-2.01-1.634-1.74-1.37.68-4.198 1.474-1.722 2.064-2.773 1.88-3.224-.176-.429-1.26-.316-1.26-.316l-3.609.02s-.268-.032-.466.072c-.194.101-.318.339-.318.339s-.572 1.333-1.333 2.466c-1.607 2.391-2.25 2.518-2.512 2.37-.61-.346-.458-1.39-.458-2.132 0-2.318.401-3.284-.781-3.535-.392-.082-.681-.137-1.685-.146C10.254-.01 9.164.006 8.546.27c-.41.176-.727.568-.534.591.239.029.778.128 1.065.47.37.44.356 1.43.356 1.43s.213 2.729-.496 3.068c-.486.232-1.153-.242-2.586-2.412a19.147 19.147 0 0 1-1.288-2.34S4.957.85 4.766.726C4.534.577 4.212.53 4.212.53L.782.55S.267.562.08.758c-.169.175-.014.536-.014.536S2.75 6.799 5.79 9.573c2.789 2.544 5.953 2.377 5.953 2.377z"/></svg>