<svg version="1" xmlns="http://www.w3.org/2000/svg" width="793.333" height="793.333" viewBox="0 0 595 595"><path d="M0 298v297h595V1H0v297zm83.8-43.8l.2 115.7 2.6 2c7.5 5.9 16.7 20.3 24 37.4 4.2 10 4.3 10.1 5.4 7.2 7.2-18.9 18.5-37.7 27-44.8l3-2.6.2-115.3.3-115.3h38l.3 115.2.2 115.2 4.8 4.8c8.4 8.4 15.7 20.5 22.8 37.8l3.3 8 1.8-4.5c6.4-16.4 16.3-33.1 24.5-41.3 2.6-2.6 4.3-4.7 3.7-4.7-.6 0-.8-42.4-.7-115.3l.3-115.2h38v233l-4.5 2.4c-18.9 10.3-45.2 54.4-50 83.8l-1.2 7.3H200v-2.8c0-4.2-9.2-30.4-15.8-45-6.2-13.6-13-24.7-18-29.5l-2.9-2.8-4.6 5.7c-5.2 6.6-13 21-17.7 32.9-4.7 11.7-10.7 29.6-12 36l-1.1 5.5H100v-2.9c0-9.5-6.1-27.9-14.6-44-13.1-24.8-27.7-42.3-38.1-45.5l-2.3-.7V138l19.3.2 19.2.3.3 115.7zm342.6-113.4c10.9 4.1 18.9 10.3 22.9 17.7 2.1 3.8 2.2 5.2 2.2 29.5 0 29.2-.8 33.9-9 50.3-11.8 23.8-29.3 43.4-43.3 48.7l-4.5 1.7 5.4 1.8c24.1 7.8 39.6 28.8 48.9 66.4 4.4 17.7 5 25.3 5 68.3V465h-37.8l-.5-41.8c-.6-44.4-.9-47.9-6.2-66.5-1.4-4.9-4.5-13.3-6.8-18.6-7.5-16.8-14.8-26.6-25.1-33.3-5.7-3.6-6.3-3.8-14.3-3.8H355v164h-38V137.9l51.8.3c50.3.4 51.9.4 57.6 2.6zm137.2-2c-.3.5-6.1 4.3-13 8.6l-12.6 7.8.1 52.6v52.7l6.1 3.9c18.6 12 25.1 38.3 14.6 59-2.6 5.1-10.9 13.8-16.4 17.3l-4.4 2.8v105l13.2 8.3 13.2 8.2h-45.9c-39 0-45.6-.2-44-1.4 1.1-.7 6.8-4.3 12.8-8l10.7-6.8V343.3l-5.7-3.9c-14.3-9.9-22.1-27.7-19.3-44.3 2.1-12.8 10.2-25.2 20.5-31.8l4.5-2.8-.2-53-.3-52.9-12.2-7.6c-6.7-4.1-12.2-7.8-12.3-8.3 0-.4 20.5-.7 45.6-.7 25 0 45.3.4 45 .8z"/><path d="M355 220.5V279h5.8c4.9 0 6.5-.5 11.2-3.6 21.1-13.9 36.6-35.9 41.4-59.1 2.7-12.6 3-23 1.1-39.1l-1.8-15.2H355v58.5zm158 59.4c-10.9 3.5-17 11.5-17 22.3 0 12.4 9.6 21.8 22.4 21.9 18 .3 28.5-18.4 19-33.8-5.1-8.2-16.4-13-24.4-10.4z"/></svg>